<?xml version="1.0" encoding="utf-8" ?>
<!-- Generated by AutoXChange V20.05.52a from Tailor Made Software -->
<!-- www.tailormade.com -->
<!DOCTYPE svg PUBLIC '-//W3C//DTD SVG 1.0//EN' 
'http://www.w3.org/TR/2001/REC-SVG-20010904/DTD/svg10.dtd'>
<svg contentScriptType="text/ecmascript" xmlns:xlink="http://www.w3.org/1999/xlink" zoomAndPan="magnify" 
contentStyleType="text/css" preserveAspectRatio="xMidYMid meet" 
width="2446.65" height="1588" viewBox="0 0 2446.65 1588" 
version="1.1" xmlns="http://www.w3.org/2000/svg" xmlns:cvjs="http://www.tailormade.com/" stroke-linecap="butt" stroke-linejoin="round" fill-rule="evenodd" >
<defs>
	<style id="cv_styles" type = "text/css">
	    <![CDATA[
	    svg{ background-color: white; opacity: 1.}
		:root {
		    --tmsMinLineWidth: 0.6;
		    --tmsHLWidth: 0.6;
		    --tmsNumberOfLayouts: 1;
		    --tmsNumberOfSVGViewports: 0;
         --tmsMinFixedLineWidth: 0.2;
		    --tmsbPostFix: 0;
		}
		.tmsPoints {
		    fill: none;
		    stroke-width: var(--tmsMinLineWidth);
		    r: calc(var(--tmsMinLineWidth)/2.0);
		}
		.ZWhl {
		    stroke-width: var(--tmsHLWidth);
		}
		.ZW {
		    stroke-width: var(--tmsMinLineWidth);
		}
		.ZW6 {
		    stroke-width: calc(var(--tmsMinLineWidth)*6);
		}
		.ZW10 {
		    stroke-width: calc(var(--tmsMinLineWidth)*10);
		}
		.ZW20 {
		    stroke-width: calc(var(--tmsMinLineWidth)*20);
		}
		.ZW100 {
		    stroke-width: calc(var(--tmsMinLineWidth)*100);
		}
		.nZW {
		}
		.sLW_0_2{
		    stroke-width: var(--tmsMinFixedLineWidth);
		}
		.sLW_0_6{
		    stroke-width: calc(var(--tmsMinFixedLineWidth)*3);
		}
		.hyperlinks:hover {
		    stroke-width: 3;
		}
		.hyperimage image{
			opacity: 0;
		}
		.hyperimage:hover image{
			opacity: 1;
		}
		.hyperimage:hover path{
			stroke-width: 3;
		}
		.hyperimage:visited{
			color: red;
		}
		.sLt_CENTER {
		    stroke-dasharray: calc(var(--tmsMinLineWidth)*146.798831) calc(var(--tmsMinLineWidth)*29.359766) calc(var(--tmsMinLineWidth)*29.359766) calc(var(--tmsMinLineWidth)*29.359766);
		}
	]]></style>
	</defs>
<metadata>
<text id="cadviewer_worldUnits">
{ "globalOrigin": { "x": -97.2226, "y" : -312}, 
						"units": "in",
						"measurementType": "English",
						"lengthType": "Architectural",
						"lengthPrecision": 4,
						"blockUnitsFormat": "Undefined",
						"svgToWorldUnits": 0.603275,
						"worldToSVGUnits": 1.65762
}
</text>
<text id="cadviewer_drawingCoordinates">
{ "DWG": 
    { "lowerLeft": { "x": 17.4489, "y" : -258.016}, 
      "upperRight": { "x": 1493.45, "y" : 699.984} 
    },
 "SVG": 
    { "lowerLeft": { "x": 26.6764, "y" : 1588}, 
      "upperRight": { "x": 2473.32, "y" : 0} 
    },
 "Drawing Height": 1588
}
</text>
<text id="cadviewer_vqBuilding"></text>
<text id="cadviewer_vqFloor"></text>
<text id="cadviewer_multiPages">
{ "multiPages": 2, 
                   "currentPage":1,
                   "pages" : [
                        { "fileName":"F294572", "pageName":"ModelSpace"},
                        { "fileName":"F294572__Layout01", "pageName":"Layout1"}
                   ]
}
</text>
</metadata>
<g id="cv_main_drawing">
<g id="layer_WA_2D_EXT" class="layer_WA_2D_EXT"  cvjs:layerName="WA-EXT" cvjs:plottable="YES"
 cvjs:status="ON" visibility="visible">
<g id="cvclr_1" stroke="none" fill="#91A552" opacity="1.">
<path id="cv_2" d="M830.47,147.53l0,-89.51l34.81,-0l0,-23.21l14.5,-0l0,-4.97l22.38,-0l0,-8.29l3.32,-0l0,-11.6l-59.67,-0l0,4.97l-30.25,-0l0,23.21l-4.97,-0l0,89.51l-10.36,-0l0,-4.97l-36.47,-0l0,11.6l3.32,0l0,8.29l11.19,-0l0,4.97l52.22,-0 Z "/>
<path id="cv_3" d="M659.32,117.69l-32.32,-0l0,4.97l-11.6,-0l0,11.6l3.32,-0l-0,8.29l48.9,-0l0,-8.29l3.32,-0l0,-11.6l-11.6,-0l0,-4.97 Z "/>
<path id="cv_4" d="M401.14,265.22l51.39,0l0,-94.48l36.47,-0l0,-23.21l14.5,-0l0,-4.97l15.75,-0l0,-8.29l3.32,-0l0,-11.6l-54.7,-0l0,4.97l-30.25,-0l0,23.21l-4.97,-0l0,94.48l-9.53,-0l0,-4.97l-37.3,-0l0,11.6l3.32,0l0,8.29l12.02,-0l0,4.97 Z "/>
<path id="cv_5" d="M289.67,251.96l0,8.29l-48.9,0l0,-8.29l-3.32,-0l0,-11.6l11.6,-0l0,-4.97l32.32,-0l0,4.97l11.6,-0l0,11.6l-3.32,-0 Z "/>
<path id="cv_6" d="M142.97,251.96l0,-11.6l-51.39,-0l0,4.97l-31.91,-0l0,23.21l-4.97,-0l0,84.54l11.6,-0l0,-3.32l8.29,-0l0,-61.33l36.47,-0l0,-23.21l14.5,-0l0,-4.97l14.09,-0l0,-8.29l3.32,-0 Z "/>
<path id="cv_7" d="M48.07,560.28l62.99,-0l0,-39.78l-36.47,-0l0,-71.28l-8.29,-0l0,-3.32l-11.6,-0l-0,69.62l-21.55,-0l0,4.97l-23.21,-0l0,31.91l-4.97,-0l0,58.02l11.6,-0l0,-3.32l8.29,-0l-0,-26.52l23.21,-0l0,-20.31 Z "/>
<path id="cv_8" d="M24.86,748l0,-48.9l-8.29,-0l0,-3.32l-11.6,-0l0,11.6l-4.97,-0l0,32.32l4.97,-0l0,11.6l11.6,-0l0,-3.32l8.29,-0 Z "/>
<path id="cv_9" d="M74.59,1067.51l36.47,-0l0,-39.78l-62.99,-0l0,-20.31l-23.21,-0l0,-26.52l-8.29,-0l0,-3.32l-11.6,-0l0,58.02l4.97,-0l0,31.91l23.21,-0l0,4.97l21.55,-0l0,69.62l11.6,-0l0,-3.32l8.29,-0l-0,-71.28 Z "/>
<path id="cv_10" d="M281.38,1352.62l-32.32,-0l0,-4.97l-11.6,-0l0,-11.6l3.32,-0l0,-8.29l48.9,-0l0,8.29l3.32,-0l0,11.6l-11.6,-0l0,4.97 Z "/>
<path id="cv_11" d="M144.63,1336.04l0,11.6l-53.04,-0l0,-4.97l-31.91,-0l0,-23.21l-4.97,-0l0,-84.54l11.6,-0l0,3.32l8.29,-0l0,61.33l38.13,0l0,23.21l14.5,-0l0,4.97l14.09,-0l0,8.29l3.32,-0 Z "/>
<path id="cv_12" d="M659.32,1470.31l-32.32,-0l0,-4.97l-11.6,-0l0,-11.6l3.32,-0l0,-8.29l48.9,-0l0,8.29l3.32,-0l0,11.6l-11.6,-0l0,4.97 Z "/>
<path id="cv_13" d="M1822.97,1453.73l-32.32,-0l0,-4.97l-11.6,-0l0,-11.6l3.32,-0l0,-8.29l48.9,-0l0,8.29l3.32,-0l0,11.6l-11.6,-0l0,4.97 Z "/>
<path id="cv_14" d="M0,880.61l0,-32.32l4.97,-0l0,-11.6l11.6,-0l0,3.32l8.29,-0l0,48.9l-8.29,-0l0,3.32l-11.6,-0l0,-11.6l-4.97,-0 Z "/>
<path id="cv_15" d="M503.5,1440.47l0,4.97l15.75,-0l0,8.29l3.32,-0l0,11.6l-54.7,-0l0,-4.97l-30.25,-0l0,-23.21l-4.97,-0l0,-94.48l-9.53,0l0,4.97l-37.3,-0l0,-11.6l3.32,-0l0,-8.29l12.02,-0l0,-4.97l51.39,-0l0,94.48l36.47,-0l0,23.21l14.5,-0 Z "/>
<path id="cv_16" d="M778.25,1440.47l52.22,-0l0,89.51l34.81,0l0,23.21l14.5,-0l0,4.97l22.38,-0l0,8.29l3.32,-0l0,11.6l-59.67,-0l0,-4.97l-30.25,-0l0,-23.21l-4.97,-0l0,-89.51l-10.36,0l0,4.97l-36.47,-0l0,-11.6l3.32,-0l0,-8.29l11.19,-0l0,-4.97 Z "/>
<path id="cv_17" d="M1057.98,1563.14l0,-4.97l-56.36,-0l0,8.29l-3.32,-0l0,11.6l25.69,-0l0,4.97l59.67,-0l0,-11.6l-3.32,-0l0,-8.29l-22.38,-0 Z "/>
<path id="cv_18" d="M1246.53,1563.14l0,-33.15l-46.41,-0l0,33.15l-20.31,-0l0,8.29l-3.32,-0l0,11.6l23.62,-0l0,4.97l46.41,-0l0,-4.97l23.62,-0l0,-11.6l-3.32,-0l0,-8.29l-20.31,0 Z "/>
<path id="cv_19" d="M1670.88,1423.9l-54.7,-0L1616.18,1529.98l-34.81,0l0,23.21l-14.5,-0l0,4.97l-22.38,-0l0,8.29l-3.32,-0l0,11.6l59.67,-0l0,-4.97l30.25,-0l0,-23.21l4.97,-0L1636.07,1443.79l10.36,-0l0,4.97l39.78,-0l0,-11.6l-3.32,-0l0,-8.29l-12.02,-0l0,-4.97 Z "/>
<path id="cv_20" d="M1422.65,1583.03l-59.67,-0l0,-11.6l3.32,-0l0,-8.29l22.38,-0l0,-4.97l56.36,-0l0,8.29l3.32,-0l0,11.6l-25.69,-0l0,4.97 Z "/>
<path id="cv_21" d="M2200.91,1319.47l-32.32,-0l0,-4.97l-11.6,-0l0,-11.6l3.32,-0l0,-8.29l48.9,-0l0,8.29l3.32,-0l0,11.6l-11.6,-0l0,4.97 Z "/>
<path id="cv_22" d="M1994.12,1400.69L1994.12,1289.63l54.7,0l0,4.97l12.02,-0l0,8.29l3.32,-0l0,11.6l-39.78,-0l0,-4.97l-10.36,-0L2014.01,1420.58l-4.97,-0l0,23.21l-30.25,-0l0,4.97l-51.39,-0l0,-11.6l3.32,-0l0,-8.29l14.92,0l0,-4.97l14.5,-0l0,-23.21l33.98,-0 Z "/>
<path id="cv_23" d="M2305.34,1302.89l0,11.6l49.73,-0l0,-4.97l31.91,-0l0,-23.21l4.97,-0l0,-71.28l-11.6,-0l0,3.32l-8.29,-0l0,48.07l-34.81,-0l0,23.21l-14.5,-0l0,4.97l-14.09,-0l0,8.29l-3.32,-0 Z "/>
<path id="cv_24" d="M1246.53,58.02l-46.41,-0l0,-33.15l-20.31,-0l0,-8.29l-3.32,-0l0,-11.6l23.62,-0l0,-4.97l46.41,-0l0,4.97l23.62,-0l0,11.6l-3.32,-0l0,8.29l-20.31,-0l0,33.15 Z "/>
<path id="cv_25" d="M1822.97,134.27l-32.32,-0l0,4.97l-11.6,-0l0,11.6l3.32,-0l0,8.29l48.9,-0l0,-8.29l3.32,-0l0,-11.6l-11.6,-0l0,-4.97 Z "/>
<path id="cv_26" d="M2200.91,268.53l-32.32,-0l0,4.97l-11.6,-0l0,11.6l3.32,-0l0,8.29l48.9,-0l0,-8.29l3.32,-0l0,-11.6l-11.6,-0l0,-4.97 Z "/>
<path id="cv_27" d="M2305.34,285.11l0,-11.6l49.73,-0l0,4.97l31.91,-0l0,23.21l4.97,-0l0,71.28l-11.6,-0l0,-3.32l-8.29,-0l0,-48.07l-34.81,-0l0,-23.21l-14.5,-0l0,-4.97l-14.09,-0l0,-8.29l-3.32,-0 Z "/>
<path id="cv_28" d="M2446.65,867.35l-4.97,-0l0,11.6l-11.6,-0l0,-3.32l-8.29,0l-0,-35.64l8.29,-0l0,-3.32l11.6,-0l0,11.6l4.97,-0l0,19.06 Z "/>
<path id="cv_29" d="M1023.99,4.97l59.67,-0l0,11.6l-3.32,-0l0,8.29l-22.38,-0l0,4.97l-56.36,-0l0,-8.29l-3.32,-0l0,-11.6l25.69,-0l0,-4.97 Z "/>
<path id="cv_30" d="M1422.65,4.97l-59.67,-0l0,11.6l3.32,-0l0,8.29l22.38,-0l0,4.97l56.36,-0l0,-8.29l3.32,-0l0,-11.6l-25.69,-0l0,-4.97 Z "/>
<path id="cv_31" d="M1616.18,164.1L1616.18,58.02l-34.81,-0l0,-23.21l-14.5,-0l0,-4.97l-22.38,-0l0,-8.29l-3.32,-0l0,-11.6l59.67,-0l0,4.97l30.25,-0l0,23.21l4.97,-0L1636.07,144.21l10.36,-0l0,-4.97l39.78,-0l0,11.6l-3.32,-0l0,8.29l-12.02,-0l0,4.97l-54.7,0 Z "/>
<path id="cv_32" d="M1994.12,187.31L1994.12,298.37l54.7,-0l0,-4.97l12.02,-0l0,-8.29l3.32,-0l0,-11.6l-39.78,-0l0,4.97l-10.36,-0L2014.01,167.42l-4.97,-0l0,-23.21l-30.25,-0l0,-4.97l-51.39,-0l0,11.6l3.32,-0l0,8.29l14.92,-0l0,4.97l14.5,0l0,23.21l33.98,-0 Z "/>
<path id="cv_33" d="M2405.19,580.58l0,-20.31l-69.6,-0l0,-39.78l36.47,-0l0,-51.39l8.29,-0l0,-3.32l11.6,-0l0,49.73l21.55,-0l0,4.97l23.21,-0l0,31.91l4.97,-0l0,71.28l-11.6,-0l0,-3.32l-8.29,-0l0,-39.78l-16.6,0 Z "/>
<path id="cv_34" d="M2405.21,1027.72l-69.62,-0l0,39.78l36.47,-0l0,51.39l8.29,-0l0,3.32l11.6,-0l0,-49.73l21.55,-0l0,-4.97l23.21,-0l0,-31.91l4.97,-0l0,-71.28l-11.6,-0l0,3.32l-8.29,-0l0,39.78l-16.58,-0l0,20.31 Z "/>
<path id="cv_35" d="M2421.78,712.36l-0,35.64l8.29,-0l0,3.32l11.6,-0l0,-11.6l4.97,-0l0,-19.06l-4.97,-0l0,-11.6l-11.6,-0l0,3.32l-8.29,-0 Z "/>
<path id="cv_36" d="M2004.06,1022.75l0,49.73l-49.73,-0l0,-49.73l49.73,-0 Z "/>
<path id="cv_37" d="M2004.06,515.52l-49.73,-0l0,49.73l49.73,-0l0,-49.73 Z "/>
<path id="cv_38" d="M487.34,570.22l-0,-59.67l-39.78,-0l0,59.67l39.78,-0 Z "/>
<path id="cv_39" d="M1243.22,510.55l-39.78,-0l0,59.67l39.78,-0l0,-59.67 Z "/>
<path id="cv_40" d="M1626.13,510.55l0,54.7l-49.73,-0l0,-54.7l49.73,-0 Z "/>
<path id="cv_41" d="M1576.4,1022.75l46.41,-0l0,49.73l-46.41,-0l0,-49.73 Z "/>
<path id="cv_42" d="M865.28,510.55l-39.78,-0l0,59.67l39.78,-0l0,-59.67 Z "/>
<path id="cv_43" d="M825.49,1017.78l39.78,-0l0,59.67l-39.78,-0l0,-59.67 Z "/>
<path id="cv_44" d="M487.34,1017.78l0,59.67l-39.78,-0l0,-59.67l39.78,-0 Z "/>
<path id="cv_45" d="M1203.43,1017.78l39.78,-0l0,59.67l-39.78,-0l0,-59.67 Z "/>
</g>
<g id="cvclr_46" stroke="#91A552" fill="none">
<path id="cv_47" class=" ZW" d="M0,880.61h4.97v11.6h11.6v-3.32l8.29,0l-0,-48.9h-8.29v-3.32h-11.6v11.6L452.53,1322.78L503.5,1445.44v-4.97h-14.5v-23.21h-36.47l-19.4,-94.48l-31.99,0v4.97h-12.02v8.29l-3.32,0v11.6h37.3v-4.97l9.53,-0v94.48h4.97v23.21h30.25v4.97h54.7v-11.6h-3.32v-8.29" />
</g>
<g id="cvclr_48" stroke="#000" fill="none">
<path id="cv_49" class="ZW" d="M54.7,1072.48l0,69.62M74.59,1138.78l-0,-71.28M54.7,1142.1l11.6,-0l0,-3.32l8.29,-0M9.95,1035.6l0,31.91l23.21,-0l0,4.97l21.55,-0M48.07,1007.42l-23.21,-0M4.97,977.58l0,58.02M24.86,1007.42l0,-26.52M4.97,1035.6l4.97,-0M16.58,980.9l0,-3.32M24.86,980.9l-8.29,-0M16.58,977.58l-11.6,-0M48.07,1027.72l0,-20.31M54.7,515.52l0,-69.62M74.59,449.22l-0,71.28M4.97,610.42l0,-58.02M48.07,560.28l0,20.31l-23.21,-0l0,26.52M16.58,607.1l0,3.32l-11.6,-0M24.86,607.1l-8.29,-0M9.95,520.49l23.21,-0M4.97,552.4l4.97,-0l0,-31.91M33.15,520.49l0,-4.97l21.55,-0M54.7,445.9l11.6,-0l0,3.32l8.29,-0M1246.53,1588l-46.41,-0M1246.53,1529.98l-46.41,-0M1200.12,1563.14l0,-33.15M1179.81,1563.14l20.31,0M1179.81,1571.42l0,-8.29M1176.5,1571.42l3.32,-0M1176.5,1583.03l0,-11.6M1176.5,1583.03l23.62,-0M1200.12,1588l0,-4.97M1266.84,1571.42l0,-8.29l-20.31,0M1270.15,1571.42l-3.32,-0M1270.15,1583.03l0,-11.6M1270.15,1583.03l-23.62,-0M1246.53,1588l0,-4.97M2391.95,1072.48l0,49.73M2380.34,1122.21l0,-3.32M2391.95,1122.21l-11.6,-0M2436.7,1035.6l0,31.91M2372.05,1118.89l0,-51.39M2380.34,1118.89l-8.29,-0M2436.7,1067.51l-23.21,-0M2413.49,1072.48l-21.55,-0M2413.49,1067.51l0,4.97M2441.67,964.32l0,71.28M2421.78,1007.42l0,-39.78M2405.21,1007.42l16.58,-0M2441.67,1035.6l-4.97,-0M2430.07,964.32l11.6,-0M2430.07,967.64l0,-3.32M2421.78,967.64l8.29,-0M1626.13,510.55l-49.73,-0M1200.12,0l0,4.97M1246.53,0l0,4.97M1200.12,24.86l0,33.15M1179.81,24.86l20.31,-0M1179.81,16.58l0,8.29M1176.5,16.58l3.32,-0M1176.5,4.97l23.62,-0M1176.5,4.97l0,11.6M1246.53,24.86l0,33.15M1266.84,16.58l0,8.29l-20.31,-0M1270.15,16.58l-3.32,-0M1270.15,4.97l-23.62,-0M1270.15,4.97l0,11.6M1246.53,0l-46.41,-0M2372.05,469.11l0,51.39M2391.95,515.52l0,-49.73M2441.67,623.68l0,-71.28M2421.78,580.58l0,39.78l8.29,-0l0,3.32l11.6,-0M2413.49,520.49l0,-4.97M2436.7,520.49l-23.21,-0M2441.67,552.4l-4.97,-0l0,-31.91M2413.49,515.52l-21.55,-0M2391.95,465.79l-11.6,-0M2380.34,469.11l-8.29,-0M2380.34,465.79l0,3.32M1246.53,1563.14l0,-33.15M1246.53,58.02l-46.41,-0M1566.87,29.84l-22.38,-0l0,-8.29l-3.32,-0l0,-11.6l59.67,-0l0,4.97l30.25,-0l0,23.21l4.97,-0L1636.07,144.21l10.36,-0l0,-4.97l39.78,-0l0,11.6l-3.32,-0l0,8.29l-12.02,-0l0,4.97M1616.18,58.02l-34.81,-0l0,-23.21l-14.5,-0l0,-4.97M1954.33,565.25l49.73,-0M1954.33,565.25l0,-49.73M1994.12,187.31l-33.98,-0l0,-23.21l-14.5,-0l0,-4.97M2335.59,560.28l0,-39.78M2372.05,520.49l-36.47,-0M2421.78,580.58l-16.6,0M1954.33,1022.75l49.73,-0M2004.06,1072.48l-49.73,-0l0,-49.73M1945.63,1428.87l-14.92,-0l0,8.29l-3.32,-0l0,11.6l51.39,-0l0,-4.97l30.25,-0l0,-23.21l4.97,-0L2014.01,1309.52l10.36,-0l0,4.97l39.78,-0l0,-11.6l-3.32,-0l0,-8.29l-12.02,-0l0,-4.97l-54.7,-0M1994.12,1400.69l-33.98,-0l0,23.21l-14.5,0l0,4.97M1622.81,1022.75l0,49.73M1083.67,1583.03l0,-11.6l-3.32,-0l0,-8.29l-22.38,-0M1057.98,1558.16l-56.36,-0l0,8.29l-3.32,-0l0,11.6l25.69,-0l0,4.97l59.67,-0M487.34,1077.45l-39.78,-0M1576.4,510.55l-0,54.7M879.78,29.84l22.38,-0l0,-8.29l3.32,-0l0,-11.6l-59.67,-0l0,4.97l-30.25,-0l0,23.21l-4.97,-0l0,89.51l-10.36,-0l0,-4.97l-36.47,-0l0,11.6l3.32,0l0,8.29l11.19,-0l0,4.97l52.22,0M830.47,58.02l34.81,-0l0,-23.21l14.5,-0l0,-4.97M626.99,117.69l0,4.97l-11.6,-0l0,11.6l3.32,-0l-0,8.29l48.9,-0l0,-8.29l3.32,-0l0,-11.6l-11.6,-0l0,-4.97l-32.32,-0M1362.98,4.97l0,11.6l3.32,-0l0,8.29l22.38,-0l0,4.97l56.36,-0l0,-8.29l3.32,-0l0,-11.6l-25.69,-0l0,-4.97l-59.67,-0M1670.88,164.1l-54.7,0M2004.06,515.52l0,49.73M1945.63,159.13l-14.92,0l0,-8.29l-3.32,-0l0,-11.6l51.39,-0l0,4.97l30.25,-0l0,23.21l4.97,-0L2014.01,278.48l10.36,-0l0,-4.97l39.78,-0l0,11.6l-3.32,-0l0,8.29l-12.02,-0l0,4.97l-54.7,0M1994.12,187.31L1994.12,298.37M2004.06,515.52l-49.73,-0M1626.13,565.25l-49.73,-0M2405.19,560.28l-69.6,-0M2405.19,580.58l0,-20.31M2405.21,1007.42l0,20.31M2335.59,1027.72l0,39.78l36.47,-0M2004.06,1022.75l0,49.73M1994.12,1400.69L1994.12,1289.63M1083.67,4.97l0,11.6l-3.32,-0l0,8.29l-22.38,-0l0,4.97l-56.36,-0M503.5,142.56l15.75,-0l0,-8.29l3.32,-0l0,-11.6l-54.7,-0l0,4.97l-30.25,-0l0,23.21l-4.97,-0l0,94.48l-9.53,-0l0,-4.97l-37.3,-0l0,11.6l3.32,0l0,8.29l12.02,-0l0,4.97M452.53,265.22l0,-94.48l36.47,-0l0,-23.21l14.5,-0l0,-4.97M1622.81,1072.48l-46.41,-0l0,-49.73M503.5,1445.44l15.75,-0l0,8.29l3.32,-0l0,11.6l-54.7,-0l0,-4.97l-30.25,-0l0,-23.21l-4.97,-0l0,-94.48l-9.53,0l0,4.97l-37.3,-0l0,-11.6l3.32,-0l0,-8.29l12.02,-0l0,-4.97l51.39,-0l0,94.48l36.47,-0l0,23.21l14.5,-0l0,4.97M1626.13,510.55l0,54.7M1057.98,1563.14l0,-4.97M401.14,265.22l51.39,0M2405.21,1027.72l-69.62,-0M626.99,1470.31l0,-4.97l-11.6,-0l0,-11.6l3.32,-0l0,-8.29l48.9,-0l0,8.29l3.32,-0l0,11.6l-11.6,-0l0,4.97l-32.32,-0M144.63,1347.65l-53.04,-0l0,-4.97l-31.91,-0l0,-23.21l-4.97,-0l0,-84.54l11.6,-0l0,3.32l8.29,-0l0,61.33l38.13,0l0,23.21l14.5,-0l0,4.97l14.09,-0l0,8.29l3.32,-0l0,11.6M48.07,1027.72l62.99,-0l0,39.78M74.59,1067.51l36.47,-0M249.06,1352.62l0,-4.97l-11.6,-0l0,-11.6l3.32,-0l0,-8.29l48.9,-0l0,8.29l3.32,-0l0,11.6l-11.6,-0l0,4.97l-32.32,-0M447.56,1077.45l0,-59.67l39.78,-0l0,59.67M-0,848.29l4.97,-0l0,-11.6l11.6,-0l0,3.32l8.29,-0l0,48.9l-8.29,-0l0,3.32l-11.6,-0l0,-11.6l-4.97,-0l0,-32.32M24.86,699.1l-8.29,-0l0,-3.32l-11.6,-0l0,11.6l-4.97,-0l0,32.32l4.97,-0l0,11.6l11.6,-0l0,-3.32l8.29,-0l0,-48.9M111.06,560.28l0,-39.78M74.59,520.49l36.47,-0M48.07,560.28l62.99,-0M487.34,510.55l-39.78,-0l0,59.67l39.78,-0l-0,-59.67M142.97,240.35l-51.39,-0l0,4.97l-31.91,-0l0,23.21l-4.97,-0l0,84.54l11.6,-0l0,-3.32l8.29,-0l0,-61.33l36.47,-0l0,-23.21l14.5,-0l0,-4.97l14.09,-0l0,-8.29l3.32,-0l0,-11.6M289.67,260.25l-48.9,0l0,-8.29l-3.32,-0l0,-11.6l11.6,-0l0,-4.97l32.32,-0l0,4.97l11.6,-0l0,11.6l-3.32,-0l0,8.29M1790.64,1453.73l0,-4.97l-11.6,-0l0,-11.6l3.32,-0l0,-8.29l48.9,-0l0,8.29l3.32,-0l0,11.6l-11.6,-0l0,4.97l-32.32,-0M830.47,1440.47l0,89.51l34.81,0l0,23.21l14.5,-0l0,4.97l22.38,-0l0,8.29l3.32,-0l0,11.6l-59.67,-0l0,-4.97l-30.25,-0l0,-23.21l-4.97,-0l0,-89.51l-10.36,0l0,4.97l-36.47,-0l0,-11.6l3.32,-0l0,-8.29l11.19,-0l0,-4.97l52.22,-0M865.28,1077.45l-39.78,-0M865.28,1017.78l0,59.67M825.49,1077.45l0,-59.67l39.78,-0M1243.22,1017.78l0,59.67l-39.78,-0l0,-59.67l39.78,-0M1362.98,1583.03l0,-11.6l3.32,-0l0,-8.29l22.38,-0l0,-4.97l56.36,-0l0,8.29l3.32,-0l0,11.6l-25.69,-0l0,4.97l-59.67,-0M1616.18,1423.9L1616.18,1529.98l-34.81,0l0,23.21l-14.5,-0l0,4.97l-22.38,-0l0,8.29l-3.32,-0l0,11.6l59.67,-0l0,-4.97l30.25,-0l0,-23.21l4.97,-0L1636.07,1443.79l10.36,-0l0,4.97l39.78,-0l0,-11.6l-3.32,-0l0,-8.29l-12.02,-0l0,-4.97l-54.7,-0M1576.4,1022.75l46.41,-0M2305.34,1314.49l49.73,-0l0,-4.97l31.91,-0l0,-23.21l4.97,-0l0,-71.28l-11.6,-0l0,3.32l-8.29,-0l0,48.07l-34.81,-0l0,23.21l-14.5,-0l0,4.97l-14.09,-0l0,8.29l-3.32,-0l0,11.6M2168.58,1319.47l0,-4.97l-11.6,-0l0,-11.6l3.32,-0l0,-8.29l48.9,-0l0,8.29l3.32,-0l0,11.6l-11.6,-0l0,4.97l-32.32,-0M1790.64,134.27l0,4.97l-11.6,-0l0,11.6l3.32,-0l0,8.29l48.9,-0l0,-8.29l3.32,-0l0,-11.6l-11.6,-0l0,-4.97l-32.32,-0M825.49,510.55l0,59.67l39.78,-0l0,-59.67l-39.78,-0M1203.43,570.22l39.78,-0l0,-59.67M1203.43,510.55l0,59.67M1243.22,510.55l-39.78,-0M1001.62,29.84l0,-8.29l-3.32,-0l0,-11.6l25.69,-0l0,-4.97l59.67,-0M2305.34,273.51l49.73,-0l0,4.97l31.91,-0l0,23.21l4.97,-0l0,71.28l-11.6,-0l0,-3.32l-8.29,-0l0,-48.07l-34.81,-0l0,-23.21l-14.5,-0l0,-4.97l-14.09,-0l0,-8.29l-3.32,-0l0,-11.6M2441.67,867.35l0,11.6l-11.6,-0l0,-3.32l-8.29,0l-0,-35.64l8.29,-0l0,-3.32l11.6,-0l0,11.6l4.97,-0l0,19.06l-4.97,-0M2430.07,751.32l11.6,-0l0,-11.6l4.97,-0l0,-19.06l-4.97,-0l0,-11.6l-11.6,-0l0,3.32l-8.29,-0l-0,35.64M2168.58,268.53l0,4.97l-11.6,-0l0,11.6l3.32,-0l0,8.29l48.9,-0l0,-8.29l3.32,-0l0,-11.6l-11.6,-0l0,-4.97l-32.32,-0M830.47,147.53l0,-89.51M1616.18,164.1L1616.18,58.02" />
</g>
<g style="font-family: arial, helvetica, sans-serif" stroke="none" fill="#7F0000">
<g font-size="142.92" stroke="none" fill="#7F0000">
<text id="cv_50" x="489.33" y="1270.4" transform="rotate(330 489.33 1270.4) translate(489.33 -1270.4) scale(1.11111 1) translate(-489.33 1270.4) " >For Demonstration Purposes Only</text>
<text id="cv_51" x="978.66" y="1270.4" transform="rotate(330 978.66 1270.4) translate(978.66 -1270.4) scale(1.11111 1) translate(-978.66 1270.4) " >Tailor Made Software, Ltd</text>
</g>
</g>
</g>
<g id="layer_WA" class="layer_WA"  cvjs:layerName="WA" cvjs:plottable="YES"
 cvjs:status="ON" visibility="visible">
<g id="cvclr_52" stroke="#FF7F00" fill="none">
<path id="cv_53" class="ZW" d="M111.06,1047.62L338.15,1047.62M328.21,1037.67l9.95,-0M338.15,1047.62l0,-9.95M397.83,1047.62l0,-9.95M407.77,1037.67l-9.95,-0M447.56,1047.62l-49.73,-0M328.21,550.33l9.95,-0l0,-9.95M387.88,550.33l0,-9.95M407.77,550.33l-19.89,-0M1375,910.03l-23.2,-0M1375,916.66l-23.2,-0M1256.48,916.66l35.64,-0l0,-6.63M1351.79,916.66l0,-6.63M1375,786.41l6.63,0M1381.63,794l0,-7.59M1375,830.47l0,-44.06M447.56,1077.45l0,-29.84M1375,910.03l0,-19.89M1158.26,910.03L1292.12,910.03M1375,686.95l6.63,-0M1381.63,677.97l0,8.98M1375,686.95l0,-8.98l-22.38,-0M277.65,540.38l60.5,-0M447.56,540.38l-59.67,-0M825.49,1057.56L487.34,1057.56M855.33,1104.8L616.63,1104.8M865.28,1094.86L626.58,1094.86M825.49,1067.51L626.58,1067.51M910.45,910.03L780.32,910.03M840.41,919.98l-60.09,-0M825.49,530.44L487.34,530.44M825.49,520.49L487.34,520.49M910.45,677.97L780.32,677.97M840.41,668.02l-60.09,-0M328.21,975.48L328.21,712.78M462.48,1017.78l0,-97.8M472.42,1017.78l0,-97.8M407.77,1037.67L407.77,910.03M417.72,1037.67L417.72,919.98M261.9,963.08l0,-91.17M318.26,1037.67L111.06,1037.67M328.12,1047.62L111.06,1047.62M54.7,1072.48l0,69.62M74.59,1138.78l0,-71.28M54.7,1142.1l11.6,-0l0,-3.32l8.29,-0M9.95,1035.6l0,31.91l23.21,-0l0,4.97l21.55,-0M48.07,1007.42l-23.21,-0M4.97,977.58l0,58.02M24.86,1007.42l0,-26.52M4.97,1035.6l4.97,-0M16.58,980.9l0,-3.32M24.86,980.9l-8.29,-0M16.58,977.58l-11.6,-0M48.07,1027.72l0,-20.31M616.63,1067.51L487.34,1067.51M328.21,1025.21l0,12.46M318.26,963.08l-56.36,-0M318.26,1037.67l0,-12.46l9.95,-0M318.26,975.48l0,-12.41M318.26,975.48l9.95,-0M447.56,1037.67l-29.84,-0M616.63,1067.51l0,37.3M626.58,1067.51l0,27.35M264.39,540.38L264.39,260.25M277.65,540.38L277.65,260.25M261.9,861.96L24.86,861.96M261.9,871.91L24.86,871.91M318.26,649.79L96.53,649.79M318.26,639.84L92.41,639.84M24.86,707.39l67.55,-67.55M24.86,721.45l71.67,-71.67M54.7,515.52l0,-69.62M74.59,449.22l0,71.28M4.97,610.42l0,-58.02M48.07,560.28l0,20.31l-23.21,-0l0,26.52M16.58,607.1l0,3.32l-11.6,-0M24.86,607.1l-8.29,-0M9.95,520.49l23.21,-0M4.97,552.4l4.97,-0l0,-31.91M33.15,520.49l0,-4.97l21.55,-0M194.77,540.38l-83.71,-0M194.77,550.33l-83.71,-0M194.77,540.38l0,9.95M54.7,445.9l11.6,-0l0,3.32l8.29,-0M462.48,570.22l0,97.8M472.42,570.22l0,97.8M328.21,663.05l0,-38.13M407.77,619.95l0,58.02M417.72,619.95l0,48.07M530.85,919.98l-58.43,-0M530.85,910.03L407.77,910.03M532.51,677.97L407.77,677.97M532.51,668.02l-60.09,-0M318.26,823.84L318.26,712.78M271.85,953.13L271.85,833.78M318.26,953.13L318.26,833.78M318.26,953.13l-46.41,-0M318.26,833.78l-46.41,-0M318.26,823.84l-56.36,-0M261.9,861.96l0,-38.13M462.48,919.98l-44.76,-0M318.26,712.78l9.95,-0M318.26,663.05l0,-13.26M318.26,663.05l9.95,-0M462.48,668.02l-44.76,-0M710.7,919.98L603.79,919.98M710.7,910.03L603.79,910.03M530.85,919.98l0,-9.95M603.79,919.98l0,-9.95M710.7,919.98l0,-9.95M780.32,919.98l0,-9.95M710.7,668.02L602.13,668.02M710.7,677.97L602.13,677.97M532.51,668.02l0,9.95M602.13,668.02l0,9.95M710.7,668.02l0,9.95M780.32,668.02l0,9.95M318.26,565.25l0,-14.92M328.21,565.25l0,-14.92M318.26,639.84l0,-14.92l9.95,-0M318.26,565.25l9.95,-0M318.26,550.33l-63.82,-0M264.39,540.38l-9.95,-0l0,9.95M407.77,619.95l9.95,-0M447.56,550.33l-29.84,-0M407.77,560.28l9.95,-0M407.77,550.33l0,9.95M417.72,550.33l0,9.95M850.36,1017.78l0,-97.8M840.41,1017.78l0,-97.8M1256.48,1052.59L1256.48,916.66M1246.53,1042.64L1246.53,919.98M1228.3,1017.78l0,-97.8M1218.35,1017.78l0,-97.8M1375,1052.59L1375,916.66M1384.94,1042.64L1384.94,890.14M1650.91,913.49L1650.91,1072.48M1644.28,920.12L1644.28,1022.75M1591.32,1022.75L1591.32,803.95M1601.26,1022.75L1601.26,920.12M1246.53,1588l-46.41,-0M1246.53,1529.98l-46.41,-0M1200.12,1563.14l0,-33.15M1179.81,1563.14l20.31,-0M1179.81,1571.42l0,-8.29M1176.5,1571.42l3.32,-0M1176.5,1583.03l0,-11.6M1176.5,1583.03l23.62,-0M1200.12,1588l0,-4.97M1246.53,1563.14l0,-33.15M1266.84,1571.42l0,-8.29l-20.31,-0M1270.15,1571.42l-3.32,-0M1270.15,1583.03l0,-11.6M1270.15,1583.03l-23.62,-0M1246.53,1588l0,-4.97M1203.43,1057.56L865.28,1057.56M944.84,1067.51l-79.57,-0M954.79,1114.75l-99.46,-0M944.84,1104.8l-79.57,-0M855.33,1104.8l0,9.95M865.28,1094.86l0,9.95M954.79,1067.51l0,47.24M944.84,1067.51l0,37.3M1256.48,1052.59l-13.26,-0M1246.53,1042.64l-3.32,-0M1576.4,1052.59L1375,1052.59M1576.4,1042.64L1384.94,1042.64M1650.91,1072.48l-24.79,-0M1644.28,1065.85l-18.15,-0M1626.13,1022.75l18.15,-0M1626.13,1029.38l18.15,-0M2391.95,1072.48l0,49.73M2380.34,1122.21l0,-3.32M2391.95,1122.21l-11.6,-0M2436.7,1035.6l0,31.91M2372.05,1118.89l0,-51.39M2380.34,1118.89l-8.29,-0M2436.7,1067.51l-23.21,-0M2413.49,1072.48l-21.55,-0M2413.49,1067.51l0,4.97M2441.67,964.32l0,71.28M2421.78,1007.42l0,-39.78M2398.58,1007.42l23.21,-0M2398.58,1027.72l0,-20.31M2441.67,1035.6l-4.97,-0M2430.07,964.32l11.6,-0M2430.07,967.64l0,-3.32M2421.78,967.64l8.29,-0M1362.56,520.49L1243.22,520.49M1442.13,510.55L1243.22,510.55M850.36,570.22l0,97.8M840.41,570.22l0,97.8M1218.35,570.22l0,97.8M1228.3,570.22l0,97.8M1088.64,910.03L980.07,910.03M1088.64,919.98L980.07,919.98M1088.64,677.97L980.07,677.97M1088.64,668.02L980.07,668.02M910.45,919.98l-60.09,-0M910.45,919.98l0,-9.95M980.07,919.98l0,-9.95M910.45,668.02l-60.09,-0M910.45,668.02l0,9.95M980.07,668.02l0,9.95M1218.35,919.98l-60.09,-0M1088.64,919.98l0,-9.95M1158.26,919.98l0,-9.95M1246.53,919.98l-18.23,-0M1292.94,677.97L1158.26,677.97M1218.35,668.02l-60.09,-0M1088.64,668.02l0,9.95M1158.26,668.02l0,9.95M1292.94,668.02l-64.65,-0M1292.86,678.03l0,-10.01M1203.43,530.44L865.28,530.44M1203.43,520.49L954.79,520.49M855.33,510.55l0,-43.1M865.28,510.55l0,-33.15M944.84,520.49l0,-43.1M954.79,520.49l0,-53.04M944.84,477.39l-79.57,-0M954.79,467.45l-99.46,-0M1372.51,668.02L1372.51,520.49M1362.56,668.02L1362.56,520.49M1442.13,677.97l0,-39.55M1432.18,668.02l0,-29.6M1601.26,920.12l43.02,-0M1601.26,913.49l49.65,-0M1375,830.47l0,-36.47M1591.32,803.95L1384.94,803.95M1384.94,890.14l-9.95,-0M1384.94,830.47l-9.95,-0M1384.94,830.47l0,-26.52M1601.26,794L1381.63,794M1432.18,668.02l-59.67,-0M1442.13,677.97l-60.5,-0M1352.62,678.03l0,-10.01M1362.56,668.02l-9.95,-0M1442.13,578.74l0,-68.2M1432.18,578.74l-0,-58.25M1442.13,638.42l-9.95,-0M1442.13,578.74l-9.95,-0M1432.18,520.49l-59.67,-0M1200.12,0l0,4.97M1246.53,0l0,4.97M1246.53,58.02l-46.41,-0M1200.12,24.86l0,33.15M1179.81,24.86l20.31,-0M1179.81,16.58l0,8.29M1176.5,16.58l3.32,-0M1176.5,4.97l23.62,-0M1176.5,4.97l0,11.6M1246.53,24.86l0,33.15M1266.84,16.58l0,8.29l-20.31,-0M1270.15,16.58l-3.32,-0M1270.15,4.97l-23.62,-0M1270.15,4.97l0,11.6M1246.53,0l-46.41,-0M2372.05,469.11l0,51.39M2391.95,515.52l0,-49.73M2441.67,623.68l0,-71.28M2398.58,560.28l0,20.31M2421.78,580.58l0,39.78l8.29,-0l0,3.32l11.6,-0M2398.58,580.58l23.21,-0M2413.49,520.49l0,-4.97M2436.7,520.49l-23.21,-0M2441.67,552.4l-4.97,-0l0,-31.91M2413.49,515.52l-21.55,-0M2391.95,465.79l-11.6,-0M2380.34,469.11l-8.29,-0M2380.34,465.79l0,3.32M944.84,520.49l-79.57,-0M1601.26,913.49L1601.26,794M1644.28,1029.38l0,36.47M144.63,1347.65l-53.04,-0l0,-4.97l-31.91,-0l0,-23.21l-4.97,-0l0,-84.54l11.6,-0l0,3.32l8.29,-0l0,61.33l38.13,-0l0,23.21l14.5,-0l0,4.97l14.09,-0l0,8.29l3.32,-0l0,11.6M48.07,1027.72l62.99,-0l0,9.95M111.06,1047.62l0,19.89M74.59,1067.51l36.47,-0M503.5,1445.44l15.75,-0l0,8.29l3.32,-0l0,11.6l-54.7,-0l0,-4.97l-30.25,-0l0,-23.21l-4.97,-0l0,-94.48l-9.53,-0l0,4.97l-37.3,-0l0,-11.6l3.32,-0l0,-8.29l12.02,-0l0,-4.97l51.39,-0l0,94.48l36.47,-0l0,23.21l14.5,-0l0,4.97M249.06,1352.62l0,-4.97l-11.6,-0l0,-11.6l3.32,-0l0,-8.29l48.9,-0l0,8.29l3.32,-0l0,11.6l-11.6,-0l0,4.97l-32.32,-0M626.99,1470.31l0,-4.97l-11.6,-0l0,-11.6l3.32,-0l0,-8.29l48.9,-0l0,8.29l3.32,-0l0,11.6l-11.6,-0l0,4.97l-32.32,-0M487.34,1067.51l0,9.95l-39.78,-0M447.56,1037.67l0,-19.89l14.92,-0M472.42,1017.78l14.92,-0l0,39.78M0,848.29l4.97,-0l0,-11.6l11.6,-0l0,3.32l8.29,-0l0,21.96M24.86,871.91l0,16.99l-8.29,-0l0,3.32l-11.6,-0l0,-11.6l-4.97,-0l0,-32.32M24.86,707.39l0,-8.29l-8.29,-0l0,-3.32l-11.6,-0l0,11.6l-4.97,-0l0,32.32l4.97,-0l0,11.6l11.6,-0l0,-3.32l8.29,-0l0,-26.55M111.06,540.38l0,-19.89M74.59,520.49l36.47,-0M48.07,560.28l62.99,-0l0,-9.95M487.34,520.49l0,-9.95l-39.78,-0l0,29.84M447.56,550.33l0,19.89l14.92,-0M472.42,570.22l14.92,-0l0,-39.78M142.97,240.35l-51.39,-0l0,4.97l-31.91,-0l0,23.21l-4.97,-0l0,84.54l11.6,-0l0,-3.32l8.29,-0l0,-61.33l36.47,-0l0,-23.21l14.5,-0l0,-4.97l14.09,-0l0,-8.29l3.32,-0l0,-11.6M503.5,142.56l15.75,-0l0,-8.29l3.32,-0l0,-11.6l-54.7,-0l0,4.97l-30.25,-0l0,23.21l-4.97,-0l0,94.48l-9.53,-0l0,-4.97l-37.3,-0l0,11.6l3.32,-0l0,8.29l12.02,-0l0,4.97l51.39,-0l0,-94.48l36.47,-0l0,-23.21l14.5,-0l0,-4.97M264.39,260.25l-23.62,-0l0,-8.29l-3.32,-0l0,-11.6l11.6,-0l0,-4.97l32.32,-0l0,4.97l11.6,-0l0,11.6l-3.32,-0l0,8.29l-12.02,-0M626.99,117.69l0,4.97l-11.6,-0l0,11.6l3.32,-0l0,8.29l48.9,-0l0,-8.29l3.32,-0l0,-11.6l-11.6,-0l0,-4.97l-32.32,-0M1790.64,1453.73l0,-4.97l-11.6,-0l0,-11.6l3.32,-0l0,-8.29l48.9,-0l0,8.29l3.32,-0l0,11.6l-11.6,-0l0,4.97l-32.32,-0M1083.67,1583.03l0,-11.6l-3.32,-0l0,-8.29l-22.38,-0l0,-4.97l-56.36,-0l0,8.29l-3.32,-0l0,11.6l25.69,-0l0,4.97l59.67,-0M879.78,1558.16l22.38,-0l0,8.29l3.32,-0l0,11.6l-59.67,-0l0,-4.97l-30.25,-0l0,-23.21l-4.97,-0l0,-89.51l-10.36,-0l0,4.97l-36.47,-0l0,-11.6l3.32,-0l0,-8.29l11.19,-0l0,-4.97l52.22,-0l0,89.51l34.81,-0l0,23.21l14.5,-0l0,4.97M1203.43,1067.51L954.79,1067.51M825.49,1077.45l0,-9.95M865.28,1067.51l0,9.95l-39.78,-0M850.36,1017.78l14.92,-0l0,39.78M825.49,1057.56l0,-39.78l14.92,-0M1243.22,1052.59l0,24.86l-39.78,-0l0,-59.67l14.92,-0M1228.3,1017.78l14.92,-0l0,24.86M1362.98,1583.03l0,-11.6l3.32,-0l0,-8.29l22.38,-0l0,-4.97l56.36,-0l0,8.29l3.32,-0l0,11.6l-25.69,-0l0,4.97l-59.67,-0M1566.87,1558.16l-22.38,-0l0,8.29l-3.32,-0l0,11.6l59.67,-0l0,-4.97l30.25,-0l0,-23.21l4.97,-0L1636.07,1443.79l10.36,-0l0,4.97l39.78,-0l0,-11.6l-3.32,-0l0,-8.29l-12.02,-0l0,-4.97l-54.7,-0L1616.18,1529.98l-34.81,-0l0,23.21l-14.5,-0l0,4.97M1626.13,1072.48l-49.73,-0l0,-19.89M1601.26,1022.75l24.86,-0M1576.4,1042.64l0,-19.89l14.92,-0M1626.13,1029.38l0,36.47M2398.58,1027.72l-62.99,-0l0,39.78M2372.05,1067.51l-36.47,-0M2305.34,1314.49l49.73,-0l0,-4.97l31.91,-0l0,-23.21l4.97,-0l0,-71.28l-11.6,-0l0,3.32l-8.29,-0l0,48.07l-34.81,-0l0,23.21l-14.5,-0l0,4.97l-14.09,-0l0,8.29l-3.32,-0l0,11.6M2168.58,1319.47l0,-4.97l-11.6,-0l0,-11.6l3.32,-0l0,-8.29l48.9,-0l0,8.29l3.32,-0l0,11.6l-11.6,-0l0,4.97l-32.32,-0M1945.63,1428.87l-14.92,-0l0,8.29l-3.32,-0l0,11.6l51.39,-0l0,-4.97l30.25,-0l0,-23.21l4.97,-0L2014.01,1309.52l10.36,-0l0,4.97l39.78,-0l0,-11.6l-3.32,-0l0,-8.29l-12.02,-0l0,-4.97l-54.7,-0L1994.12,1400.69l-33.98,-0l0,23.21l-14.5,-0l0,4.97M1954.33,1022.75l49.73,-0l0,49.73l-49.73,-0l0,-49.73M1790.64,134.27l0,4.97l-11.6,-0l0,11.6l3.32,-0l0,8.29l48.9,-0l0,-8.29l3.32,-0l0,-11.6l-11.6,-0l0,-4.97l-32.32,-0M825.49,530.44l0,39.78l39.78,-0l0,-39.78M855.33,510.55l-29.84,-0l0,9.95M865.28,520.49l0,-9.95M1228.3,570.22l14.92,-0l0,-49.73M1203.43,530.44l0,39.78l14.92,-0M1243.22,510.55l-39.78,-0l0,9.95M1576.4,565.25l49.73,-0l0,-49.73l-49.73,-0l0,49.73M879.78,29.84l22.38,-0l0,-8.29l3.32,-0l0,-11.6l-59.67,-0l0,4.97l-30.25,-0l0,23.21l-4.97,-0l0,89.51l-10.36,-0l0,-4.97l-36.47,-0l0,11.6l3.32,-0l0,8.29l11.19,-0l0,4.97l52.22,-0l0,-89.51l34.81,-0l0,-23.21l14.5,-0l0,-4.97M1083.67,4.97l0,11.6l-3.32,-0l0,8.29l-22.38,-0l0,4.97l-56.36,-0l0,-8.29l-3.32,-0l0,-11.6l25.69,-0l0,-4.97l59.67,-0M1566.87,29.84l-22.38,-0l0,-8.29l-3.32,-0l0,-11.6l59.67,-0l0,4.97l30.25,-0l0,23.21l4.97,-0L1636.07,144.21l10.36,-0l0,-4.97l39.78,-0l0,11.6l-3.32,-0l0,8.29l-12.02,-0l0,4.97l-54.7,-0L1616.18,58.02l-34.81,-0l0,-23.21l-14.5,-0l0,-4.97M1362.98,4.97l0,11.6l3.32,-0l0,8.29l22.38,-0l0,4.97l56.36,-0l0,-8.29l3.32,-0l0,-11.6l-25.69,-0l0,-4.97l-59.67,-0M2305.34,273.51l49.73,-0l0,4.97l31.91,-0l0,23.21l4.97,-0l0,71.28l-11.6,-0l0,-3.32l-8.29,-0l0,-48.07l-34.81,-0l0,-23.21l-14.5,-0l0,-4.97l-14.09,-0l0,-8.29l-3.32,-0l0,-11.6M2398.58,560.28l-62.99,-0l0,-39.78M2372.05,520.49l-36.47,-0M1954.33,565.25l49.73,-0l0,-49.73l-49.73,-0l0,49.73M2441.67,867.35l0,11.6l-11.6,-0l0,-3.32l-8.29,-0l0,-35.64l8.29,-0l0,-3.32l11.6,-0l0,11.6l4.97,-0l0,19.06l-4.97,-0M2441.67,720.65l0,-11.6l-11.6,-0l0,3.32l-8.29,-0l0,35.64l8.29,-0l0,3.32l11.6,-0l0,-11.6l4.97,-0l0,-19.06l-4.97,-0M1945.63,159.13l-14.92,-0l0,-8.29l-3.32,-0l0,-11.6l51.39,-0l0,4.97l30.25,-0l0,23.21l4.97,-0L2014.01,278.48l10.36,-0l0,-4.97l39.78,-0l0,11.6l-3.32,-0l0,8.29l-12.02,-0l0,4.97l-54.7,-0L1994.12,187.31l-33.98,-0l0,-23.21l-14.5,-0l0,-4.97M2168.58,268.53l0,4.97l-11.6,-0l0,11.6l3.32,-0l0,8.29l48.9,-0l0,-8.29l3.32,-0l0,-11.6l-11.6,-0l0,-4.97l-32.32,-0" />
</g>
<g style="font-family: arial, helvetica, sans-serif" stroke="none" fill="#7F0000">
<g font-size="142.92" stroke="none" fill="#7F0000">
<text id="cv_54" x="489.33" y="1270.4" transform="rotate(330 489.33 1270.4) translate(489.33 -1270.4) scale(1.11111 1) translate(-489.33 1270.4) " >For Demonstration Purposes Only</text>
<text id="cv_55" x="978.66" y="1270.4" transform="rotate(330 978.66 1270.4) translate(978.66 -1270.4) scale(1.11111 1) translate(-978.66 1270.4) " >Tailor Made Software, Ltd</text>
</g>
</g>
</g>
<g id="layer_RM_24_" class="layer_RM_24_"  cvjs:layerName="RM$" cvjs:plottable="YES"
 cvjs:status="ON" visibility="visible">
<g id="cvclr_56" stroke="#007CA5" fill="none">
<path id="cv_57" class=" ZW" d="M326.55,1047.62H111.06v19.89h-36.47V1322.78h52.63v4.97H326.55V1047.62M450.87,1203.43V1322.78h1.66V1440.47h50.97v4.97H778.25v-4.97h53.87V1203.43H450.87M1014.46,1203.43H832.13V1365.88H1014.46V1203.43M832.13,1365.88V1528.33H1014.46V1365.88H832.13M1299.57,1203.43H1117.24V1365.88H1299.57V1203.43M1299.57,1365.88H1117.24V1528.33H1299.57V1365.88M1481.91,1365.88H1299.57V1528.33H1481.91V1365.88M1481.91,1203.43H1299.57V1365.88H1481.91V1203.43M1932.78,891.8V729.35H1750.45V891.8H1932.78M1932.78,566.91H1750.45V729.35H1932.78V566.91M1932.78,729.35H2115.12V566.91H1932.78V729.35M1932.78,891.8H2115.12V729.35H1932.78V891.8M1995.77,1024.41H1833.33V1168.6H1995.77V1024.41M1995.77,1289.63V1168.6H1617.84V1423.9h53.04v4.97H1945.63v-4.97h48.49V1289.63h1.66M2372.05,1029.38H2081.97v-4.97h-86.2V1289.63h53.04v4.97H2322.74v-4.97h49.31V1029.38M2207.21,795.66V1029.38H2372.05v-1.66h26.52v-20.31h23.21V795.66H2207.21M2207.21,795.66H2421.78V580.58h-23.21v-20.31h-26.52v-1.66H2207.21V795.66M2048.82,293.4v4.97h-53.04V566.91H2115.12v-8.29H2372.05V298.37h-49.31v-4.97H2048.82M1995.77,389.51v-91.14h-1.66V164.1h-48.49v-4.97H1670.88v4.97h-53.04V389.51H1995.77M1481.91,384.57V222.12H1299.57V384.57H1481.91M1299.57,384.57V222.12H1117.24V384.57H1299.57M1117.24,222.12H1299.57V59.67H1117.24V222.12M1014.46,384.57V222.12H832.13V384.57H1014.46M1014.46,222.12V59.67H832.13V222.12H1014.46M601.89,384.57H832.13V147.53h-53.87v-4.97H601.89V384.57M601.89,142.56h-98.38v4.97h-50.97V265.22h-9.78V384.57H601.89V142.56M1299.57,222.12H1481.91V59.67H1299.57V222.12M1362.56,677.97V510.55h79.57V677.97h-79.57M954.79,1067.51H616.63v37.3H855.33l0,9.95h99.46v-47.24M1362.56,510.55H1243.22v59.67l-14.92,-0L1228.3,677.97H1362.56L1362.56,510.55M462.48,570.22l-14.92,0v-29.84h-39.78V677.97h54.7L462.48,570.22M328.21,823.84h-66.3V963.08h66.3V823.84M261.9,866.94H24.86V1007.42h23.21v20.31h26.52v39.78h36.47v-19.89H328.21v-84.54h-66.3v-96.14M328.21,644.81H94.47l-69.61,69.61V866.94H261.9l0,-43.1l66.3,0V644.81M328.21,540.38l-50.56,0v9.95H111.06v9.95l-62.99,0v20.31h-23.21V714.42l69.61,-69.61H328.21V540.38M277.65,260.25H125.56v4.97l-50.97,-0V560.28l36.47,0v-9.95H277.65v-9.95V260.25M1378.31,677.97H407.77V540.38l-79.57,-0V1047.62h79.57V910.03L1256.48,910.03v3.32H1375V794h3.32V677.97M656.42,677.97L656.42,520.49H487.34v-9.95h-39.78v59.67h14.92V677.97H656.42M845.39,677.97V570.22h19.89l0,-59.67h-39.78v9.95H656.42V677.97L845.39,677.97v0M1034.35,677.97V520.49H865.28v49.73h-19.89V677.97L1034.35,677.97v-0M1228.3,677.97V570.22h14.92v-59.67h-39.78v9.95H1034.35V677.97H1228.3v0M1034.35,1067.51V910.03H1256.48V1052.59h-13.26v24.86h-39.78v-9.95H1034.35M845.39,910.03H1034.35V1067.51H845.39V910.03M656.42,910.03H845.39V1067.51H656.42V910.03M462.48,910.03V1017.78h24.86v49.73H656.42V910.03H462.48M954.79,467.45h-99.46v43.1h9.95v9.95l89.51,-0v-53.04M1601.26,913.49L1601.26,794H1375L1375,1052.59H1576.4v19.89h46.41l-0,-49.73l-21.55,-0V913.49M1650.91,913.49l-49.65,0L1601.26,1022.75l21.55,0l0,6.63h28.1L1650.91,913.49M487.34,1017.78l-24.86,0V910.03h-54.7V1047.62h39.78v29.84h39.78l0,-9.95v-49.73" />
</g>
<g style="font-family: arial, helvetica, sans-serif" stroke="none" fill="#7F0000">
<g font-size="142.92" stroke="none" fill="#7F0000">
<text id="cv_58" x="489.33" y="1270.4" transform="rotate(330 489.33 1270.4) translate(489.33 -1270.4) scale(1.11111 1) translate(-489.33 1270.4) " >For Demonstration Purposes Only</text>
<text id="cv_59" x="978.66" y="1270.4" transform="rotate(330 978.66 1270.4) translate(978.66 -1270.4) scale(1.11111 1) translate(-978.66 1270.4) " >Tailor Made Software, Ltd</text>
</g>
</g>
</g>
<g id="layer_GROS_24_" class="layer_GROS_24_"  cvjs:layerName="GROS$" cvjs:plottable="YES"
 cvjs:status="ON" visibility="visible">
<g id="cvclr_60" stroke="#FF3F00" fill="none">
<path id="cv_61" class=" ZW" d="M91.58,240.35v4.97h-31.91v23.21h-4.97V515.52h-21.55v4.97h-23.21v31.91h-4.97V707.39h-4.97v32.32h4.97V848.29h-4.97v32.32h4.97V1035.6h4.97v31.91h23.21v4.97h21.55V1319.47l4.97,-0v23.21h31.91v4.97H249.06v4.97h32.32v-4.97H423.11v-4.97h9.53v94.48h4.97v23.21h30.25v4.97H626.99v4.97h32.32v-4.97H800.22v-4.97h10.36v89.51h4.97v23.21h30.25v4.97H1023.99v4.97H1200.12v4.97h46.41v-4.97H1422.65v-4.97H1600.85v-4.97h30.25v-23.21h4.97V1443.79h10.36v4.97H1790.64v4.97h32.32v-4.97H1978.78v-4.97h30.25v-23.21h4.97V1309.52h10.36v4.97H2168.58v4.97h32.32v-4.97H2355.06v-4.97h31.91v-23.21h4.97V1072.48h21.55v-4.97h23.21v-31.91h4.97V867.35h4.97v-19.06h-4.97V739.71h4.97v-19.06h-4.97V552.4h-4.97v-31.91h-23.21v-4.97h-21.55V301.69h-4.97v-23.21h-31.91v-4.97H2200.91v-4.97h-32.32v4.97H2024.37v4.97h-10.36V167.42h-4.97v-23.21h-30.25v-4.97H1822.97v-4.97h-32.32v4.97H1646.43v4.97h-10.36V38.13h-4.97v-23.21h-30.25v-4.97H1422.65v-4.97H1246.53v-4.97h-46.41v4.97H1023.99v4.97H845.8v4.97h-30.25v23.21h-4.97v89.51h-10.36v-4.97H659.32v-4.97h-32.32v4.97H467.86v4.97h-30.25v23.21h-4.97v94.48h-9.53v-4.97H281.38v-4.97h-32.32v4.97H91.58M830.47,147.53h-52.22v-4.97H503.5v4.97h-50.97V265.22h-51.39v-4.97H125.56v4.97h-50.97V560.28h-26.52v20.31h-23.21V1007.42h23.21v20.31h26.52V1322.78h52.63v4.97H401.14v-4.97h51.39V1440.47h50.97v4.97H778.25v-4.97h52.22V1553.19h49.31v4.97H1057.98v4.97H1388.67v-4.97H1566.87v-4.97h49.31V1423.9h54.7v4.97H1945.63v-4.97h48.49V1289.63h54.7v4.97H2322.74v-4.97h49.31V1027.72l26.52,0v-20.31h23.21V580.58h-23.21v-20.31h-26.52V298.37h-49.31v-4.97H2048.82v4.97h-54.7V164.1h-48.49v-4.97H1670.88v4.97h-54.7V34.81h-49.31v-4.97H1388.67v-4.97H1057.98v4.97H879.78v4.97h-49.31V147.53" />
</g>
<g style="font-family: arial, helvetica, sans-serif" stroke="none" fill="#7F0000">
<g font-size="142.92" stroke="none" fill="#7F0000">
<text id="cv_62" x="489.33" y="1270.4" transform="rotate(330 489.33 1270.4) translate(489.33 -1270.4) scale(1.11111 1) translate(-489.33 1270.4) " >For Demonstration Purposes Only</text>
<text id="cv_63" x="978.66" y="1270.4" transform="rotate(330 978.66 1270.4) translate(978.66 -1270.4) scale(1.11111 1) translate(-978.66 1270.4) " >Tailor Made Software, Ltd</text>
</g>
</g>
</g>
<g id="layer_PL_2D_MISC" class="layer_PL_2D_MISC"  cvjs:layerName="PL-MISC" cvjs:plottable="YES"
 cvjs:status="ON" visibility="visible">
<g id="cvclr_64" stroke="#29A500" fill="none">
<path id="cv_65" class="ZW" d="M626.58,1074.97L825.49,1094.86M626.58,1094.86L825.49,1074.97M462.48,919.98l-44.76,97.8M417.72,919.98l44.76,97.8M653.1,919.98L653.1,1057.56M659.73,919.98L659.73,1057.56M653.1,668.02L653.1,530.44M659.73,668.02L659.73,530.44M318.26,833.78L271.85,953.13M271.85,833.78L318.26,953.13M1031.04,919.98L1031.04,1057.56M1037.67,919.98L1037.67,1057.56M1601.26,920.12L1644.28,1022.75M1601.26,1022.75L1644.28,920.12M865.28,1074.97l79.57,29.84M865.28,1104.8l79.57,-29.84M1031.04,668.02L1031.04,530.44M1037.67,668.02L1037.67,530.44M865.28,477.39l79.57,29.84M865.28,507.23l79.57,-29.84M865.28,507.23l79.57,-0M447.56,1017.78l-29.84,-0M865.28,1077.45l0,17.41M825.49,1077.45l0,17.41" />
</g>
<g style="font-family: arial, helvetica, sans-serif" stroke="none" fill="#7F0000">
<g font-size="142.92" stroke="none" fill="#7F0000">
<text id="cv_66" x="489.33" y="1270.4" transform="rotate(330 489.33 1270.4) translate(489.33 -1270.4) scale(1.11111 1) translate(-489.33 1270.4) " >For Demonstration Purposes Only</text>
<text id="cv_67" x="978.66" y="1270.4" transform="rotate(330 978.66 1270.4) translate(978.66 -1270.4) scale(1.11111 1) translate(-978.66 1270.4) " >Tailor Made Software, Ltd</text>
</g>
</g>
</g>
<g id="layer_PL_2D_TOIL" class="layer_PL_2D_TOIL"  cvjs:layerName="PL-TOIL" cvjs:plottable="YES"
 cvjs:status="ON" visibility="visible">
<g id="cvclr_68" stroke="#29A500" fill="none">
<path id="cv_69" class="ZW" d="M155.82,959.76l0,3.32M164.1,959.76l0,3.32M203.89,959.76l0,3.32M217.15,959.76l0,3.32M256.93,959.76l0,3.32M226.74,1010.65l35.16,-35.16M164.1,963.08l-8.29,-0M217.15,963.08l-13.26,-0M261.9,1025.21l0,12.46M265.22,1025.21l0,12.46M261.9,1025.21l3.32,-0M261.9,963.08l-4.97,-0M265.22,963.08l0,12.41M261.9,963.08l0,12.41l3.32,-0M159.13,958.93l0,-87.03M155.82,958.93l0,-87.03M208.86,958.93l0,-87.03M212.18,958.93l0,-87.03M164.1,959.76l-8.29,-0M155.82,958.93l3.32,-0M217.15,959.76l-13.26,-0M212.18,958.93l-3.32,-0M111.06,774.11l-8.29,-0M111.06,770.79l-8.29,-0M111.06,774.11l0,-3.32M102.77,770.79l0,3.32M106.09,774.94l-3.32,-0M164.1,774.11l-13.26,-0M164.1,770.79l-13.26,-0M150.84,774.11l0,-3.32M159.13,774.94l-3.32,-0M164.1,774.11l0,-3.32M217.15,770.79l-13.26,-0M217.15,774.11l-13.26,-0M217.15,774.11l0,-3.32M203.89,774.11l0,-3.32M212.18,774.94l-3.32,-0M261.9,823.84l0,-49.73M265.22,823.84l0,-49.73M261.9,959.76l-4.97,-0M261.9,724.38l0,-74.59M265.22,724.38l0,-74.59M265.22,764.16l-3.32,-0M261.9,770.79l-4.97,-0M261.9,774.11l-4.97,-0M265.22,770.79l0,-6.63M261.9,770.79l0,-6.63M271.85,770.79l-6.63,-0M271.85,774.11l-6.63,-0M265.22,764.16l-3.32,-0M271.85,770.79l0,3.32M256.93,774.11l0,-3.32M265.22,724.38l-3.32,-0M318.26,774.11l-6.63,-0M318.26,770.79l-6.63,-0M311.63,774.11l0,-3.32M96.53,649.79l-71.67,71.67M261.9,959.76L261.9,774.11M1576.77,1042.76L1385.24,1042.76M1385.01,1042.2L1385.01,890.14M1591.13,804.04L1591.13,1022.82M1385.01,804.04L1591.13,804.04M1385.01,830.47l0,-26.43M96.53,649.79L261.9,649.79" />
<path id="cv_70" class="ZW" d="M226.74,1010.64A 49.7286 49.7286 0 0 0 261.9 1025.21" />
</g>
<g style="font-family: arial, helvetica, sans-serif" stroke="none" fill="#7F0000">
<g font-size="142.92" stroke="none" fill="#7F0000">
<text id="cv_71" x="489.33" y="1270.4" transform="rotate(330 489.33 1270.4) translate(489.33 -1270.4) scale(1.11111 1) translate(-489.33 1270.4) " >For Demonstration Purposes Only</text>
<text id="cv_72" x="978.66" y="1270.4" transform="rotate(330 978.66 1270.4) translate(978.66 -1270.4) scale(1.11111 1) translate(-978.66 1270.4) " >Tailor Made Software, Ltd</text>
</g>
</g>
<g class="WC_2D_DOOR" id="cv_Block_WC_2D_DOOR_1">
<g id="cvclr_73" stroke="#29A500" fill="none">
<path id="cv_74" class="ZW" d="M256.93,774.11l-28.13,28.13" />
<path id="cv_75" class="ZW" d="M217.15,774.11A 39.7829 39.7829 0 0 0 228.8 802.24" />
</g>
</g>
<g class="WC_2D_DOOR" id="cv_Block_WC_2D_DOOR_2">
<g id="cvclr_76" stroke="#29A500" fill="none">
<path id="cv_77" class="ZW" d="M256.93,959.76l-28.13,-28.13" />
<path id="cv_78" class="ZW" d="M228.8,931.63A 39.7829 39.7829 0 0 0 217.15 959.76" />
</g>
</g>
<g class="WC_2D_DOOR" id="cv_Block_WC_2D_DOOR_3">
<g id="cvclr_79" stroke="#29A500" fill="none">
<path id="cv_80" class="ZW" d="M261.9,764.16l-28.13,-28.13" />
<path id="cv_81" class="ZW" d="M261.91,724.38A 39.7829 39.7829 0 0 0 233.77 736.03" />
</g>
</g>
<g class="WC_2D_DOOR" id="cv_Block_WC_2D_DOOR_4">
<g id="cvclr_82" stroke="#29A500" fill="none">
<path id="cv_83" class="ZW" d="M203.89,774.11l-28.13,28.13" />
<path id="cv_84" class="ZW" d="M164.1,774.11A 39.7829 39.7829 0 0 0 175.75 802.24" />
</g>
</g>
<g class="WC_2D_DOOR" id="cv_Block_WC_2D_DOOR_5">
<g id="cvclr_85" stroke="#29A500" fill="none">
<path id="cv_86" class="ZW" d="M150.84,774.11l-28.13,28.13" />
<path id="cv_87" class="ZW" d="M111.06,774.11A 39.7829 39.7829 0 0 0 122.71 802.24" />
</g>
</g>
<g class="WC_2D_DOOR" id="cv_Block_WC_2D_DOOR_6">
<g id="cvclr_88" stroke="#29A500" fill="none">
<path id="cv_89" class="ZW" d="M203.89,959.76l-28.13,-28.13" />
<path id="cv_90" class="ZW" d="M175.76,931.63A 39.7829 39.7829 0 0 0 164.1 959.76" />
</g>
</g>
<g class="WC_2D_DOOR" id="cv_Block_WC_2D_DOOR_7">
<g id="cvclr_91" stroke="#29A500" fill="none">
<path id="cv_92" class="ZW" d="M271.85,770.79l28.13,-28.13" />
<path id="cv_93" class="ZW" d="M311.63,770.8A 39.7829 39.7829 0 0 0 299.98 742.67" />
</g>
</g>
</g>
<g id="layer_DR" class="layer_DR"  cvjs:layerName="DR" cvjs:plottable="YES"
 cvjs:status="ON" visibility="visible">
<g id="cvclr_94" stroke="#FF7F00" fill="none">
<path id="cv_95" class="ZW" d="M283.1,1010.65l35.16,-35.16M212.25,498.19l42.2,42.2M283.1,698.21l35.16,-35.16M365.58,602.47l42.2,-42.2M276.07,582.73l42.2,42.2M1332.8,847.95l42.2,42.2M1310.42,720.16l42.2,-42.2M1484.35,620.8l-42.2,-42.2" />
<path id="cv_96" class="ZW" d="M283.1,1010.64A 49.7286 49.7286 0 0 0 318.26 1025.21M212.25,498.19A 59.6743 59.6743 0 0 0 194.77 540.38M283.1,698.21A 49.7286 49.7286 0 0 0 318.26 712.78M365.58,602.47A 59.6743 59.6743 0 0 0 407.77 619.95M318.26,565.25A 59.6743 59.6743 0 0 0 276.07 582.72M1375,830.47A 59.6743 59.6743 0 0 0 1332.8 847.94M1292.94,677.96A 59.6743 59.6743 0 0 0 1310.42 720.16M1442.15,638.27A 59.6743 59.6743 0 0 0 1484.35 620.8" />
</g>
<g style="font-family: arial, helvetica, sans-serif" stroke="none" fill="#7F0000">
<g font-size="142.92" stroke="none" fill="#7F0000">
<text id="cv_97" x="489.33" y="1270.4" transform="rotate(330 489.33 1270.4) translate(489.33 -1270.4) scale(1.11111 1) translate(-489.33 1270.4) " >For Demonstration Purposes Only</text>
<text id="cv_98" x="978.66" y="1270.4" transform="rotate(330 978.66 1270.4) translate(978.66 -1270.4) scale(1.11111 1) translate(-978.66 1270.4) " >Tailor Made Software, Ltd</text>
</g>
</g>
</g>
<g id="layer_PL" class="layer_PL"  cvjs:layerName="PL" cvjs:plottable="YES"
 cvjs:status="ON" visibility="visible">
<g id="cvclr_99" stroke="#29A500" fill="none">
<path id="cv_100" class="ZW" d="M89.51,520.49L89.51,288.43M4.97,695.79l0,-85.37M54.7,445.9l0,-92.83M142.97,240.35l94.48,-0" />
</g>
<g style="font-family: arial, helvetica, sans-serif" stroke="none" fill="#7F0000">
<g font-size="142.92" stroke="none" fill="#7F0000">
<text id="cv_101" x="489.33" y="1270.4" transform="rotate(330 489.33 1270.4) translate(489.33 -1270.4) scale(1.11111 1) translate(-489.33 1270.4) " >For Demonstration Purposes Only</text>
<text id="cv_102" x="978.66" y="1270.4" transform="rotate(330 978.66 1270.4) translate(978.66 -1270.4) scale(1.11111 1) translate(-978.66 1270.4) " >Tailor Made Software, Ltd</text>
</g>
</g>
<g class="WNV" id="cv_Block_WNV_8">
<g id="cvclr_103" stroke="#29A500" fill="none">
<path id="cv_104" class="ZW" d="M4.97,977.58l0,-85.37" />
</g>
</g>
<g class="WNH" id="cv_Block_WNH_9">
<g id="cvclr_105" stroke="#29A500" fill="none">
<path id="cv_106" class="ZW" d="M237.45,1347.65l-92.83,-0" />
</g>
</g>
<g class="WNH" id="cv_Block_WNH_10">
<g id="cvclr_107" stroke="#29A500" fill="none">
<path id="cv_108" class="ZW" d="M54.7,1234.93l0,-92.83" />
</g>
</g>
<g class="WNH" id="cv_Block_WNH_11">
<g id="cvclr_109" stroke="#29A500" fill="none">
<path id="cv_110" class="ZW" d="M385.81,1347.65l-92.83,-0" />
</g>
</g>
<g class="WNH" id="cv_Block_WNH_12">
<g id="cvclr_111" stroke="#29A500" fill="none">
<path id="cv_112" class="ZW" d="M615.39,1465.34l-92.83,-0" />
</g>
</g>
<g class="WNH" id="cv_Block_WNH_13">
<g id="cvclr_113" stroke="#29A500" fill="none">
<path id="cv_114" class="ZW" d="M763.75,1465.34l-92.83,-0" />
</g>
</g>
<g class="WNV" id="cv_Block_WNV_14">
<g id="cvclr_115" stroke="#29A500" fill="none">
<path id="cv_116" class="ZW" d="M4.97,751.32l0,85.37" />
</g>
</g>
<g class="WNV" id="cv_Block_WNV_15">
<g id="cvclr_117" stroke="#29A500" fill="none">
<path id="cv_118" class="ZW" d="M4.97,836.68l0,-85.37" />
</g>
</g>
<g class="WNH" id="cv_Block_WNH_16">
<g id="cvclr_119" stroke="#29A500" fill="none">
<path id="cv_120" class="ZW" d="M385.81,240.35l-92.83,-0" />
</g>
</g>
<g class="WNH" id="cv_Block_WNH_17">
<g id="cvclr_121" stroke="#29A500" fill="none">
<path id="cv_122" class="ZW" d="M615.39,122.66l-92.83,-0" />
</g>
</g>
<g class="WNH" id="cv_Block_WNH_18">
<g id="cvclr_123" stroke="#29A500" fill="none">
<path id="cv_124" class="ZW" d="M763.75,122.66l-92.83,-0" />
</g>
</g>
<g class="WNV" id="cv_Block_WNV_19">
<g id="cvclr_125" stroke="#29A500" fill="none">
<path id="cv_126" class="ZW" d="M2441.67,964.32l0,-85.37" />
</g>
</g>
<g class="WNH" id="cv_Block_WNH_20">
<g id="cvclr_127" stroke="#29A500" fill="none">
<path id="cv_128" class="ZW" d="M1834.57,1448.76l92.83,-0" />
</g>
</g>
<g class="WNH" id="cv_Block_WNH_21">
<g id="cvclr_129" stroke="#29A500" fill="none">
<path id="cv_130" class="ZW" d="M1270.15,1583.03l92.83,-0" />
</g>
</g>
<g class="WNH" id="cv_Block_WNH_22">
<g id="cvclr_131" stroke="#29A500" fill="none">
<path id="cv_132" class="ZW" d="M998.3,1578.05l-92.83,-0" />
</g>
</g>
<g class="WNH" id="cv_Block_WNH_23">
<g id="cvclr_133" stroke="#29A500" fill="none">
<path id="cv_134" class="ZW" d="M1176.5,1583.03l-92.83,-0" />
</g>
</g>
<g class="WNH" id="cv_Block_WNH_24">
<g id="cvclr_135" stroke="#29A500" fill="none">
<path id="cv_136" class="ZW" d="M1448.35,1578.05l92.83,-0" />
</g>
</g>
<g class="WNH" id="cv_Block_WNH_25">
<g id="cvclr_137" stroke="#29A500" fill="none">
<path id="cv_138" class="ZW" d="M1686.21,1448.76l92.83,-0" />
</g>
</g>
<g class="WNH" id="cv_Block_WNH_26">
<g id="cvclr_139" stroke="#29A500" fill="none">
<path id="cv_140" class="ZW" d="M2064.15,1314.49l92.83,-0" />
</g>
</g>
<g class="WNH" id="cv_Block_WNH_27">
<g id="cvclr_141" stroke="#29A500" fill="none">
<path id="cv_142" class="ZW" d="M2212.51,1314.49l92.83,-0" />
</g>
</g>
<g class="WNH" id="cv_Block_WNH_28">
<g id="cvclr_143" stroke="#29A500" fill="none">
<path id="cv_144" class="ZW" d="M2391.95,1122.21l0,92.83" />
</g>
</g>
<g class="WNH" id="cv_Block_WNH_29">
<g id="cvclr_145" stroke="#29A500" fill="none">
<path id="cv_146" class="ZW" d="M1834.57,139.24l92.83,-0" />
</g>
</g>
<g class="WNH" id="cv_Block_WNH_30">
<g id="cvclr_147" stroke="#29A500" fill="none">
<path id="cv_148" class="ZW" d="M1270.15,4.97l92.83,-0" />
</g>
</g>
<g class="WNH" id="cv_Block_WNH_31">
<g id="cvclr_149" stroke="#29A500" fill="none">
<path id="cv_150" class="ZW" d="M998.3,9.95l-92.83,-0" />
</g>
</g>
<g class="WNH" id="cv_Block_WNH_32">
<g id="cvclr_151" stroke="#29A500" fill="none">
<path id="cv_152" class="ZW" d="M1176.5,4.97l-92.83,-0" />
</g>
</g>
<g class="WNH" id="cv_Block_WNH_33">
<g id="cvclr_153" stroke="#29A500" fill="none">
<path id="cv_154" class="ZW" d="M1448.35,9.95l92.83,-0" />
</g>
</g>
<g class="WNH" id="cv_Block_WNH_34">
<g id="cvclr_155" stroke="#29A500" fill="none">
<path id="cv_156" class="ZW" d="M1686.21,139.24l92.83,-0" />
</g>
</g>
<g class="WNV" id="cv_Block_WNV_35">
<g id="cvclr_157" stroke="#29A500" fill="none">
<path id="cv_158" class="ZW" d="M2441.67,623.68l0,85.37" />
</g>
</g>
<g class="WNV" id="cv_Block_WNV_36">
<g id="cvclr_159" stroke="#29A500" fill="none">
<path id="cv_160" class="ZW" d="M2441.67,751.32l0,85.37" />
</g>
</g>
<g class="WNV" id="cv_Block_WNV_37">
<g id="cvclr_161" stroke="#29A500" fill="none">
<path id="cv_162" class="ZW" d="M2441.67,836.68l0,-85.37" />
</g>
</g>
<g class="WNH" id="cv_Block_WNH_38">
<g id="cvclr_163" stroke="#29A500" fill="none">
<path id="cv_164" class="ZW" d="M2391.95,465.79l0,-92.83" />
</g>
</g>
<g class="WNH" id="cv_Block_WNH_39">
<g id="cvclr_165" stroke="#29A500" fill="none">
<path id="cv_166" class="ZW" d="M2064.15,273.51l92.83,-0" />
</g>
</g>
<g class="WNH" id="cv_Block_WNH_40">
<g id="cvclr_167" stroke="#29A500" fill="none">
<path id="cv_168" class="ZW" d="M2212.51,273.51l92.83,-0" />
</g>
</g>
</g>
<g id="layer_PL_2D_STAIR" class="layer_PL_2D_STAIR"  cvjs:layerName="PL-STAIR" cvjs:plottable="YES"
 cvjs:status="ON" visibility="visible">
<g id="cvclr_169" stroke="none" fill="#29A500" opacity="1.">
<path id="cv_170" d="M128.6,377.94l2.76,-16.58l2.76,16.58l-5.53,-0 Z "/>
<path id="cv_171" d="M219.77,377.94l2.76,-16.58l2.76,16.58l-5.53,-0 Z "/>
<path id="cv_172" d="M1430.8,946.5l-2.76,16.58l-2.76,-16.58l5.53,-0 Z "/>
<path id="cv_173" d="M1495.17,852.57l16.58,2.76l-16.58,2.76l0,-5.53 Z "/>
</g>
<g id="cvclr_174" stroke="#29A500" fill="none">
<path id="cv_175" class=" ZW" d="M165.76,459.16v-6.63h6.63v6.63h-6.63M181.51,459.16v-6.63h6.63v6.63h-6.63M165.76,364.68v-6.63h6.63v6.63h-6.63M181.51,364.68v-6.63h6.63v6.63h-6.63M1461.19,966.39v-6.63h6.63v6.63h-6.63M1508.43,966.39v-6.63h6.63v6.63h-6.63M1461.19,903.4v-6.63h6.63v6.63h-6.63M1508.43,903.4v-6.63h6.63v6.63h-6.63" />
<path id="cv_176" class="ZW" d="M169.08,358.05l0,-97.8M184.82,358.05l0,-97.8M264.39,424.35l-79.57,-0M256.93,424.35l-72.11,-0M256.93,440.1l-72.11,-0M256.93,455.85l-68.79,-0M256.93,361.36l-68.79,-0M256.93,377.11l-72.11,-0M256.93,392.86l-72.11,-0M256.93,408.6l-72.11,-0M131.37,377.94L131.37,499.77M169.08,540.38l0,-81.22M184.82,540.38l0,-81.22M131.37,499.77l53.46,-0M169.08,424.35l-79.57,-0M169.08,424.35l-72.11,-0M169.08,440.1l-72.11,-0M165.76,455.85l-68.79,-0M169.08,377.11l-72.11,-0M169.08,392.86l-72.11,-0M169.08,408.6l-72.11,-0M165.76,361.36l-68.79,-0M94.48,459.16L94.48,358.05M96.97,459.16L96.97,358.05M96.97,459.16l-2.49,-0M94.48,455.85l-4.97,-0M94.48,424.35l-4.97,-0M94.48,440.1l-4.97,-0M94.48,408.6l-4.97,-0M94.48,361.36l-4.97,-0M94.48,377.11l-4.97,-0M94.48,392.86l-4.97,-0M96.97,358.05l-2.49,-0M184.82,452.53l0,-87.85M169.08,452.53l0,-87.85M171.56,452.53l0,-87.85M182.34,452.53l0,-87.85M222.54,377.94l0,77.91M181.51,455.85l-9.12,-0M181.51,453.36l-9.12,-0M181.51,361.36l-9.12,-0M181.51,363.85l-9.12,-0M259.42,459.16L259.42,358.05M256.93,459.16L256.93,358.05M264.39,455.85l-4.97,-0M259.42,459.16l-2.49,-0M264.39,424.35l-4.97,-0M264.39,440.1l-4.97,-0M264.39,408.6l-4.97,-0M264.39,361.36l-4.97,-0M264.39,377.11l-4.97,-0M264.39,392.86l-4.97,-0M259.42,358.05l-2.49,-0M1391.57,966.39l0,-69.62M1394.89,966.39l0,-69.62M1581.37,966.39l0,-69.62M1584.68,966.39l0,-69.62M1515.06,1032.7l-53.87,-0M1515.06,1036.01l-53.87,-0M1508.43,963.08l-40.61,-0M1464.51,1036.01l0,6.63M1480.25,1036.01l0,6.63M1461.19,963.08l-66.3,-0M1394.89,966.39l-3.32,-0M1391.57,963.08l-6.63,-0M1464.51,966.39l0,66.3M1464.51,1026.07l0,-59.67M1480.25,963.08l0,69.62M1461.19,1032.7l0,3.32M1511.75,1036.01l0,6.63M1496,1036.01l0,6.63M1581.37,963.08l-66.3,-0l66.3,-0M1511.75,966.39l0,66.3M1511.75,1026.07l0,-59.67M1496,963.08l0,69.62M1515.06,1032.7l0,3.32M1591.32,963.08l-6.63,-0l6.63,-0M1581.37,966.39l3.32,-0M1508.43,900.09l-40.61,-0M1508.43,903.4l-40.61,-0M1508.43,959.76l-40.61,-0M1515.06,810.58l-53.87,-0M1515.06,813.89l-53.87,-0M1495.17,855.33l-30.67,-0M1480.25,900.09l0,-86.2M1464.51,896.77l0,-82.88M1464.51,915.84l-69.62,-0M1464.51,931.58l-69.62,-0M1464.51,947.33l-69.62,-0M1461.19,900.09l-66.3,-0M1391.57,931.58l-6.63,-0M1391.57,947.33l-6.63,-0M1394.89,896.77l-3.32,-0M1391.57,915.84l-6.63,-0M1464.51,959.76l0,-56.36M1428.04,946.5l0,-46.41M1467.82,959.76l0,-56.36M1464.51,949.82l0,9.95l0,-9.95M1461.19,813.89l0,-3.32M1464.51,810.58l0,-6.63M1480.25,810.58l0,-6.63M1496,900.09l0,-86.2M1511.75,896.77l0,-82.88M1581.37,900.09l-66.3,-0M1511.75,947.33l69.62,-0M1511.75,931.58l69.62,-0M1511.75,915.84l69.62,-0M1515.06,900.09l66.3,-0M1511.75,959.76l0,-56.36M1508.43,959.76l0,-56.36M1511.75,949.82l0,9.95l0,-9.95M1584.68,947.33l6.63,-0M1584.68,931.58l6.63,-0M1591.32,900.09l-6.63,-0M1584.68,915.84l6.63,-0M1584.68,900.09l6.63,-0M1581.37,896.77l3.32,-0M1515.06,813.89l0,-3.32M1496,810.58l0,-6.63M1511.75,810.58l0,-6.63M264.39,540.38L264.39,260.25" />
<circle id="cv_177" class="ZW" fill="#29A500" cx="184.82" cy="499.77" r="2.48643" />
<circle id="cv_178" class="ZW" fill="#29A500" cx="222.54" cy="455.85" r="2.48643" />
<circle id="cv_179" class="ZW" fill="#29A500" cx="1428.04" cy="900.09" r="2.48643" />
<circle id="cv_180" class="ZW" fill="#29A500" cx="1464.51" cy="855.33" r="2.48643" />
</g>
<g style="font-family: simplex, arial, helvetica, sans-serif" stroke="none" fill="#29A500">
<g font-size="17.9023" stroke="none" fill="#29A500">
<text id="cv_181" x="148.5" y="489.83" transform="translate(148.5 -489.83) scale(0.833333 1) translate(-148.5 489.83) " >UP</text>
<text id="cv_182" x="213.21" y="491.19" transform="translate(213.21 -491.19) scale(0.833333 1) translate(-213.21 491.19) " >DN</text>
<text id="cv_183" x="1417.47" y="890.14" transform="translate(1417.47 -890.14) scale(0.833333 1) translate(-1417.47 890.14) " >DN</text>
<text id="cv_184" x="1439.31" y="870.25" transform="translate(1439.31 -870.25) scale(0.833333 1) translate(-1439.31 870.25) " >UP</text>
</g>
<g font-size="0.358046" stroke="none" fill="#29A500">
<text id="cv_185" x="1463.97" y="855.63" transform="translate(1463.97 -855.63) scale(0.833333 1) translate(-1463.97 855.63) " >UP</text>
</g>
</g>
<g style="font-family: arial, helvetica, sans-serif" stroke="none" fill="#7F0000">
<g font-size="142.92" stroke="none" fill="#7F0000">
<text id="cv_186" x="489.33" y="1270.4" transform="rotate(330 489.33 1270.4) translate(489.33 -1270.4) scale(1.11111 1) translate(-489.33 1270.4) " >For Demonstration Purposes Only</text>
<text id="cv_187" x="978.66" y="1270.4" transform="rotate(330 978.66 1270.4) translate(978.66 -1270.4) scale(1.11111 1) translate(-978.66 1270.4) " >Tailor Made Software, Ltd</text>
</g>
</g>
</g>
<g id="layer_WN" class="layer_WN"  cvjs:layerName="WN" cvjs:plottable="YES"
 cvjs:status="ON" visibility="visible">
<g id="cvclr_188" stroke="#808080" fill="none">
<path id="cv_189" class="ZW" d="M24.86,699.1l0,-92M16.58,695.79l0,-85.37M74.59,349.76l0,99.46M66.3,353.07l0,92.83M139.65,260.25L240.77,260.25M142.97,251.96l94.48,-0" />
</g>
<g id="cvclr_190" stroke="#29A500" fill="none">
<path id="cv_191" class="ZW" d="M106.09,861.96l0,-87.03M102.77,861.96l0,-87.03M159.13,861.96l0,-87.03M155.82,861.96l0,-87.03M208.86,861.96l0,-87.03M212.18,861.96l0,-87.03" />
</g>
<g style="font-family: arial, helvetica, sans-serif" stroke="none" fill="#7F0000">
<g font-size="142.92" stroke="none" fill="#7F0000">
<text id="cv_192" x="489.33" y="1270.4" transform="rotate(330 489.33 1270.4) translate(489.33 -1270.4) scale(1.11111 1) translate(-489.33 1270.4) " >For Demonstration Purposes Only</text>
<text id="cv_193" x="978.66" y="1270.4" transform="rotate(330 978.66 1270.4) translate(978.66 -1270.4) scale(1.11111 1) translate(-978.66 1270.4) " >Tailor Made Software, Ltd</text>
</g>
</g>
</g>
<g id="layer_0_block" class="layer_0_block"  cvjs:layerName="0" cvjs:plottable="YES"
 cvjs:status="ON" visibility="visible">
<g class="90S2" id="cv_Block_90S2_41">
<g id="cvclr_194" stroke="#FF7F00" fill="none">
<path id="cv_195" class=" ZW" d="M338.15,1047.62l0,0.37l0,0.37l0.01,0.37l0.01,0.37l0.01,0.37l0.01,0.37l0.02,0.37l0.02,0.37l0.02,0.37l0.02,0.37l0.02,0.37l0.03,0.37l0.03,0.37l0.03,0.37l0.03,0.37l0.04,0.37l0.04,0.37l0.04,0.37l0.04,0.37l0.05,0.37l0.05,0.37l0.05,0.37l0.05,0.37l0.06,0.37l0.06,0.37l0.06,0.37l0.06,0.37l0.06,0.37l0.07,0.37l0.07,0.37l0.07,0.37l0.07,0.37l0.08,0.37l0.08,0.37l0.08,0.37l0.08,0.37l0.09,0.36l0.09,0.36l0.09,0.36l0.09,0.36l0.09,0.36l0.1,0.36l0.1,0.36l0.1,0.36l0.1,0.36l0.11,0.36l0.11,0.36l0.11,0.36l0.11,0.36l0.11,0.36l0.12,0.36l0.12,0.36l0.12,0.35l0.12,0.35l0.13,0.35l0.13,0.35l0.13,0.35l0.13,0.35l0.13,0.35l0.14,0.35l0.14,0.35l0.14,0.35l0.14,0.35l0.15,0.35l0.15,0.34l0.15,0.34l0.15,0.34l0.15,0.34l0.16,0.34l0.16,0.34l0.16,0.34l0.16,0.34l0.16,0.34l0.17,0.34l0.17,0.33l0.17,0.33l0.17,0.33l0.18,0.33l0.18,0.33l0.18,0.33l0.18,0.33l0.18,0.33l0.19,0.33l0.19,0.32l0.19,0.32l0.19,0.32l0.19,0.32l0.2,0.32l0.2,0.32l0.2,0.32l0.2,0.32l0.2,0.31l0.21,0.31l0.21,0.31l0.21,0.31l0.21,0.31l0.21,0.31l0.22,0.31l0.22,0.31l0.22,0.3l0.22,0.3l0.22,0.3l0.22,0.3l0.23,0.3l0.23,0.3l0.23,0.3l0.23,0.29l0.23,0.29l0.24,0.29l0.24,0.29l0.24,0.29l0.24,0.29l0.24,0.28l0.24,0.28l0.25,0.28l0.25,0.28l0.25,0.28l0.25,0.28l0.25,0.28l0.26,0.27l0.26,0.27l0.26,0.27l0.26,0.27l0.26,0.27l0.26,0.27l0.27,0.26l0.27,0.26l0.27,0.26l0.27,0.26l0.27,0.26l0.27,0.26l0.28,0.25l0.28,0.25l0.28,0.25l0.28,0.25l0.28,0.25l0.28,0.25l0.28,0.24l0.29,0.24l0.29,0.24l0.29,0.24l0.29,0.24l0.29,0.23l0.29,0.23l0.3,0.23l0.3,0.23l0.3,0.23l0.3,0.23l0.3,0.22l0.3,0.22l0.3,0.22l0.3,0.22l0.31,0.22l0.31,0.21l0.31,0.21l0.31,0.21l0.31,0.21l0.31,0.21l0.31,0.2l0.32,0.2l0.32,0.2l0.32,0.2l0.32,0.2l0.32,0.19l0.32,0.19l0.32,0.19l0.32,0.19l0.33,0.19l0.33,0.18l0.33,0.18l0.33,0.18l0.33,0.18l0.33,0.18l0.33,0.17l0.33,0.17l0.33,0.17l0.34,0.17l0.34,0.17l0.34,0.16l0.34,0.16l0.34,0.16l0.34,0.16l0.34,0.15l0.34,0.15l0.34,0.15l0.34,0.15l0.34,0.15l0.35,0.14l0.35,0.14l0.35,0.14l0.35,0.14l0.35,0.14l0.35,0.13l0.35,0.13l0.35,0.13l0.35,0.13l0.35,0.12l0.35,0.12l0.35,0.12l0.36,0.12l0.36,0.12l0.36,0.11l0.36,0.11l0.36,0.11l0.36,0.11l0.36,0.1l0.36,0.1l0.36,0.1l0.36,0.1l0.36,0.09l0.36,0.09l0.36,0.09l0.36,0.09l0.36,0.09l0.37,0.08l0.37,0.08l0.37,0.08l0.37,0.08l0.37,0.07l0.37,0.07l0.37,0.07l0.37,0.07l0.37,0.06l0.37,0.06l0.37,0.06l0.37,0.06l0.37,0.06l0.37,0.05l0.37,0.05l0.37,0.05l0.37,0.05l0.37,0.04l0.37,0.04l0.37,0.04l0.37,0.04l0.37,0.03l0.37,0.03l0.37,0.03l0.37,0.03l0.37,0.03l0.37,0.02l0.37,0.02l0.37,0.02l0.37,0.02l0.37,0.01l0.37,0.01l0.37,0.01l0.37,0.01l0.37,0l0.37,0l0.37,-0l0.37,-0l0.37,-0.01l0.37,-0.01l0.37,-0.01" />
<path id="cv_196" class="ZW" d="M397.83,1047.62l0,59.67M395.96,1047.62l0,59.56M397.83,1047.62l-1.86,-0" />
</g>
</g>
<g class="DR_2D_S90" id="cv_Block_DR_2D_S90_42">
<g id="cvclr_197" stroke="#FF7F00" fill="none">
<path id="cv_198" class=" ZW" d="M387.14,540.38l-0,-0.3l-0,-0.3l-0,-0.3l-0.01,-0.3l-0.01,-0.3l-0.01,-0.3l-0.01,-0.3l-0.01,-0.3l-0.02,-0.3l-0.02,-0.3l-0.02,-0.3l-0.02,-0.3l-0.02,-0.3l-0.03,-0.3l-0.03,-0.3l-0.03,-0.3l-0.03,-0.3l-0.03,-0.3l-0.03,-0.3l-0.04,-0.3l-0.04,-0.3l-0.04,-0.3l-0.04,-0.3l-0.04,-0.3l-0.05,-0.3l-0.05,-0.3l-0.05,-0.3l-0.05,-0.3l-0.05,-0.3l-0.06,-0.3l-0.06,-0.3l-0.06,-0.3l-0.06,-0.3l-0.06,-0.3l-0.06,-0.3l-0.07,-0.29l-0.07,-0.29l-0.07,-0.29l-0.07,-0.29l-0.07,-0.29l-0.08,-0.29l-0.08,-0.29l-0.08,-0.29l-0.08,-0.29l-0.08,-0.29l-0.08,-0.29l-0.09,-0.29l-0.09,-0.29l-0.09,-0.29l-0.09,-0.29l-0.09,-0.29l-0.1,-0.29l-0.1,-0.29l-0.1,-0.29l-0.1,-0.28l-0.1,-0.28l-0.1,-0.28l-0.11,-0.28l-0.11,-0.28l-0.11,-0.28l-0.11,-0.28l-0.11,-0.28l-0.12,-0.28l-0.12,-0.28l-0.12,-0.28l-0.12,-0.28l-0.12,-0.28l-0.12,-0.28l-0.13,-0.27l-0.13,-0.27l-0.13,-0.27l-0.13,-0.27l-0.13,-0.27l-0.13,-0.27l-0.14,-0.27l-0.14,-0.27l-0.14,-0.27l-0.14,-0.27l-0.14,-0.27l-0.14,-0.27l-0.15,-0.26l-0.15,-0.26l-0.15,-0.26l-0.15,-0.26l-0.15,-0.26l-0.15,-0.26l-0.16,-0.26l-0.16,-0.26l-0.16,-0.26l-0.16,-0.26l-0.16,-0.25l-0.16,-0.25l-0.17,-0.25l-0.17,-0.25l-0.17,-0.25l-0.17,-0.25l-0.17,-0.25l-0.17,-0.25l-0.17,-0.25l-0.18,-0.25l-0.18,-0.24l-0.18,-0.24l-0.18,-0.24l-0.18,-0.24l-0.18,-0.24l-0.19,-0.24l-0.19,-0.24l-0.19,-0.24l-0.19,-0.24l-0.19,-0.23l-0.19,-0.23l-0.19,-0.23l-0.2,-0.23l-0.2,-0.23l-0.2,-0.23l-0.2,-0.23l-0.2,-0.23l-0.2,-0.22l-0.2,-0.22l-0.21,-0.22l-0.21,-0.22l-0.21,-0.22l-0.21,-0.22l-0.21,-0.22l-0.21,-0.21l-0.21,-0.21l-0.22,-0.21l-0.22,-0.21l-0.22,-0.21l-0.22,-0.21l-0.22,-0.21l-0.22,-0.21l-0.22,-0.2l-0.22,-0.2l-0.23,-0.2l-0.23,-0.2l-0.23,-0.2l-0.23,-0.2l-0.23,-0.2l-0.23,-0.19l-0.23,-0.19l-0.23,-0.19l-0.24,-0.19l-0.24,-0.19l-0.24,-0.19l-0.24,-0.19l-0.24,-0.18l-0.24,-0.18l-0.24,-0.18l-0.24,-0.18l-0.24,-0.18l-0.25,-0.18l-0.25,-0.17l-0.25,-0.17l-0.25,-0.17l-0.25,-0.17l-0.25,-0.17l-0.25,-0.17l-0.25,-0.17l-0.25,-0.16l-0.26,-0.16l-0.26,-0.16l-0.26,-0.16l-0.26,-0.16l-0.26,-0.16l-0.26,-0.15l-0.26,-0.15l-0.26,-0.15l-0.26,-0.15l-0.26,-0.15l-0.26,-0.15l-0.27,-0.14l-0.27,-0.14l-0.27,-0.14l-0.27,-0.14l-0.27,-0.14l-0.27,-0.14l-0.27,-0.13l-0.27,-0.13l-0.27,-0.13l-0.27,-0.13l-0.27,-0.13l-0.27,-0.13l-0.28,-0.12l-0.28,-0.12l-0.28,-0.12l-0.28,-0.12l-0.28,-0.12l-0.28,-0.11l-0.28,-0.11l-0.28,-0.11l-0.28,-0.11l-0.28,-0.11l-0.28,-0.11l-0.28,-0.1l-0.28,-0.1l-0.28,-0.1l-0.29,-0.1l-0.29,-0.1l-0.29,-0.1l-0.29,-0.09l-0.29,-0.09l-0.29,-0.09l-0.29,-0.09l-0.29,-0.09l-0.29,-0.08l-0.29,-0.08l-0.29,-0.08l-0.29,-0.08l-0.29,-0.08l-0.29,-0.08l-0.29,-0.07l-0.29,-0.07l-0.29,-0.07l-0.29,-0.07l-0.29,-0.07l-0.3,-0.06l-0.3,-0.06l-0.3,-0.06l-0.3,-0.06l-0.3,-0.06l-0.3,-0.06l-0.3,-0.05l-0.3,-0.05l-0.3,-0.05l-0.3,-0.05l-0.3,-0.05l-0.3,-0.04l-0.3,-0.04l-0.3,-0.04l-0.3,-0.04l-0.3,-0.04l-0.3,-0.03l-0.3,-0.03l-0.3,-0.03l-0.3,-0.03l-0.3,-0.03l-0.3,-0.03l-0.3,-0.02l-0.3,-0.02l-0.3,-0.02l-0.3,-0.02l-0.3,-0.02" />
<path id="cv_199" class="ZW" d="M341.25,492.15l0,48l-2.34,-0l0,-48l2.34,-0" />
</g>
</g>
<g class="90S2" id="cv_Block_90S2_43">
<g id="cvclr_200" stroke="#FF7F00" fill="none">
<path id="cv_201" class=" ZW" d="M1292.12,916.66l0,0.37l0,0.37l0.01,0.37l0.01,0.37l0.01,0.37l0.01,0.37l0.02,0.37l0.02,0.37l0.02,0.37l0.02,0.37l0.02,0.37l0.03,0.37l0.03,0.37l0.03,0.37l0.03,0.37l0.04,0.37l0.04,0.37l0.04,0.37l0.04,0.37l0.05,0.37l0.05,0.37l0.05,0.37l0.05,0.37l0.06,0.37l0.06,0.37l0.06,0.37l0.06,0.37l0.06,0.37l0.07,0.37l0.07,0.37l0.07,0.37l0.07,0.37l0.08,0.37l0.08,0.37l0.08,0.37l0.08,0.37l0.09,0.36l0.09,0.36l0.09,0.36l0.09,0.36l0.09,0.36l0.1,0.36l0.1,0.36l0.1,0.36l0.1,0.36l0.11,0.36l0.11,0.36l0.11,0.36l0.11,0.36l0.11,0.36l0.12,0.36l0.12,0.36l0.12,0.35l0.12,0.35l0.13,0.35l0.13,0.35l0.13,0.35l0.13,0.35l0.13,0.35l0.14,0.35l0.14,0.35l0.14,0.35l0.14,0.35l0.15,0.35l0.15,0.34l0.15,0.34l0.15,0.34l0.15,0.34l0.16,0.34l0.16,0.34l0.16,0.34l0.16,0.34l0.16,0.34l0.17,0.34l0.17,0.33l0.17,0.33l0.17,0.33l0.18,0.33l0.18,0.33l0.18,0.33l0.18,0.33l0.18,0.33l0.19,0.33l0.19,0.32l0.19,0.32l0.19,0.32l0.19,0.32l0.2,0.32l0.2,0.32l0.2,0.32l0.2,0.32l0.2,0.31l0.21,0.31l0.21,0.31l0.21,0.31l0.21,0.31l0.21,0.31l0.22,0.31l0.22,0.31l0.22,0.3l0.22,0.3l0.22,0.3l0.22,0.3l0.23,0.3l0.23,0.3l0.23,0.3l0.23,0.29l0.23,0.29l0.24,0.29l0.24,0.29l0.24,0.29l0.24,0.29l0.24,0.28l0.24,0.28l0.25,0.28l0.25,0.28l0.25,0.28l0.25,0.28l0.25,0.28l0.26,0.27l0.26,0.27l0.26,0.27l0.26,0.27l0.26,0.27l0.26,0.27l0.27,0.26l0.27,0.26l0.27,0.26l0.27,0.26l0.27,0.26l0.27,0.26l0.28,0.25l0.28,0.25l0.28,0.25l0.28,0.25l0.28,0.25l0.28,0.25l0.28,0.24l0.29,0.24l0.29,0.24l0.29,0.24l0.29,0.24l0.29,0.23l0.29,0.23l0.3,0.23l0.3,0.23l0.3,0.23l0.3,0.23l0.3,0.22l0.3,0.22l0.3,0.22l0.3,0.22l0.31,0.22l0.31,0.21l0.31,0.21l0.31,0.21l0.31,0.21l0.31,0.21l0.31,0.2l0.32,0.2l0.32,0.2l0.32,0.2l0.32,0.2l0.32,0.19l0.32,0.19l0.32,0.19l0.32,0.19l0.33,0.19l0.33,0.18l0.33,0.18l0.33,0.18l0.33,0.18l0.33,0.18l0.33,0.17l0.33,0.17l0.33,0.17l0.34,0.17l0.34,0.17l0.34,0.16l0.34,0.16l0.34,0.16l0.34,0.16l0.34,0.15l0.34,0.15l0.34,0.15l0.34,0.15l0.34,0.15l0.35,0.14l0.35,0.14l0.35,0.14l0.35,0.14l0.35,0.14l0.35,0.13l0.35,0.13l0.35,0.13l0.35,0.13l0.35,0.12l0.35,0.12l0.35,0.12l0.36,0.12l0.36,0.12l0.36,0.11l0.36,0.11l0.36,0.11l0.36,0.11l0.36,0.1l0.36,0.1l0.36,0.1l0.36,0.1l0.36,0.09l0.36,0.09l0.36,0.09l0.36,0.09l0.36,0.09l0.37,0.08l0.37,0.08l0.37,0.08l0.37,0.08l0.37,0.07l0.37,0.07l0.37,0.07l0.37,0.07l0.37,0.06l0.37,0.06l0.37,0.06l0.37,0.06l0.37,0.06l0.37,0.05l0.37,0.05l0.37,0.05l0.37,0.05l0.37,0.04l0.37,0.04l0.37,0.04l0.37,0.04l0.37,0.03l0.37,0.03l0.37,0.03l0.37,0.03l0.37,0.03l0.37,0.02l0.37,0.02l0.37,0.02l0.37,0.02l0.37,0.01l0.37,0.01l0.37,0.01l0.37,0.01l0.37,0l0.37,0l0.37,-0l0.37,-0l0.37,-0.01l0.37,-0.01l0.37,-0.01" />
<path id="cv_202" class="ZW" d="M1351.79,916.66l0,59.67M1349.93,916.66l0,59.56M1351.79,916.66l-1.86,-0" />
</g>
</g>
<g class="DR_2D_DOUB" id="cv_Block_DR_2D_DOUB_44">
<g id="cvclr_203" stroke="#FF7F00" fill="none">
<path id="cv_204" class=" ZW" d="M1431.35,686.95l-0,0.31l-0,0.31l-0,0.31l-0.01,0.31l-0.01,0.31l-0.01,0.31l-0.01,0.31l-0.01,0.31l-0.02,0.31l-0.02,0.31l-0.02,0.31l-0.02,0.31l-0.02,0.31l-0.03,0.31l-0.03,0.31l-0.03,0.31l-0.03,0.31l-0.03,0.31l-0.04,0.31l-0.04,0.31l-0.04,0.31l-0.04,0.31l-0.04,0.31l-0.05,0.31l-0.05,0.31l-0.05,0.31l-0.05,0.31l-0.05,0.31l-0.06,0.31l-0.06,0.31l-0.06,0.31l-0.06,0.31l-0.06,0.31l-0.07,0.31l-0.07,0.31l-0.07,0.3l-0.07,0.3l-0.07,0.3l-0.07,0.3l-0.08,0.3l-0.08,0.3l-0.08,0.3l-0.08,0.3l-0.08,0.3l-0.09,0.3l-0.09,0.3l-0.09,0.3l-0.09,0.3l-0.09,0.3l-0.1,0.3l-0.1,0.3l-0.1,0.3l-0.1,0.3l-0.1,0.29l-0.1,0.29l-0.11,0.29l-0.11,0.29l-0.11,0.29l-0.11,0.29l-0.11,0.29l-0.12,0.29l-0.12,0.29l-0.12,0.29l-0.12,0.29l-0.12,0.29l-0.12,0.29l-0.13,0.29l-0.13,0.28l-0.13,0.28l-0.13,0.28l-0.13,0.28l-0.14,0.28l-0.14,0.28l-0.14,0.28l-0.14,0.28l-0.14,0.28l-0.14,0.28l-0.15,0.28l-0.15,0.28l-0.15,0.27l-0.15,0.27l-0.15,0.27l-0.15,0.27l-0.16,0.27l-0.16,0.27l-0.16,0.27l-0.16,0.27l-0.16,0.27l-0.16,0.27l-0.17,0.26l-0.17,0.26l-0.17,0.26l-0.17,0.26l-0.17,0.26l-0.17,0.26l-0.18,0.26l-0.18,0.26l-0.18,0.26l-0.18,0.25l-0.18,0.25l-0.18,0.25l-0.19,0.25l-0.19,0.25l-0.19,0.25l-0.19,0.25l-0.19,0.25l-0.19,0.25l-0.2,0.24l-0.2,0.24l-0.2,0.24l-0.2,0.24l-0.2,0.24l-0.2,0.24l-0.2,0.24l-0.21,0.24l-0.21,0.23l-0.21,0.23l-0.21,0.23l-0.21,0.23l-0.21,0.23l-0.21,0.23l-0.22,0.23l-0.22,0.22l-0.22,0.22l-0.22,0.22l-0.22,0.22l-0.22,0.22l-0.22,0.22l-0.23,0.22l-0.23,0.21l-0.23,0.21l-0.23,0.21l-0.23,0.21l-0.23,0.21l-0.23,0.21l-0.24,0.21l-0.24,0.2l-0.24,0.2l-0.24,0.2l-0.24,0.2l-0.24,0.2l-0.24,0.2l-0.24,0.2l-0.25,0.19l-0.25,0.19l-0.25,0.19l-0.25,0.19l-0.25,0.19l-0.25,0.19l-0.25,0.18l-0.25,0.18l-0.25,0.18l-0.26,0.18l-0.26,0.18l-0.26,0.18l-0.26,0.17l-0.26,0.17l-0.26,0.17l-0.26,0.17l-0.26,0.17l-0.26,0.17l-0.27,0.16l-0.27,0.16l-0.27,0.16l-0.27,0.16l-0.27,0.16l-0.27,0.16l-0.27,0.15l-0.27,0.15l-0.27,0.15l-0.27,0.15l-0.28,0.15l-0.28,0.15l-0.28,0.14l-0.28,0.14l-0.28,0.14l-0.28,0.14l-0.28,0.14l-0.28,0.14l-0.28,0.13l-0.28,0.13l-0.28,0.13l-0.28,0.13l-0.29,0.13l-0.29,0.12l-0.29,0.12l-0.29,0.12l-0.29,0.12l-0.29,0.12l-0.29,0.12l-0.29,0.11l-0.29,0.11l-0.29,0.11l-0.29,0.11l-0.29,0.11l-0.29,0.1l-0.29,0.1l-0.3,0.1l-0.3,0.1l-0.3,0.1l-0.3,0.1l-0.3,0.09l-0.3,0.09l-0.3,0.09l-0.3,0.09l-0.3,0.09l-0.3,0.08l-0.3,0.08l-0.3,0.08l-0.3,0.08l-0.3,0.08l-0.3,0.07l-0.3,0.07l-0.3,0.07l-0.3,0.07l-0.31,0.07l-0.31,0.07l-0.31,0.06l-0.31,0.06l-0.31,0.06l-0.31,0.06l-0.31,0.06l-0.31,0.05l-0.31,0.05l-0.31,0.05l-0.31,0.05l-0.31,0.05l-0.31,0.04l-0.31,0.04l-0.31,0.04l-0.31,0.04l-0.31,0.04l-0.31,0.03l-0.31,0.03l-0.31,0.03l-0.31,0.03l-0.31,0.03l-0.31,0.02l-0.31,0.02l-0.31,0.02l-0.31,0.02l-0.31,0.02l-0.31,0.01l-0.31,0.01l-0.31,0.01l-0.31,0.01l-0.31,0.01l-0.31,0l-0.31,0l-0.31,0M1381.63,736.68l0.31,0l0.31,0l0.31,0l0.31,0.01l0.31,0.01l0.31,0.01l0.31,0.01l0.31,0.01l0.31,0.02l0.31,0.02l0.31,0.02l0.31,0.02l0.31,0.02l0.31,0.03l0.31,0.03l0.31,0.03l0.31,0.03l0.31,0.03l0.31,0.04l0.31,0.04l0.31,0.04l0.31,0.04l0.31,0.04l0.31,0.05l0.31,0.05l0.31,0.05l0.31,0.05l0.31,0.05l0.31,0.06l0.31,0.06l0.31,0.06l0.31,0.06l0.31,0.06l0.31,0.07l0.31,0.07l0.3,0.07l0.3,0.07l0.3,0.07l0.3,0.07l0.3,0.08l0.3,0.08l0.3,0.08l0.3,0.08l0.3,0.08l0.3,0.09l0.3,0.09l0.3,0.09l0.3,0.09l0.3,0.09l0.3,0.1l0.3,0.1l0.3,0.1l0.3,0.1l0.29,0.1l0.29,0.1l0.29,0.11l0.29,0.11l0.29,0.11l0.29,0.11l0.29,0.11l0.29,0.12l0.29,0.12l0.29,0.12l0.29,0.12l0.29,0.12l0.29,0.12l0.29,0.13l0.28,0.13l0.28,0.13l0.28,0.13l0.28,0.13l0.28,0.14l0.28,0.14l0.28,0.14l0.28,0.14l0.28,0.14l0.28,0.14l0.28,0.15l0.28,0.15l0.27,0.15l0.27,0.15l0.27,0.15l0.27,0.15l0.27,0.16l0.27,0.16l0.27,0.16l0.27,0.16l0.27,0.16l0.27,0.16l0.26,0.17l0.26,0.17l0.26,0.17l0.26,0.17l0.26,0.17l0.26,0.17l0.26,0.18l0.26,0.18l0.26,0.18l0.25,0.18l0.25,0.18l0.25,0.18l0.25,0.19l0.25,0.19l0.25,0.19l0.25,0.19l0.25,0.19l0.25,0.19l0.24,0.2l0.24,0.2l0.24,0.2l0.24,0.2l0.24,0.2l0.24,0.2l0.24,0.2l0.24,0.21l0.23,0.21l0.23,0.21l0.23,0.21l0.23,0.21l0.23,0.21l0.23,0.21l0.23,0.22l0.22,0.22l0.22,0.22l0.22,0.22l0.22,0.22l0.22,0.22l0.22,0.22l0.22,0.23l0.21,0.23l0.21,0.23l0.21,0.23l0.21,0.23l0.21,0.23l0.21,0.23l0.21,0.24l0.2,0.24l0.2,0.24l0.2,0.24l0.2,0.24l0.2,0.24l0.2,0.24l0.2,0.24l0.19,0.25l0.19,0.25l0.19,0.25l0.19,0.25l0.19,0.25l0.19,0.25l0.18,0.25l0.18,0.25l0.18,0.25l0.18,0.26l0.18,0.26l0.18,0.26l0.17,0.26l0.17,0.26l0.17,0.26l0.17,0.26l0.17,0.26l0.17,0.26l0.16,0.27l0.16,0.27l0.16,0.27l0.16,0.27l0.16,0.27l0.16,0.27l0.15,0.27l0.15,0.27l0.15,0.27l0.15,0.27l0.15,0.28l0.15,0.28l0.14,0.28l0.14,0.28l0.14,0.28l0.14,0.28l0.14,0.28l0.14,0.28l0.13,0.28l0.13,0.28l0.13,0.28l0.13,0.28l0.13,0.29l0.12,0.29l0.12,0.29l0.12,0.29l0.12,0.29l0.12,0.29l0.12,0.29l0.11,0.29l0.11,0.29l0.11,0.29l0.11,0.29l0.11,0.29l0.1,0.29l0.1,0.29l0.1,0.3l0.1,0.3l0.1,0.3l0.1,0.3l0.09,0.3l0.09,0.3l0.09,0.3l0.09,0.3l0.09,0.3l0.08,0.3l0.08,0.3l0.08,0.3l0.08,0.3l0.08,0.3l0.07,0.3l0.07,0.3l0.07,0.3l0.07,0.3l0.07,0.31l0.07,0.31l0.06,0.31l0.06,0.31l0.06,0.31l0.06,0.31l0.06,0.31l0.05,0.31l0.05,0.31l0.05,0.31l0.05,0.31l0.05,0.31l0.04,0.31l0.04,0.31l0.04,0.31l0.04,0.31l0.04,0.31l0.03,0.31l0.03,0.31l0.03,0.31l0.03,0.31l0.03,0.31l0.02,0.31l0.02,0.31l0.02,0.31l0.02,0.31l0.02,0.31l0.01,0.31l0.01,0.31l0.01,0.31l0.01,0.31l0.01,0.31l0,0.31l0,0.31l0,0.31" />
<path id="cv_205" class="ZW" d="M1381.63,686.95l49.73,-0l0,1.55l-49.73,-0l0,-1.55M1381.63,784.85l0,1.55M1431.35,784.85l-49.73,-0M1431.35,786.41l0,-1.55M1381.63,786.41l49.73,-0" />
</g>
</g>
<g class="SINK" id="cv_Block_SINK_45">
<g id="cvclr_206" stroke="#29A500" fill="none">
<path id="cv_207" class="ZW" d="M101.36,871.91l0,31.63M103.18,905.37l43.85,-0M148.85,903.54l0,-31.63l-47.49,-0M109.35,901.15l31.51,-0M144.63,897.37l0,-13.76M105.58,883.61l0,13.76M140.86,879.84l-14.48,-0M123.72,877.02l0,10.47l2.66,-0l0,-10.47l-2.66,-0M123.72,879.84l-14.37,-0" />
<path id="cv_208" class="ZW" d="M109.35,879.84A 3.77271 3.77271 0 0 0 105.58 883.61M105.58,897.37A 3.77271 3.77271 0 0 0 109.35 901.15M140.86,901.15A 3.77271 3.77271 0 0 0 144.63 897.37M144.63,883.61A 3.77271 3.77271 0 0 0 140.86 879.84M101.36,903.54A 1.82338 1.82338 0 0 0 103.18 905.37M147.03,905.37A 1.82338 1.82338 0 0 0 148.85 903.54" />
<circle id="cv_209" class="ZW" cx="118.3" cy="876.25" r="2.44892" />
<circle id="cv_210" class="ZW" cx="131.8" cy="876.25" r="2.44892" />
</g>
</g>
<g class="SINK" id="cv_Block_SINK_46">
<g id="cvclr_211" stroke="#29A500" fill="none">
<path id="cv_212" class="ZW" d="M44.71,871.91l0,31.63M46.53,905.37l43.85,-0M92.2,903.54l0,-31.63l-47.49,-0M52.7,901.15l31.51,-0M87.98,897.37l0,-13.76M48.93,883.61l0,13.76M84.21,879.84l-14.48,-0M67.07,877.02l0,10.47l2.66,-0l0,-10.47l-2.66,-0M67.07,879.84l-14.37,-0" />
<path id="cv_213" class="ZW" d="M52.7,879.84A 3.77271 3.77271 0 0 0 48.93 883.61M48.93,897.37A 3.77271 3.77271 0 0 0 52.7 901.15M84.21,901.15A 3.77271 3.77271 0 0 0 87.98 897.37M87.98,883.61A 3.77271 3.77271 0 0 0 84.21 879.84M44.71,903.54A 1.82338 1.82338 0 0 0 46.53 905.37M90.38,905.37A 1.82338 1.82338 0 0 0 92.2 903.54" />
<circle id="cv_214" class="ZW" cx="61.65" cy="876.25" r="2.44892" />
<circle id="cv_215" class="ZW" cx="75.16" cy="876.25" r="2.44892" />
</g>
</g>
<g class="SINK" id="cv_Block_SINK_47">
<g id="cvclr_216" stroke="#29A500" fill="none">
<path id="cv_217" class="ZW" d="M44.71,861.96l0,-31.63M46.53,828.51l43.85,-0M92.2,830.33l0,31.63l-47.49,-0M52.7,832.73l31.51,-0M87.98,836.5l0,13.76M48.93,850.26l0,-13.76M84.21,854.03l-14.48,-0M67.07,856.85l0,-10.47l2.66,-0l0,10.47l-2.66,-0M67.07,854.03l-14.37,-0" />
<path id="cv_218" class="ZW" d="M48.93,850.26A 3.77271 3.77271 0 0 0 52.7 854.03M52.7,832.73A 3.77271 3.77271 0 0 0 48.93 836.5M87.98,836.5A 3.77271 3.77271 0 0 0 84.21 832.73M84.21,854.03A 3.77271 3.77271 0 0 0 87.98 850.26M46.53,828.51A 1.82338 1.82338 0 0 0 44.71 830.33M92.2,830.33A 1.82338 1.82338 0 0 0 90.38 828.51" />
<circle id="cv_219" class="ZW" cx="61.65" cy="857.62" r="2.44892" />
<circle id="cv_220" class="ZW" cx="75.16" cy="857.62" r="2.44892" />
</g>
</g>
<g class="SINK" id="cv_Block_SINK_48">
<g id="cvclr_221" stroke="#29A500" fill="none">
<path id="cv_222" class="ZW" d="M164.19,653.1l0,31.63M162.37,686.56l-43.85,-0M116.7,684.74l0,-31.63l47.49,-0M156.2,682.34l-31.51,-0M120.92,678.57l0,-13.76M159.97,664.8l0,13.76M124.69,661.03l14.48,-0M141.83,658.21l0,10.47l-2.66,-0l0,-10.47l2.66,-0M141.83,661.03l14.37,-0" />
<path id="cv_223" class="ZW" d="M159.97,664.81A 3.77271 3.77271 0 0 0 156.2 661.03M156.2,682.34A 3.77271 3.77271 0 0 0 159.97 678.57M120.92,678.57A 3.77271 3.77271 0 0 0 124.69 682.34M124.69,661.03A 3.77271 3.77271 0 0 0 120.92 664.8M162.37,686.56A 1.82338 1.82338 0 0 0 164.19 684.74M116.7,684.74A 1.82338 1.82338 0 0 0 118.52 686.56" />
<circle id="cv_224" class="ZW" cx="147.25" cy="657.44" r="2.44892" />
<circle id="cv_225" class="ZW" cx="133.75" cy="657.44" r="2.44892" />
</g>
</g>
<g class="ELEV" id="cv_Block_ELEV_49">
<g id="cvclr_226" stroke="#29A500" fill="none">
<path id="cv_227" class=" ZW" d="M675.89,1039.33V929.92H815.13V1039.33H675.89" />
<path id="cv_228" class="ZW" d="M815.13,929.92L675.89,1039.33M675.89,929.92L815.13,1039.33" />
</g>
</g>
<g class="ELEV" id="cv_Block_ELEV_50">
<g id="cvclr_229" stroke="#29A500" fill="none">
<path id="cv_230" class=" ZW" d="M675.89,548.73V658.13H815.13V548.73H675.89" />
<path id="cv_231" class="ZW" d="M815.13,658.13L675.89,548.73M675.89,658.13L815.13,548.73" />
</g>
</g>
<g class="WNV" id="cv_Block_WNV_51">
<g id="cvclr_232" stroke="#808080" fill="none">
<path id="cv_233" class="ZW" d="M20.72,888.9l0,92M16.58,977.58l0,-85.37M24.86,888.9l0,92" />
</g>
</g>
<g class="ELEV" id="cv_Block_ELEV_52">
<g id="cvclr_234" stroke="#29A500" fill="none">
<path id="cv_235" class=" ZW" d="M497.7,1039.33V929.92H636.94V1039.33H497.7" />
<path id="cv_236" class="ZW" d="M636.94,929.92L497.7,1039.33M497.7,929.92L636.94,1039.33" />
</g>
</g>
<g class="WNH" id="cv_Block_WNH_53">
<g id="cvclr_237" stroke="#808080" fill="none">
<path id="cv_238" class="ZW" d="M240.77,1331.9l-99.46,-0M237.45,1336.04l-92.83,-0M240.77,1327.75l-99.46,-0" />
</g>
</g>
<g class="WNH" id="cv_Block_WNH_54">
<g id="cvclr_239" stroke="#808080" fill="none">
<path id="cv_240" class="ZW" d="M70.45,1238.24l0,-99.46M66.3,1234.93l0,-92.83M74.59,1238.24l0,-99.46" />
</g>
</g>
<g class="WNH" id="cv_Block_WNH_55">
<g id="cvclr_241" stroke="#808080" fill="none">
<path id="cv_242" class="ZW" d="M389.13,1331.9l-99.46,-0M385.81,1336.04l-92.83,-0M389.13,1327.75l-99.46,-0" />
</g>
</g>
<g class="WNH" id="cv_Block_WNH_56">
<g id="cvclr_243" stroke="#808080" fill="none">
<path id="cv_244" class="ZW" d="M618.71,1449.59l-99.46,-0M615.39,1453.73l-92.83,-0M618.71,1445.44l-99.46,-0" />
</g>
</g>
<g class="WNH" id="cv_Block_WNH_57">
<g id="cvclr_245" stroke="#808080" fill="none">
<path id="cv_246" class="ZW" d="M767.06,1449.59l-99.46,-0M763.75,1453.73l-92.83,-0M767.06,1445.44l-99.46,-0" />
</g>
</g>
<g class="WCWALL" id="cv_Block_WCWALL_58">
<g id="cvclr_247" stroke="#29A500" fill="none">
<path id="cv_248" class="ZW" d="M248.64,871.91l-23.21,-0M248.64,871.91l-4.14,7.46M225.44,871.91l4.14,7.46" />
<path id="cv_249" class="ZW" d="M244.5,879.37A 8.53312 8.53312 0 0 0 244.5 887.66M244.5,910.86A 18.3167 18.3167 0 0 0 244.5 887.66M229.58,910.86A 8.78539 8.78539 0 0 0 244.5 910.86M229.58,887.65A 18.3167 18.3167 0 0 0 229.58 910.86M229.58,887.66A 8.53312 8.53312 0 0 0 229.58 879.37" />
<circle id="cv_250" class="ZW" cx="237.04" cy="875.22" r="1.65762" />
</g>
</g>
<g class="WCWALL" id="cv_Block_WCWALL_59">
<g id="cvclr_251" stroke="#29A500" fill="none">
<path id="cv_252" class="ZW" d="M248.64,861.96l-23.21,-0M248.64,861.96l-4.14,-7.46M225.44,861.96l4.14,-7.46" />
<path id="cv_253" class="ZW" d="M244.5,846.21A 8.53312 8.53312 0 0 0 244.5 854.5M244.5,846.22A 18.3167 18.3167 0 0 0 244.5 823.01M244.5,823.01A 8.78539 8.78539 0 0 0 229.58 823.01M229.58,823.01A 18.3167 18.3167 0 0 0 229.58 846.21M229.58,854.5A 8.53312 8.53312 0 0 0 229.58 846.22" />
<circle id="cv_254" class="ZW" cx="237.04" cy="858.65" r="1.65762" />
</g>
</g>
<g class="URINAL" id="cv_Block_URINAL_60">
<g id="cvclr_255" stroke="#29A500" fill="none">
<path id="cv_256" class="ZW" d="M222.48,653.1l29.84,-0M222.48,664.71l0,-11.6M225.8,663.05l0,1.66M234.92,672.16l-6.63,-9.12M246.52,663.05l-6.63,9.12M249,664.71l0,-1.66M252.32,653.1l0,11.6M247.35,662.22l-19.89,-0" />
<path id="cv_257" class="ZW" d="M222.48,664.71A 1.65762 1.65762 0 1 0 225.8 664.71M228.28,663.05A 1.31046 1.31046 0 0 0 225.8 663.05M234.91,672.16A 4.14405 4.14405 0 0 0 239.89 672.17M249,663.05A 1.31046 1.31046 0 0 0 246.52 663.05M249,664.71A 1.65762 1.65762 0 1 0 252.32 664.71" />
<circle id="cv_258" class="ZW" cx="237.4" cy="656.42" r="1.65762" />
</g>
</g>
<g class="WNV" id="cv_Block_WNV_61">
<g id="cvclr_259" stroke="#808080" fill="none">
<path id="cv_260" class="ZW" d="M20.72,840l0,-92M16.58,751.32l0,85.37M24.86,840l0,-92" />
</g>
</g>
<g class="WNV" id="cv_Block_WNV_62">
<g id="cvclr_261" stroke="#808080" fill="none">
<path id="cv_262" class="ZW" d="M20.72,748l0,92M16.58,836.68l0,-85.37M24.86,748l0,92" />
</g>
</g>
<g class="WCWALL" id="cv_Block_WCWALL_63">
<g id="cvclr_263" stroke="#29A500" fill="none">
<path id="cv_264" class="ZW" d="M195.6,871.91l-23.21,-0M195.6,871.91l-4.14,7.46M172.39,871.91l4.14,7.46" />
<path id="cv_265" class="ZW" d="M191.46,879.37A 8.53312 8.53312 0 0 0 191.45 887.66M191.46,910.86A 18.3167 18.3167 0 0 0 191.46 887.66M176.54,910.86A 8.78539 8.78539 0 0 0 191.45 910.86M176.54,887.65A 18.3167 18.3167 0 0 0 176.54 910.86M176.54,887.66A 8.53312 8.53312 0 0 0 176.54 879.37" />
<circle id="cv_266" class="ZW" cx="184" cy="875.22" r="1.65762" />
</g>
</g>
<g class="WCWALL" id="cv_Block_WCWALL_64">
<g id="cvclr_267" stroke="#29A500" fill="none">
<path id="cv_268" class="ZW" d="M142.56,861.96l-23.21,-0M142.56,861.96l-4.14,-7.46M119.35,861.96l4.14,-7.46" />
<path id="cv_269" class="ZW" d="M138.41,846.21A 8.53312 8.53312 0 0 0 138.41 854.5M138.41,846.22A 18.3167 18.3167 0 0 0 138.41 823.01M138.41,823.01A 8.78539 8.78539 0 0 0 123.49 823.01M123.49,823.01A 18.3167 18.3167 0 0 0 123.49 846.21M123.49,854.5A 8.53312 8.53312 0 0 0 123.49 846.22" />
<circle id="cv_270" class="ZW" cx="130.95" cy="858.65" r="1.65762" />
</g>
</g>
<g class="WCWALL" id="cv_Block_WCWALL_65">
<g id="cvclr_271" stroke="#29A500" fill="none">
<path id="cv_272" class="ZW" d="M195.6,861.96l-23.21,-0M195.6,861.96l-4.14,-7.46M172.39,861.96l4.14,-7.46" />
<path id="cv_273" class="ZW" d="M191.46,846.21A 8.53312 8.53312 0 0 0 191.45 854.5M191.45,846.22A 18.3167 18.3167 0 0 0 191.46 823.01M191.46,823.01A 8.78539 8.78539 0 0 0 176.54 823.01M176.54,823.01A 18.3167 18.3167 0 0 0 176.54 846.21M176.54,854.5A 8.53312 8.53312 0 0 0 176.54 846.22" />
<circle id="cv_274" class="ZW" cx="184" cy="858.65" r="1.65762" />
</g>
</g>
<g class="URINAL" id="cv_Block_URINAL_66">
<g id="cvclr_275" stroke="#29A500" fill="none">
<path id="cv_276" class="ZW" d="M184.12,653.1l29.84,-0M184.12,664.71l0,-11.6M187.43,663.05l0,1.66M196.55,672.16l-6.63,-9.12M208.15,663.05l-6.63,9.12M210.64,664.71l0,-1.66M213.96,653.1l0,11.6M208.98,662.22l-19.89,-0" />
<path id="cv_277" class="ZW" d="M184.12,664.71A 1.65762 1.65762 0 1 0 187.43 664.71M189.92,663.05A 1.31046 1.31046 0 0 0 187.43 663.05M196.55,672.16A 4.14405 4.14405 0 0 0 201.52 672.17M210.64,663.05A 1.31046 1.31046 0 0 0 208.15 663.05M210.64,664.71A 1.65762 1.65762 0 1 0 213.96 664.71" />
<circle id="cv_278" class="ZW" cx="199.04" cy="656.42" r="1.65762" />
</g>
</g>
<g class="ELEV" id="cv_Block_ELEV_67">
<g id="cvclr_279" stroke="#29A500" fill="none">
<path id="cv_280" class=" ZW" d="M497.7,548.73V658.13H636.94V548.73H497.7" />
<path id="cv_281" class="ZW" d="M636.94,658.13L497.7,548.73M497.7,658.13L636.94,548.73" />
</g>
</g>
<g class="WNH" id="cv_Block_WNH_68">
<g id="cvclr_282" stroke="#808080" fill="none">
<path id="cv_283" class="ZW" d="M389.13,256.1l-99.46,-0M385.81,251.96l-92.83,-0M389.13,260.25l-99.46,-0" />
</g>
</g>
<g class="WNH" id="cv_Block_WNH_69">
<g id="cvclr_284" stroke="#808080" fill="none">
<path id="cv_285" class="ZW" d="M618.71,138.41l-99.46,-0M615.39,134.27l-92.83,-0M618.71,142.56l-99.46,-0" />
</g>
</g>
<g class="WNH" id="cv_Block_WNH_70">
<g id="cvclr_286" stroke="#808080" fill="none">
<path id="cv_287" class="ZW" d="M767.06,138.41l-99.46,-0M763.75,134.27l-92.83,-0M767.06,142.56l-99.46,-0" />
</g>
</g>
<g class="ELEV" id="cv_Block_ELEV_71">
<g id="cvclr_288" stroke="#29A500" fill="none">
<path id="cv_289" class=" ZW" d="M875.64,1039.33V929.92H1014.88V1039.33H875.64" />
<path id="cv_290" class="ZW" d="M1014.88,929.92L875.64,1039.33M875.64,929.92L1014.88,1039.33" />
</g>
</g>
<g class="ELEV" id="cv_Block_ELEV_72">
<g id="cvclr_291" stroke="#29A500" fill="none">
<path id="cv_292" class=" ZW" d="M1053.83,1039.33V929.92H1193.07V1039.33H1053.83" />
<path id="cv_293" class="ZW" d="M1193.07,929.92L1053.83,1039.33M1053.83,929.92L1193.07,1039.33" />
</g>
</g>
<g class="WNV" id="cv_Block_WNV_73">
<g id="cvclr_294" stroke="#808080" fill="none">
<path id="cv_295" class="ZW" d="M2425.93,875.64l0,92M2430.07,964.32l0,-85.37M2421.78,875.64l0,92" />
</g>
</g>
<g class="WNH" id="cv_Block_WNH_74">
<g id="cvclr_296" stroke="#808080" fill="none">
<path id="cv_297" class="ZW" d="M1831.26,1433.01l99.46,-0M1834.57,1437.16l92.83,-0M1831.26,1428.87l99.46,-0" />
</g>
</g>
<g class="WNH" id="cv_Block_WNH_75">
<g id="cvclr_298" stroke="#808080" fill="none">
<path id="cv_299" class="ZW" d="M1266.84,1567.28l99.46,-0M1270.15,1571.42l92.83,-0M1266.84,1563.14l99.46,-0" />
</g>
</g>
<g class="WNH" id="cv_Block_WNH_76">
<g id="cvclr_300" stroke="#808080" fill="none">
<path id="cv_301" class="ZW" d="M1001.62,1562.31l-99.46,-0M998.3,1566.45l-92.83,-0M1001.62,1558.16l-99.46,-0" />
</g>
</g>
<g class="WNH" id="cv_Block_WNH_77">
<g id="cvclr_302" stroke="#808080" fill="none">
<path id="cv_303" class="ZW" d="M1179.81,1567.28l-99.46,-0M1176.5,1571.42l-92.83,-0M1179.81,1563.14l-99.46,-0" />
</g>
</g>
<g class="WNH" id="cv_Block_WNH_78">
<g id="cvclr_304" stroke="#808080" fill="none">
<path id="cv_305" class="ZW" d="M1445.03,1562.31l99.46,-0M1448.35,1566.45l92.83,-0M1445.03,1558.16l99.46,-0" />
</g>
</g>
<g class="WNH" id="cv_Block_WNH_79">
<g id="cvclr_306" stroke="#808080" fill="none">
<path id="cv_307" class="ZW" d="M1682.9,1433.01l99.46,-0M1686.21,1437.16l92.83,-0M1682.9,1428.87l99.46,-0" />
</g>
</g>
<g class="WNH" id="cv_Block_WNH_80">
<g id="cvclr_308" stroke="#808080" fill="none">
<path id="cv_309" class="ZW" d="M2060.84,1298.75l99.46,-0M2064.15,1302.89l92.83,-0M2060.84,1294.6l99.46,-0" />
</g>
</g>
<g class="WNH" id="cv_Block_WNH_81">
<g id="cvclr_310" stroke="#808080" fill="none">
<path id="cv_311" class="ZW" d="M2209.19,1298.75l99.46,-0M2212.51,1302.89l92.83,-0M2209.19,1294.6l99.46,-0" />
</g>
</g>
<g class="WNH" id="cv_Block_WNH_82">
<g id="cvclr_312" stroke="#808080" fill="none">
<path id="cv_313" class="ZW" d="M2376.2,1118.89l0,99.46M2380.34,1122.21l0,92.83M2372.05,1118.89l0,99.46" />
</g>
</g>
<g class="WNH" id="cv_Block_WNH_83">
<g id="cvclr_314" stroke="#808080" fill="none">
<path id="cv_315" class="ZW" d="M1831.26,154.99l99.46,-0M1834.57,150.84l92.83,-0M1831.26,159.13l99.46,-0" />
</g>
</g>
<g class="ELEV" id="cv_Block_ELEV_84">
<g id="cvclr_316" stroke="#29A500" fill="none">
<path id="cv_317" class=" ZW" d="M875.64,548.73V658.13H1014.88V548.73H875.64" />
<path id="cv_318" class="ZW" d="M1014.88,658.13L875.64,548.73M875.64,658.13L1014.88,548.73" />
</g>
</g>
<g class="ELEV" id="cv_Block_ELEV_85">
<g id="cvclr_319" stroke="#29A500" fill="none">
<path id="cv_320" class=" ZW" d="M1053.83,548.73V658.13H1193.07V548.73H1053.83" />
<path id="cv_321" class="ZW" d="M1193.07,658.13L1053.83,548.73M1053.83,658.13L1193.07,548.73" />
</g>
</g>
<g class="WNH" id="cv_Block_WNH_86">
<g id="cvclr_322" stroke="#808080" fill="none">
<path id="cv_323" class="ZW" d="M1266.84,20.72l99.46,-0M1270.15,16.58l92.83,-0M1266.84,24.86l99.46,-0" />
</g>
</g>
<g class="WNH" id="cv_Block_WNH_87">
<g id="cvclr_324" stroke="#808080" fill="none">
<path id="cv_325" class="ZW" d="M1001.62,25.69l-99.46,-0M998.3,21.55l-92.83,-0M1001.62,29.84l-99.46,-0" />
</g>
</g>
<g class="WNH" id="cv_Block_WNH_88">
<g id="cvclr_326" stroke="#808080" fill="none">
<path id="cv_327" class="ZW" d="M1179.81,20.72l-99.46,-0M1176.5,16.58l-92.83,-0M1179.81,24.86l-99.46,-0" />
</g>
</g>
<g class="WNH" id="cv_Block_WNH_89">
<g id="cvclr_328" stroke="#808080" fill="none">
<path id="cv_329" class="ZW" d="M1445.03,25.69l99.46,-0M1448.35,21.55l92.83,-0M1445.03,29.84l99.46,-0" />
</g>
</g>
<g class="WNH" id="cv_Block_WNH_90">
<g id="cvclr_330" stroke="#808080" fill="none">
<path id="cv_331" class="ZW" d="M1682.9,154.99l99.46,-0M1686.21,150.84l92.83,-0M1682.9,159.13l99.46,-0" />
</g>
</g>
<g class="WNV" id="cv_Block_WNV_91">
<g id="cvclr_332" stroke="#808080" fill="none">
<path id="cv_333" class="ZW" d="M2425.93,712.36l0,-92M2430.07,623.68l0,85.37M2421.78,712.36l0,-92" />
</g>
</g>
<g class="WNV" id="cv_Block_WNV_92">
<g id="cvclr_334" stroke="#808080" fill="none">
<path id="cv_335" class="ZW" d="M2425.93,840l0,-92M2430.07,751.32l0,85.37M2421.78,840l0,-92" />
</g>
</g>
<g class="WNV" id="cv_Block_WNV_93">
<g id="cvclr_336" stroke="#808080" fill="none">
<path id="cv_337" class="ZW" d="M2425.93,748l0,92M2430.07,836.68l0,-85.37M2421.78,748l0,92" />
</g>
</g>
<g class="WNH" id="cv_Block_WNH_94">
<g id="cvclr_338" stroke="#808080" fill="none">
<path id="cv_339" class="ZW" d="M2376.2,469.11l0,-99.46M2380.34,465.79l0,-92.83M2372.05,469.11l0,-99.46" />
</g>
</g>
<g class="WNH" id="cv_Block_WNH_95">
<g id="cvclr_340" stroke="#808080" fill="none">
<path id="cv_341" class="ZW" d="M2060.84,289.25l99.46,-0M2064.15,285.11l92.83,-0M2060.84,293.4l99.46,-0" />
</g>
</g>
<g class="WNH" id="cv_Block_WNH_96">
<g id="cvclr_342" stroke="#808080" fill="none">
<path id="cv_343" class="ZW" d="M2209.19,289.25l99.46,-0M2212.51,285.11l92.83,-0M2209.19,293.4l99.46,-0" />
</g>
</g>
</g>
</g></svg>