<?xml version="1.0" encoding="utf-8" ?>
<!-- Generated by AutoXChange V20.05.53 from Tailor Made Software -->
<!-- www.tailormade.com -->
<!DOCTYPE svg PUBLIC '-//W3C//DTD SVG 1.0//EN' 
'http://www.w3.org/TR/2001/REC-SVG-20010904/DTD/svg10.dtd'>
<svg contentScriptType="text/ecmascript" xmlns:xlink="http://www.w3.org/1999/xlink" zoomAndPan="magnify" 
contentStyleType="text/css" preserveAspectRatio="xMidYMid meet" 
width="297" height="192.768" viewBox="0 0 297 192.768" 
version="1.1" xmlns="http://www.w3.org/2000/svg" xmlns:cvjs="http://www.tailormade.com/" stroke-linecap="butt" stroke-linejoin="round" fill-rule="evenodd" >
<defs>
	<style id="cv_styles" type = "text/css">
	    <![CDATA[
	    svg{ background-color: white; opacity: 1.}
		:root {
		    --tmsMinLineWidth: 0.1;
		    --tmsHLWidth: 0.1;
		    --tmsNumberOfLayouts: 1;
		    --tmsNumberOfSVGViewports: 0;
         --tmsMinFixedLineWidth: 0.1;
		    --tmsbPostFix: 0;
		}
		.tmsPoints {
		    fill: none;
		    stroke-width: var(--tmsMinLineWidth);
		    r: calc(var(--tmsMinLineWidth)/2.0);
		}
		.ZWhl {
		    stroke-width: var(--tmsHLWidth);
		}
		.ZW {
		    stroke-width: var(--tmsMinLineWidth);
		}
		.ZW6 {
		    stroke-width: calc(var(--tmsMinLineWidth)*6);
		}
		.ZW10 {
		    stroke-width: calc(var(--tmsMinLineWidth)*10);
		}
		.ZW20 {
		    stroke-width: calc(var(--tmsMinLineWidth)*20);
		}
		.ZW100 {
		    stroke-width: calc(var(--tmsMinLineWidth)*100);
		}
		.nZW {
		}
		.sLW_0_1{
		    stroke-width: var(--tmsMinFixedLineWidth);
		}
		.sLW_0_2{
		    stroke-width: calc(var(--tmsMinFixedLineWidth)*2);
		}
		.hyperlinks:hover {
		    stroke-width: 3;
		}
		.hyperimage image{
			opacity: 0;
		}
		.hyperimage:hover image{
			opacity: 1;
		}
		.hyperimage:hover path{
			stroke-width: 3;
		}
		.hyperimage:visited{
			color: red;
		}
		.sLt_CENTER {
		    stroke-dasharray: calc(var(--tmsMinLineWidth)*14169.6) calc(var(--tmsMinLineWidth)*2833.92) calc(var(--tmsMinLineWidth)*2833.92) calc(var(--tmsMinLineWidth)*2833.92);
		}
	]]></style>
	</defs>
<metadata>
<text id="cadviewer_worldUnits">
{ "globalOrigin": { "x": 17.4489, "y" : -258.016}, 
						"units": "in",
						"measurementType": "English",
						"lengthType": "Architectural",
						"lengthPrecision": 4,
						"blockUnitsFormat": "Undefined",
						"svgToWorldUnits": 4.9697,
						"worldToSVGUnits": 0.20122
}
</text>
<text id="cadviewer_drawingCoordinates">
{ "DWG": 
    { "lowerLeft": { "x": 17.4489, "y" : -258.016}, 
      "upperRight": { "x": 1493.45, "y" : 699.984} 
    },
 "SVG": 
    { "lowerLeft": { "x": 0, "y" : 201.384}, 
      "upperRight": { "x": 297, "y" : 8.61585} 
    },
 "Drawing Height": 210
}
</text>
<text id="cadviewer_vqBuilding"></text>
<text id="cadviewer_vqFloor"></text>
<text id="cadviewer_multiPages">
{ "multiPages": 2, 
                   "currentPage":1,
                   "pages" : [
                        { "fileName":"F703429", "pageName":"ModelSpace"},
                        { "fileName":"F703429__Layout01", "pageName":"Layout1"}
                   ]
}
</text>
</metadata>
<g id="cv_main_drawing">
<g id="layer_WA_2D_EXT" class="layer_WA_2D_EXT"  cvjs:layerName="WA-EXT" cvjs:plottable="YES"
 cvjs:status="ON" visibility="visible">
<g id="cvclr_1" stroke="none" fill="#91A552" opacity="1.">
<path id="cv_2" d="M100.81,17.91v-10.87h4.23v-2.82h1.76v-0.6h2.72v-1.01h0.4v-1.41h-7.24v0.6h-3.67v2.82h-0.6v10.87h-1.26v-0.6h-4.43v1.41h0.4v1.01h1.36v0.6h6.34 Z "/>
<path id="cv_3" d="M80.04,14.29h-3.92v0.6h-1.41v1.41h0.4v1.01h5.94v-1.01h0.4v-1.41h-1.41v-0.6 Z "/>
<path id="cv_4" d="M48.7,32.2h6.24v-11.47h4.43v-2.82h1.76v-0.6h1.91v-1.01h0.4v-1.41h-6.64v0.6h-3.67v2.82h-0.6v11.47h-1.16v-0.6h-4.53v1.41h0.4v1.01h1.46v0.6 Z "/>
<path id="cv_5" d="M35.16,30.59v1.01h-5.94v-1.01h-0.4v-1.41h1.41v-0.6h3.92v0.6h1.41v1.41h-0.4 Z "/>
<path id="cv_6" d="M17.36,30.59v-1.41h-6.24v0.6h-3.87v2.82h-0.6v10.26h1.41v-0.4h1.01v-7.45h4.43v-2.82h1.76v-0.6h1.71v-1.01h0.4 Z "/>
<path id="cv_7" d="M5.84,68.01h7.65v-4.83h-4.43v-8.65h-1.01v-0.4h-1.41v8.45h-2.62v0.6h-2.82v3.87h-0.6v7.04h1.41v-0.4h1.01v-3.22h2.82v-2.46 Z "/>
<path id="cv_8" d="M3.02,90.8v-5.94h-1.01v-0.4h-1.41v1.41h-0.6v3.92h0.6v1.41h1.41v-0.4h1.01 Z "/>
<path id="cv_9" d="M9.05,129.59h4.43v-4.83h-7.65v-2.46h-2.82v-3.22h-1.01v-0.4h-1.41v7.04h0.6v3.87h2.82v0.6h2.62v8.45h1.41v-0.4h1.01v-8.65 Z "/>
<path id="cv_10" d="M34.16,164.2h-3.92v-0.6h-1.41v-1.41h0.4v-1.01h5.94v1.01h0.4v1.41h-1.41v0.6 Z "/>
<path id="cv_11" d="M0,106.9v-3.92h0.6v-1.41h1.41v0.4h1.01v5.94h-1.01v0.4h-1.41v-1.41h-0.6 Z "/>
<path id="cv_12" d="M61.12,174.86v0.6h1.91v1.01h0.4v1.41h-6.64v-0.6h-3.67v-2.82h-0.6v-11.47h-1.16v0.6h-4.53v-1.41h0.4v-1.01h1.46v-0.6h6.24v11.47h4.43v2.82h1.76 Z "/>
<path id="cv_13" d="M94.47,174.86h6.34v10.87h4.23v2.82h1.76v0.6h2.72v1.01h0.4v1.41h-7.24v-0.6h-3.67v-2.82h-0.6v-10.87h-1.26v0.6h-4.43v-1.41h0.4v-1.01h1.36v-0.6 Z "/>
<path id="cv_14" d="M128.43,189.75v-0.6h-6.84v1.01h-0.4v1.41h3.12v0.6h7.24v-1.41h-0.4v-1.01h-2.72 Z "/>
<path id="cv_15" d="M151.32,189.75v-4.02h-5.63v4.02h-2.46v1.01h-0.4v1.41h2.87v0.6h5.63v-0.6h2.87v-1.41h-0.4v-1.01h-2.46 Z "/>
<path id="cv_16" d="M202.83,172.85h-6.64v12.88h-4.23v2.82h-1.76v0.6h-2.72v1.01h-0.4v1.41h7.24v-0.6h3.67v-2.82h0.6v-12.88h1.26v0.6h4.83v-1.41h-0.4v-1.01h-1.46v-0.6 Z "/>
<path id="cv_17" d="M172.7,192.16h-7.24v-1.41h0.4v-1.01h2.72v-0.6h6.84v1.01h0.4v1.41h-3.12v0.6 Z "/>
<path id="cv_18" d="M267.17,160.17h-3.92v-0.6h-1.41v-1.41h0.4v-1.01h5.94v1.01h0.4v1.41h-1.41v0.6 Z "/>
<path id="cv_19" d="M242.07,170.03v-13.48h6.64v0.6h1.46v1.01h0.4v1.41h-4.83v-0.6h-1.26v13.48h-0.6v2.82h-3.67v0.6h-6.24v-1.41h0.4v-1.01h1.81v-0.6h1.76v-2.82h4.12 Z "/>
<path id="cv_20" d="M279.85,158.16v1.41h6.04v-0.6h3.87v-2.82h0.6v-8.65h-1.41v0.4h-1.01v5.84h-4.23v2.82h-1.76v0.6h-1.71v1.01h-0.4 Z "/>
<path id="cv_21" d="M151.32,7.04h-5.63v-4.02h-2.46v-1.01h-0.4v-1.41h2.87v-0.6h5.63v0.6h2.87v1.41h-0.4v1.01h-2.46v4.02 Z "/>
<path id="cv_22" d="M221.29,16.3h-3.92v0.6h-1.41v1.41h0.4v1.01h5.94v-1.01h0.4v-1.41h-1.41v-0.6 Z "/>
<path id="cv_23" d="M267.17,32.6h-3.92v0.6h-1.41v1.41h0.4v1.01h5.94v-1.01h0.4v-1.41h-1.41v-0.6 Z "/>
<path id="cv_24" d="M279.85,34.61v-1.41h6.04v0.6h3.87v2.82h0.6v8.65h-1.41v-0.4h-1.01v-5.84h-4.23v-2.82h-1.76v-0.6h-1.71v-1.01h-0.4 Z "/>
<path id="cv_25" d="M297,105.29h-0.6v1.41h-1.41v-0.4h-1.01v-4.33h1.01v-0.4h1.41v1.41h0.6v2.31 Z "/>
<path id="cv_26" d="M124.3,0.6h7.24v1.41h-0.4v1.01h-2.72v0.6h-6.84v-1.01h-0.4v-1.41h3.12v-0.6 Z "/>
<path id="cv_27" d="M172.7,0.6h-7.24v1.41h0.4v1.01h2.72v0.6h6.84v-1.01h0.4v-1.41h-3.12v-0.6 Z "/>
<path id="cv_28" d="M196.19,19.92v-12.88h-4.23v-2.82h-1.76v-0.6h-2.72v-1.01h-0.4v-1.41h7.24v0.6h3.67v2.82h0.6v12.88h1.26v-0.6h4.83v1.41h-0.4v1.01h-1.46v0.6h-6.64 Z "/>
<path id="cv_29" d="M242.07,22.74v13.48h6.64v-0.6h1.46v-1.01h0.4v-1.41h-4.83v0.6h-1.26v-13.48h-0.6v-2.82h-3.67v-0.6h-6.24v1.41h0.4v1.01h1.81v0.6h1.76v2.82h4.12 Z "/>
<path id="cv_30" d="M291.97,70.48v-2.46h-8.45v-4.83h4.43v-6.24h1.01v-0.4h1.41v6.04h2.62v0.6h2.82v3.87h0.6v8.65h-1.41v-0.4h-1.01v-4.83h-2.01 Z "/>
<path id="cv_31" d="M291.97,124.76h-8.45v4.83h4.43v6.24h1.01v0.4h1.41v-6.04h2.62v-0.6h2.82v-3.87h0.6v-8.65h-1.41v0.4h-1.01v4.83h-2.01v2.46 Z "/>
<path id="cv_32" d="M293.98,86.47v4.33h1.01v0.4h1.41v-1.41h0.6v-2.31h-0.6v-1.41h-1.41v0.4h-1.01 Z "/>
<path id="cv_33" d="M243.27,124.15v6.04h-6.04v-6.04h6.04 Z "/>
<path id="cv_34" d="M243.27,62.58h-6.04v6.04h6.04v-6.04 Z "/>
<path id="cv_35" d="M59.16,69.22v-7.24h-4.83v7.24h4.83 Z "/>
<path id="cv_36" d="M150.91,61.98h-4.83v7.24h4.83v-7.24 Z "/>
<path id="cv_37" d="M197.4,61.98v6.64h-6.04v-6.64h6.04 Z "/>
<path id="cv_38" d="M191.36,124.15h5.63v6.04h-5.63v-6.04 Z "/>
<path id="cv_39" d="M105.04,61.98h-4.83v7.24h4.83v-7.24 Z "/>
<path id="cv_40" d="M100.21,123.55h4.83v7.24h-4.83v-7.24 Z "/>
<path id="cv_41" d="M59.16,123.55v7.24h-4.83v-7.24h4.83 Z "/>
<path id="cv_42" d="M146.09,123.55h4.83v7.24h-4.83v-7.24 Z "/>
</g>
<g id="cvclr_43" stroke="none" fill="#B3B3B3" opacity="1.">
M17.56,162.18v1.41h-6.44v-0.6h-3.87v-2.82h-0.6v-10.26h1.41v0.4h1.01v7.45h4.63v2.82h1.76v0.6h1.71v1.01h0.4 Z "/>
</g>
<g id="cvclr_44" stroke="#91A552" fill="none">
<path id="cv_45" class=" ZW" d="M0,106.9h0.6v1.41h1.41v-0.4h1.01v-5.94h-1.01v-0.4h-1.41v1.41l54.33,57.6l6.19,14.89v-0.6h-1.76v-2.82h-4.43l-2.35,-11.47h-3.88v0.6h-1.46v1.01h-0.4v1.41h4.53v-0.6h1.16v11.47h0.6v2.82h3.67v0.6h6.64v-1.41h-0.4v-1.01" />
</g>
<g id="cvclr_46" stroke="#000" fill="none">
<path id="cv_47" class="ZW" d="M6.64,130.19l0,8.45M9.05,138.24l-0,-8.65M6.64,138.64h1.41l0,-0.4h1.01M1.21,125.71l0,3.87h2.82l0,0.6h2.62M5.84,122.29h-2.82M0.6,118.67l0,7.04M3.02,122.29l0,-3.22M0.6,125.71h0.6M2.01,119.07l0,-0.4M3.02,119.07h-1.01M2.01,118.67h-1.41M5.84,124.76l0,-2.46M6.64,62.58l0,-8.45M9.05,54.53l-0,8.65M0.6,74.1l0,-7.04M5.84,68.01l0,2.46h-2.82l0,3.22M2.01,73.7l0,0.4h-1.41M3.02,73.7h-1.01M1.21,63.18h2.82M0.6,67.06h0.6l0,-3.87M4.02,63.18l0,-0.6h2.62M6.64,54.13h1.41l0,0.4h1.01M151.32,192.77h-5.63M151.32,185.73h-5.63M145.68,189.75l0,-4.02M143.22,189.75h2.46M143.22,190.76l0,-1.01M142.82,190.76h0.4M142.82,192.16l0,-1.41M142.82,192.16h2.87M145.68,192.77l0,-0.6M153.78,190.76l0,-1.01h-2.46M154.18,190.76h-0.4M154.18,192.16l0,-1.41M154.18,192.16h-2.87M151.32,192.77l0,-0.6M290.36,130.19l0,6.04M288.95,136.23l0,-0.4M290.36,136.23h-1.41M295.79,125.71l0,3.87M287.95,135.82l0,-6.24M288.95,135.82h-1.01M295.79,129.59h-2.82M292.98,130.19h-2.62M292.98,129.59l0,0.6M296.4,117.06l0,8.65M293.98,122.29l0,-4.83M291.97,122.29h2.01M296.4,125.71h-0.6M294.99,117.06h1.41M294.99,117.46l0,-0.4M293.98,117.46h1.01M197.4,61.98h-6.04M145.68,0l0,0.6M151.32,0l0,0.6M145.68,3.02l0,4.02M143.22,3.02h2.46M143.22,2.01l0,1.01M142.82,2.01h0.4M142.82,0.6h2.87M142.82,0.6l0,1.41M151.32,3.02l0,4.02M153.78,2.01l0,1.01h-2.46M154.18,2.01h-0.4M154.18,0.6h-2.87M154.18,0.6l0,1.41M151.32,0h-5.63M287.95,56.95l0,6.24M290.36,62.58l0,-6.04M296.4,75.71l0,-8.65M293.98,70.48l0,4.83h1.01l0,0.4h1.41M292.98,63.18l0,-0.6M295.79,63.18h-2.82M296.4,67.06h-0.6l0,-3.87M292.98,62.58h-2.62M290.36,56.54h-1.41M288.95,56.95h-1.01M288.95,56.54l0,0.4M151.32,189.75l0,-4.02M151.32,7.04h-5.63M190.2,3.62h-2.72l0,-1.01h-0.4l0,-1.41h7.24l0,0.6h3.67l0,2.82h0.6l0,12.88h1.26l0,-0.6h4.83l0,1.41h-0.4l0,1.01h-1.46l0,0.6M196.19,7.04h-4.23l0,-2.82h-1.76l0,-0.6M237.24,68.62h6.04M237.24,68.62l0,-6.04M242.07,22.74h-4.12l0,-2.82h-1.76l0,-0.6M283.52,68.01l0,-4.83M287.95,63.18h-4.43M293.98,70.48h-2.01M237.24,124.15h6.04M243.27,130.19h-6.04l0,-6.04M236.18,173.45h-1.81l0,1.01h-0.4l0,1.41h6.24l0,-0.6h3.67l0,-2.82h0.6l0,-13.48h1.26l0,0.6h4.83l0,-1.41h-0.4l0,-1.01h-1.46l0,-0.6h-6.64M242.07,170.03h-4.12l0,2.82h-1.76l0,0.6M196.99,124.15l0,6.04M131.55,192.16l0,-1.41h-0.4l0,-1.01h-2.72M128.43,189.15h-6.84l0,1.01h-0.4l0,1.41h3.12l0,0.6h7.24M59.16,130.79h-4.83M191.36,61.98l-0,6.64M106.8,3.62h2.72l0,-1.01h0.4l0,-1.41h-7.24l0,0.6h-3.67l0,2.82h-0.6l0,10.87h-1.26l0,-0.6h-4.43l0,1.41h0.4l0,1.01h1.36l0,0.6h6.34M100.81,7.04h4.23l0,-2.82h1.76l0,-0.6M76.11,14.29l0,0.6h-1.41l0,1.41h0.4l-0,1.01h5.94l0,-1.01h0.4l0,-1.41h-1.41l0,-0.6h-3.92M165.45,0.6l0,1.41h0.4l0,1.01h2.72l0,0.6h6.84l0,-1.01h0.4l0,-1.41h-3.12l0,-0.6h-7.24M202.83,19.92h-6.64M243.27,62.58l0,6.04M236.18,19.32h-1.81l0,-1.01h-0.4l0,-1.41h6.24l0,0.6h3.67l0,2.82h0.6l0,13.48h1.26l0,-0.6h4.83l0,1.41h-0.4l0,1.01h-1.46l0,0.6h-6.64M242.07,22.74l0,13.48M243.27,62.58h-6.04M197.4,68.62h-6.04M291.97,68.01h-8.45M291.97,70.48l0,-2.46M291.97,122.29l0,2.46M283.52,124.76l0,4.83h4.43M243.27,124.15l0,6.04M242.07,170.03l0,-13.48M131.55,0.6l0,1.41h-0.4l0,1.01h-2.72l0,0.6h-6.84M61.12,17.3h1.91l0,-1.01h0.4l0,-1.41h-6.64l0,0.6h-3.67l0,2.82h-0.6l0,11.47h-1.16l0,-0.6h-4.53l0,1.41h0.4l0,1.01h1.46l0,0.6M54.93,32.2l0,-11.47h4.43l0,-2.82h1.76l0,-0.6M196.99,130.19h-5.63l0,-6.04M61.12,175.46h1.91l0,1.01h0.4l0,1.41h-6.64l0,-0.6h-3.67l0,-2.82h-0.6l0,-11.47h-1.16l0,0.6h-4.53l0,-1.41h0.4l0,-1.01h1.46l0,-0.6h6.24l0,11.47h4.43l0,2.82h1.76l0,0.6M197.4,61.98l0,6.64M128.43,189.75l0,-0.6M48.7,32.2h6.24M291.97,124.76h-8.45M76.11,178.48l0,-0.6h-1.41l0,-1.41h0.4l0,-1.01h5.94l0,1.01h0.4l0,1.41h-1.41l0,0.6h-3.92M17.56,163.59h-6.44l0,-0.6h-3.87l0,-2.82h-0.6l0,-10.26h1.41l0,0.4h1.01l0,7.45h4.63l0,2.82h1.76l0,0.6h1.71l0,1.01h0.4l0,1.41M5.84,124.76h7.65l0,4.83M9.05,129.59h4.43M30.23,164.2l0,-0.6h-1.41l0,-1.41h0.4l0,-1.01h5.94l0,1.01h0.4l0,1.41h-1.41l0,0.6h-3.92M54.33,130.79l0,-7.24h4.83l0,7.24M-0,102.97h0.6l0,-1.41h1.41l0,0.4h1.01l0,5.94h-1.01l0,0.4h-1.41l0,-1.41h-0.6l0,-3.92M3.02,84.86h-1.01l0,-0.4h-1.41l0,1.41h-0.6l0,3.92h0.6l0,1.41h1.41l0,-0.4h1.01l0,-5.94M13.48,68.01l0,-4.83M9.05,63.18h4.43M5.84,68.01h7.65M59.16,61.98h-4.83l0,7.24h4.83l-0,-7.24M17.36,29.18h-6.24l0,0.6h-3.87l0,2.82h-0.6l0,10.26h1.41l0,-0.4h1.01l0,-7.45h4.43l0,-2.82h1.76l0,-0.6h1.71l0,-1.01h0.4l0,-1.41M35.16,31.59h-5.94l0,-1.01h-0.4l0,-1.41h1.41l0,-0.6h3.92l0,0.6h1.41l0,1.41h-0.4l0,1.01M217.37,176.47l0,-0.6h-1.41l0,-1.41h0.4l0,-1.01h5.94l0,1.01h0.4l0,1.41h-1.41l0,0.6h-3.92M100.81,174.86l0,10.87h4.23l0,2.82h1.76l0,0.6h2.72l0,1.01h0.4l0,1.41h-7.24l0,-0.6h-3.67l0,-2.82h-0.6l0,-10.87h-1.26l0,0.6h-4.43l0,-1.41h0.4l0,-1.01h1.36l0,-0.6h6.34M105.04,130.79h-4.83M105.04,123.55l0,7.24M100.21,130.79l0,-7.24h4.83M150.91,123.55l0,7.24h-4.83l0,-7.24h4.83M165.45,192.16l0,-1.41h0.4l0,-1.01h2.72l0,-0.6h6.84l0,1.01h0.4l0,1.41h-3.12l0,0.6h-7.24M196.19,172.85l0,12.88h-4.23l0,2.82h-1.76l0,0.6h-2.72l0,1.01h-0.4l0,1.41h7.24l0,-0.6h3.67l0,-2.82h0.6l0,-12.88h1.26l0,0.6h4.83l0,-1.41h-0.4l0,-1.01h-1.46l0,-0.6h-6.64M191.36,124.15h5.63M279.85,159.57h6.04l0,-0.6h3.87l0,-2.82h0.6l0,-8.65h-1.41l0,0.4h-1.01l0,5.84h-4.23l0,2.82h-1.76l0,0.6h-1.71l0,1.01h-0.4l0,1.41M263.25,160.17l0,-0.6h-1.41l0,-1.41h0.4l0,-1.01h5.94l0,1.01h0.4l0,1.41h-1.41l0,0.6h-3.92M217.37,16.3l0,0.6h-1.41l0,1.41h0.4l0,1.01h5.94l0,-1.01h0.4l0,-1.41h-1.41l0,-0.6h-3.92M100.21,61.98l0,7.24h4.83l0,-7.24h-4.83M146.09,69.22h4.83l0,-7.24M146.09,61.98l0,7.24M150.91,61.98h-4.83M121.59,3.62l0,-1.01h-0.4l0,-1.41h3.12l0,-0.6h7.24M279.85,33.2h6.04l0,0.6h3.87l0,2.82h0.6l0,8.65h-1.41l0,-0.4h-1.01l0,-5.84h-4.23l0,-2.82h-1.76l0,-0.6h-1.71l0,-1.01h-0.4l0,-1.41M296.4,105.29l0,1.41h-1.41l0,-0.4h-1.01l-0,-4.33h1.01l0,-0.4h1.41l0,1.41h0.6l0,2.31h-0.6M294.99,91.2h1.41l0,-1.41h0.6l0,-2.31h-0.6l0,-1.41h-1.41l0,0.4h-1.01l-0,4.33M263.25,32.6l0,0.6h-1.41l0,1.41h0.4l0,1.01h5.94l0,-1.01h0.4l0,-1.41h-1.41l0,-0.6h-3.92M100.81,17.91l0,-10.87M196.19,19.92l0,-12.88" />
</g>
<g style="font-family: arial, helvetica, sans-serif" stroke="none" fill="#7F0000">
<g font-size="17.3491" stroke="none" fill="#7F0000">
<text id="cv_48" x="59.4" y="154.21" transform="rotate(330 59.4 154.21) translate(59.4 -154.21) scale(1.11111 1) translate(-59.4 154.21) " >For Demonstration Purposes Only</text>
<text id="cv_49" x="118.8" y="154.21" transform="rotate(330 118.8 154.21) translate(118.8 -154.21) scale(1.11111 1) translate(-118.8 154.21) " >Tailor Made Software, Ltd</text>
</g>
</g>
</g>
<g id="layer_WA" class="layer_WA"  cvjs:layerName="WA" cvjs:plottable="YES"
 cvjs:status="ON" visibility="visible">
<g id="cvclr_50" stroke="#FF7F00" fill="none">
<path id="cv_51" class="ZW" d="M13.48,127.17h27.57M39.84,125.96h1.21M41.05,127.17l0,-1.21M48.29,127.17l0,-1.21M49.5,125.96h-1.21M54.33,127.17h-6.04M39.84,66.8h1.21l0,-1.21M47.09,66.8l0,-1.21M49.5,66.8h-2.41M166.91,110.47h-2.82M166.91,111.27h-2.82M152.52,111.27h4.33l0,-0.8M164.09,111.27l0,-0.8M166.91,95.46h0.8M167.72,96.38l0,-0.92M166.91,100.81l0,-5.35M54.33,130.79l0,-3.62M166.91,110.47l0,-2.41M140.6,110.47h16.25M166.91,83.39h0.8M167.72,82.3l0,1.09M166.91,83.39l0,-1.09h-2.72M33.7,65.6h7.34M54.33,65.6h-7.24M100.21,128.38h-41.05M103.83,134.11h-28.98M105.04,132.91h-28.98M100.21,129.59h-24.15M110.52,110.47h-15.8M102.02,111.68h-7.29M100.21,64.39h-41.05M100.21,63.18h-41.05M110.52,82.3h-15.8M102.02,81.09h-7.29M39.84,118.41l0,-31.89M56.14,123.55l0,-11.87M57.35,123.55l0,-11.87M49.5,125.96l0,-15.49M50.71,125.96l0,-14.29M31.79,116.91l0,-11.07M38.63,125.96h-25.15M39.83,127.17h-26.35M6.64,130.19l0,8.45M9.05,138.24l0,-8.65M6.64,138.64h1.41l0,-0.4h1.01M1.21,125.71l0,3.87h2.82l0,0.6h2.62M5.84,122.29h-2.82M0.6,118.67l0,7.04M3.02,122.29l0,-3.22M0.6,125.71h0.6M2.01,119.07l0,-0.4M3.02,119.07h-1.01M2.01,118.67h-1.41M5.84,124.76l0,-2.46M74.85,129.59h-15.7M39.84,124.45l0,1.51M38.63,116.91h-6.84M38.63,125.96l0,-1.51h1.21M38.63,118.41l0,-1.51M38.63,118.41h1.21M54.33,125.96h-3.62M74.85,129.59l0,4.53M76.06,129.59l0,3.32M32.09,65.6l0,-34.01M33.7,65.6l0,-34.01M31.79,104.63h-28.77M31.79,105.84h-28.77M38.63,78.88h-26.92M38.63,77.67h-27.42M3.02,85.87l8.2,-8.2M3.02,87.58l8.7,-8.7M6.64,62.58l0,-8.45M9.05,54.53l0,8.65M0.6,74.1l0,-7.04M5.84,68.01l0,2.46h-2.82l0,3.22M2.01,73.7l0,0.4h-1.41M3.02,73.7h-1.01M1.21,63.18h2.82M0.6,67.06h0.6l0,-3.87M4.02,63.18l0,-0.6h2.62M23.64,65.6h-10.16M23.64,66.8h-10.16M23.64,65.6l0,1.21M6.64,54.13h1.41l0,0.4h1.01M56.14,69.22l0,11.87M57.35,69.22l0,11.87M39.84,80.49l0,-4.63M49.5,75.26l0,7.04M50.71,75.26l0,5.84M64.44,111.68h-7.09M64.44,110.47h-14.94M64.64,82.3h-15.14M64.64,81.09h-7.29M38.63,100.01l0,-13.48M33,115.7l0,-14.49M38.63,115.7l0,-14.49M38.63,115.7h-5.63M38.63,101.21h-5.63M38.63,100.01h-6.84M31.79,104.63l0,-4.63M56.14,111.68h-5.43M38.63,86.52h1.21M38.63,80.49l0,-1.61M38.63,80.49h1.21M56.14,81.09h-5.43M86.27,111.68h-12.98M86.27,110.47h-12.98M64.44,111.68l0,-1.21M73.29,111.68l0,-1.21M86.27,111.68l0,-1.21M94.72,111.68l0,-1.21M86.27,81.09h-13.18M86.27,82.3h-13.18M64.64,81.09l0,1.21M73.09,81.09l0,1.21M86.27,81.09l0,1.21M94.72,81.09l0,1.21M38.63,68.62l0,-1.81M39.84,68.62l0,-1.81M38.63,77.67l0,-1.81h1.21M38.63,68.62h1.21M38.63,66.8h-7.75M32.09,65.6h-1.21l0,1.21M49.5,75.26h1.21M54.33,66.8h-3.62M49.5,68.01h1.21M49.5,66.8l0,1.21M50.71,66.8l0,1.21M103.23,123.55l0,-11.87M102.02,123.55l0,-11.87M152.52,127.77l0,-16.5M151.32,126.57l0,-14.89M149.1,123.55l0,-11.87M147.9,123.55l0,-11.87M166.91,127.77l0,-16.5M168.12,126.57l0,-18.51M200.41,110.89l0,19.3M199.6,111.69l0,12.46M193.17,124.15l0,-26.56M194.38,124.15l0,-12.46M151.32,192.77h-5.63M151.32,185.73h-5.63M145.68,189.75l0,-4.02M143.22,189.75h2.46M143.22,190.76l0,-1.01M142.82,190.76h0.4M142.82,192.16l0,-1.41M142.82,192.16h2.87M145.68,192.77l0,-0.6M151.32,189.75l0,-4.02M153.78,190.76l0,-1.01h-2.46M154.18,190.76h-0.4M154.18,192.16l0,-1.41M154.18,192.16h-2.87M151.32,192.77l0,-0.6M146.09,128.38h-41.05M114.7,129.59h-9.66M115.9,135.32h-12.07M114.7,134.11h-9.66M103.83,134.11l0,1.21M105.04,132.91l0,1.21M115.9,129.59l0,5.73M114.7,129.59l0,4.53M152.52,127.77h-1.61M151.32,126.57h-0.4M191.36,127.77h-24.45M191.36,126.57h-23.24M200.41,130.19h-3.01M199.6,129.38h-2.2M197.4,124.15h2.2M197.4,124.96h2.2M290.36,130.19l0,6.04M288.95,136.23l0,-0.4M290.36,136.23h-1.41M295.79,125.71l0,3.87M287.95,135.82l0,-6.24M288.95,135.82h-1.01M295.79,129.59h-2.82M292.98,130.19h-2.62M292.98,129.59l0,0.6M296.4,117.06l0,8.65M293.98,122.29l0,-4.83M291.16,122.29h2.82M291.16,124.76l0,-2.46M296.4,125.71h-0.6M294.99,117.06h1.41M294.99,117.46l0,-0.4M293.98,117.46h1.01M165.4,63.18h-14.49M175.06,61.98h-24.15M103.23,69.22l0,11.87M102.02,69.22l0,11.87M147.9,69.22l0,11.87M149.1,69.22l0,11.87M132.15,110.47h-13.18M132.15,111.68h-13.18M132.15,82.3h-13.18M132.15,81.09h-13.18M110.52,111.68h-7.29M110.52,111.68l0,-1.21M118.97,111.68l0,-1.21M110.52,81.09h-7.29M110.52,81.09l0,1.21M118.97,81.09l0,1.21M147.9,111.68h-7.29M132.15,111.68l0,-1.21M140.6,111.68l0,-1.21M151.32,111.68h-2.21M156.95,82.3h-16.35M147.9,81.09h-7.29M132.15,81.09l0,1.21M140.6,81.09l0,1.21M156.95,81.09h-7.85M156.94,82.31l0,-1.22M146.09,64.39h-41.05M146.09,63.18h-30.18M103.83,61.98l0,-5.23M105.04,61.98l0,-4.02M114.7,63.18l0,-5.23M115.9,63.18l0,-6.44M114.7,57.95h-9.66M115.9,56.74h-12.07M166.61,81.09l0,-17.91M165.4,81.09l0,-17.91M175.06,82.3l0,-4.8M173.85,81.09l0,-3.59M194.38,111.69h5.22M194.38,110.89h6.03M166.91,100.81l0,-4.43M193.17,97.59h-25.05M168.12,108.05h-1.21M168.12,100.81h-1.21M168.12,100.81l0,-3.22M194.38,96.38h-26.66M173.85,81.09h-7.24M175.06,82.3h-7.34M164.2,82.31l0,-1.22M165.4,81.09h-1.21M175.06,70.25l0,-8.28M173.85,70.25l-0,-7.07M175.06,77.5h-1.21M175.06,70.25h-1.21M173.85,63.18h-7.24M145.68,-0l0,0.6M151.32,-0l0,0.6M151.32,7.04h-5.63M145.68,3.02l0,4.02M143.22,3.02h2.46M143.22,2.01l0,1.01M142.82,2.01h0.4M142.82,0.6h2.87M142.82,0.6l0,1.41M151.32,3.02l0,4.02M153.78,2.01l0,1.01h-2.46M154.18,2.01h-0.4M154.18,0.6h-2.87M154.18,0.6l0,1.41M151.32,-0h-5.63M287.95,56.95l0,6.24M290.36,62.58l0,-6.04M296.4,75.71l0,-8.65M291.16,68.01l0,2.46M293.98,70.48l0,4.83h1.01l0,0.4h1.41M291.16,70.48h2.82M292.98,63.18l0,-0.6M295.79,63.18h-2.82M296.4,67.06h-0.6l0,-3.87M292.98,62.58h-2.62M290.36,56.54h-1.41M288.95,56.95h-1.01M288.95,56.54l0,0.4M114.7,63.18h-9.66M194.38,110.89l0,-14.5M199.6,124.96l0,4.43M17.56,163.59h-6.44l0,-0.6h-3.87l0,-2.82h-0.6l0,-10.26h1.41l0,0.4h1.01l0,7.45h4.63l0,2.82h1.76l0,0.6h1.71l0,1.01h0.4l0,1.41M5.84,124.76h7.65l0,1.21M13.48,127.17l0,2.41M9.05,129.59h4.43M61.12,175.46h1.91l0,1.01h0.4l0,1.41h-6.64l0,-0.6h-3.67l0,-2.82h-0.6l0,-11.47h-1.16l0,0.6h-4.53l0,-1.41h0.4l0,-1.01h1.46l0,-0.6h6.24l0,11.47h4.43l0,2.82h1.76l0,0.6M30.23,164.2l0,-0.6h-1.41l0,-1.41h0.4l0,-1.01h5.94l0,1.01h0.4l0,1.41h-1.41l0,0.6h-3.92M76.11,178.48l0,-0.6h-1.41l0,-1.41h0.4l0,-1.01h5.94l0,1.01h0.4l0,1.41h-1.41l0,0.6h-3.92M59.16,129.59l0,1.21h-4.83M54.33,125.96l0,-2.41h1.81M57.35,123.55h1.81l0,4.83M0,102.97h0.6l0,-1.41h1.41l0,0.4h1.01l0,2.67M3.02,105.84l0,2.06h-1.01l0,0.4h-1.41l0,-1.41h-0.6l0,-3.92M3.02,85.87l0,-1.01h-1.01l0,-0.4h-1.41l0,1.41h-0.6l0,3.92h0.6l0,1.41h1.41l0,-0.4h1.01l0,-3.22M13.48,65.6l0,-2.41M9.05,63.18h4.43M5.84,68.01h7.65l0,-1.21M59.16,63.18l0,-1.21h-4.83l0,3.62M54.33,66.8l0,2.41h1.81M57.35,69.22h1.81l0,-4.83M17.36,29.18h-6.24l0,0.6h-3.87l0,2.82h-0.6l0,10.26h1.41l0,-0.4h1.01l0,-7.45h4.43l0,-2.82h1.76l0,-0.6h1.71l0,-1.01h0.4l0,-1.41M61.12,17.3h1.91l0,-1.01h0.4l0,-1.41h-6.64l0,0.6h-3.67l0,2.82h-0.6l0,11.47h-1.16l0,-0.6h-4.53l0,1.41h0.4l0,1.01h1.46l0,0.6h6.24l0,-11.47h4.43l0,-2.82h1.76l0,-0.6M32.09,31.59h-2.87l0,-1.01h-0.4l0,-1.41h1.41l0,-0.6h3.92l0,0.6h1.41l0,1.41h-0.4l0,1.01h-1.46M76.11,14.29l0,0.6h-1.41l0,1.41h0.4l0,1.01h5.94l0,-1.01h0.4l0,-1.41h-1.41l0,-0.6h-3.92M217.37,176.47l0,-0.6h-1.41l0,-1.41h0.4l0,-1.01h5.94l0,1.01h0.4l0,1.41h-1.41l0,0.6h-3.92M131.55,192.16l0,-1.41h-0.4l0,-1.01h-2.72l0,-0.6h-6.84l0,1.01h-0.4l0,1.41h3.12l0,0.6h7.24M106.8,189.15h2.72l0,1.01h0.4l0,1.41h-7.24l0,-0.6h-3.67l0,-2.82h-0.6l0,-10.87h-1.26l0,0.6h-4.43l0,-1.41h0.4l0,-1.01h1.36l0,-0.6h6.34l0,10.87h4.23l0,2.82h1.76l0,0.6M146.09,129.59h-30.18M100.21,130.79l0,-1.21M105.04,129.59l0,1.21h-4.83M103.23,123.55h1.81l0,4.83M100.21,128.38l0,-4.83h1.81M150.91,127.77l0,3.02h-4.83l0,-7.24h1.81M149.1,123.55h1.81l0,3.02M165.45,192.16l0,-1.41h0.4l0,-1.01h2.72l0,-0.6h6.84l0,1.01h0.4l0,1.41h-3.12l0,0.6h-7.24M190.2,189.15h-2.72l0,1.01h-0.4l0,1.41h7.24l0,-0.6h3.67l0,-2.82h0.6l0,-12.88h1.26l0,0.6h4.83l0,-1.41h-0.4l0,-1.01h-1.46l0,-0.6h-6.64l0,12.88h-4.23l0,2.82h-1.76l0,0.6M197.4,130.19h-6.04l0,-2.41M194.38,124.15h3.02M191.36,126.57l0,-2.41h1.81M197.4,124.96l0,4.43M291.16,124.76h-7.65l0,4.83M287.95,129.59h-4.43M279.85,159.57h6.04l0,-0.6h3.87l0,-2.82h0.6l0,-8.65h-1.41l0,0.4h-1.01l0,5.84h-4.23l0,2.82h-1.76l0,0.6h-1.71l0,1.01h-0.4l0,1.41M263.25,160.17l0,-0.6h-1.41l0,-1.41h0.4l0,-1.01h5.94l0,1.01h0.4l0,1.41h-1.41l0,0.6h-3.92M236.18,173.45h-1.81l0,1.01h-0.4l0,1.41h6.24l0,-0.6h3.67l0,-2.82h0.6l0,-13.48h1.26l0,0.6h4.83l0,-1.41h-0.4l0,-1.01h-1.46l0,-0.6h-6.64l0,13.48h-4.12l0,2.82h-1.76l0,0.6M237.24,124.15h6.04l0,6.04h-6.04l0,-6.04M217.37,16.3l0,0.6h-1.41l0,1.41h0.4l0,1.01h5.94l0,-1.01h0.4l0,-1.41h-1.41l0,-0.6h-3.92M100.21,64.39l0,4.83h4.83l0,-4.83M103.83,61.98h-3.62l0,1.21M105.04,63.18l0,-1.21M149.1,69.22h1.81l0,-6.04M146.09,64.39l0,4.83h1.81M150.91,61.98h-4.83l0,1.21M191.36,68.62h6.04l0,-6.04h-6.04l0,6.04M106.8,3.62h2.72l0,-1.01h0.4l0,-1.41h-7.24l0,0.6h-3.67l0,2.82h-0.6l0,10.87h-1.26l0,-0.6h-4.43l0,1.41h0.4l0,1.01h1.36l0,0.6h6.34l0,-10.87h4.23l0,-2.82h1.76l0,-0.6M131.55,0.6l0,1.41h-0.4l0,1.01h-2.72l0,0.6h-6.84l0,-1.01h-0.4l0,-1.41h3.12l0,-0.6h7.24M190.2,3.62h-2.72l0,-1.01h-0.4l0,-1.41h7.24l0,0.6h3.67l0,2.82h0.6l0,12.88h1.26l0,-0.6h4.83l0,1.41h-0.4l0,1.01h-1.46l0,0.6h-6.64l0,-12.88h-4.23l0,-2.82h-1.76l0,-0.6M165.45,0.6l0,1.41h0.4l0,1.01h2.72l0,0.6h6.84l0,-1.01h0.4l0,-1.41h-3.12l0,-0.6h-7.24M279.85,33.2h6.04l0,0.6h3.87l0,2.82h0.6l0,8.65h-1.41l0,-0.4h-1.01l0,-5.84h-4.23l0,-2.82h-1.76l0,-0.6h-1.71l0,-1.01h-0.4l0,-1.41M291.16,68.01h-7.65l0,-4.83M287.95,63.18h-4.43M237.24,68.62h6.04l0,-6.04h-6.04l0,6.04M296.4,105.29l0,1.41h-1.41l0,-0.4h-1.01l0,-4.33h1.01l0,-0.4h1.41l0,1.41h0.6l0,2.31h-0.6M296.4,87.48l0,-1.41h-1.41l0,0.4h-1.01l0,4.33h1.01l0,0.4h1.41l0,-1.41h0.6l0,-2.31h-0.6M236.18,19.32h-1.81l0,-1.01h-0.4l0,-1.41h6.24l0,0.6h3.67l0,2.82h0.6l0,13.48h1.26l0,-0.6h4.83l0,1.41h-0.4l0,1.01h-1.46l0,0.6h-6.64l0,-13.48h-4.12l0,-2.82h-1.76l0,-0.6M263.25,32.6l0,0.6h-1.41l0,1.41h0.4l0,1.01h5.94l0,-1.01h0.4l0,-1.41h-1.41l0,-0.6h-3.92" />
</g>
<g style="font-family: arial, helvetica, sans-serif" stroke="none" fill="#7F0000">
<g font-size="17.3491" stroke="none" fill="#7F0000">
<text id="cv_52" x="59.4" y="154.21" transform="rotate(330 59.4 154.21) translate(59.4 -154.21) scale(1.11111 1) translate(-59.4 154.21) " >For Demonstration Purposes Only</text>
<text id="cv_53" x="118.8" y="154.21" transform="rotate(330 118.8 154.21) translate(118.8 -154.21) scale(1.11111 1) translate(-118.8 154.21) " >Tailor Made Software, Ltd</text>
</g>
</g>
</g>
<g id="layer_RM_24_" class="layer_RM_24_"  cvjs:layerName="RM$" cvjs:plottable="YES"
 cvjs:status="ON" visibility="visible">
<g id="cvclr_54" stroke="#007CA5" fill="none">
<path id="cv_55" class=" ZW" d="M39.64,127.17h-26.16v2.41h-4.43v30.99h6.39v0.6h24.2v-34.01M54.73,146.09v14.49h0.2v14.29h6.19v0.6h33.35v-0.6h6.54v-28.77h-46.28M123.15,146.09h-22.13v19.72h22.13v-19.72M101.01,165.8v19.72h22.13v-19.72h-22.13M157.76,146.09h-22.13v19.72h22.13v-19.72M157.76,165.8h-22.13v19.72h22.13v-19.72M179.89,165.8h-22.13v19.72h22.13v-19.72M179.89,146.09h-22.13v19.72h22.13v-19.72M234.62,108.26v-19.72h-22.13v19.72h22.13M234.62,68.82h-22.13v19.72h22.13v-19.72M234.62,88.54h22.13v-19.72h-22.13v19.72M234.62,108.26h22.13v-19.72h-22.13v19.72M242.27,124.35h-19.72v17.5h19.72v-17.5M242.27,156.55v-14.69h-45.88v30.99h6.44v0.6h33.35v-0.6h5.89v-16.3h0.2M287.95,124.96h-35.21v-0.6h-10.46v32.2h6.44v0.6h33.25v-0.6h5.99v-31.59M267.93,96.59v28.37h20.01v-0.2h3.22v-2.46h2.82v-25.71h-26.05M267.93,96.59h26.05v-26.11h-2.82v-2.46h-3.22v-0.2h-20.01v28.77M248.71,35.62v0.6h-6.44v32.6h14.49v-1.01h31.19v-31.59h-5.99v-0.6h-33.25M242.27,47.28v-11.06h-0.2v-16.3h-5.89v-0.6h-33.35v0.6h-6.44v27.36h45.88M179.89,46.68v-19.72h-22.13v19.72h22.13M157.76,46.68v-19.72h-22.13v19.72h22.13M135.62,26.96h22.13v-19.72h-22.13v19.72M123.15,46.68v-19.72h-22.13v19.72h22.13M123.15,26.96v-19.72h-22.13v19.72h22.13M73.06,46.68h27.95v-28.77h-6.54v-0.6h-21.41v29.38M73.06,17.3h-11.94v0.6h-6.19v14.29h-1.19v14.49h19.32v-29.38M157.76,26.96h22.13v-19.72h-22.13v19.72M165.4,82.3v-20.32h9.66v20.32h-9.66M115.9,129.59h-41.05v4.53h28.98v1.21h12.07v-5.73M165.4,61.98h-14.49v7.24h-1.81v13.08h16.3v-20.32M56.14,69.22h-1.81v-3.62h-4.83v16.7h6.64v-13.08M39.84,100.01h-8.05v16.9h8.05v-16.9M31.79,105.24h-28.77v17.05h2.82v2.46h3.22v4.83h4.43v-2.41h26.36v-10.26h-8.05v-11.67M39.84,78.27h-28.37l-8.45,8.45v18.51h28.77v-5.23h8.05v-21.73M39.84,65.6h-6.14v1.21h-20.22v1.21h-7.65v2.46h-2.82v16.25l8.45,-8.45h28.37v-12.68M33.7,31.59h-18.46v0.6h-6.19v35.82h4.43v-1.21h20.22v-1.21v-34.01M167.31,82.3H49.5v-16.7h-9.66v61.57h9.66v-16.7H152.52v0.4h14.39v-14.49h0.4v-14.09M79.68,82.3v-19.12h-20.52v-1.21h-4.83v7.24h1.81v13.08h23.54M102.62,82.3v-13.08h2.41v-7.24h-4.83v1.21h-20.52v19.12h22.94M125.56,82.3v-19.12h-20.52v6.04h-2.41v13.08h22.94M149.1,82.3v-13.08h1.81v-7.24h-4.83v1.21h-20.52v19.12h23.54M125.56,129.59v-19.12h26.96v17.3h-1.61v3.02h-4.83v-1.21h-20.52M102.62,110.47h22.94v19.12h-22.94v-19.12M79.68,110.47h22.94v19.12h-22.94v-19.12M56.14,110.47v13.08h3.02v6.04h20.52v-19.12h-23.54M115.9,56.74h-12.07v5.23h1.21v1.21h10.87v-6.44M194.38,110.89v-14.5h-27.47v31.39h24.45v2.41h5.63v-6.04h-2.62v-13.26M200.41,110.89h-6.03v13.26h2.62v0.8h3.41v-14.07M59.16,123.55h-3.02v-13.08h-6.64v16.7h4.83v3.62h4.83v-1.21v-6.04" />
</g>
<g style="font-family: arial, helvetica, sans-serif" stroke="none" fill="#7F0000">
<g font-size="17.3491" stroke="none" fill="#7F0000">
<text id="cv_56" x="59.4" y="154.21" transform="rotate(330 59.4 154.21) translate(59.4 -154.21) scale(1.11111 1) translate(-59.4 154.21) " >For Demonstration Purposes Only</text>
<text id="cv_57" x="118.8" y="154.21" transform="rotate(330 118.8 154.21) translate(118.8 -154.21) scale(1.11111 1) translate(-118.8 154.21) " >Tailor Made Software, Ltd</text>
</g>
</g>
</g>
<g id="layer_GROS_24_" class="layer_GROS_24_"  cvjs:layerName="GROS$" cvjs:plottable="YES"
 cvjs:status="ON" visibility="visible">
<g id="cvclr_58" stroke="#FF3F00" fill="none">
<path id="cv_59" class=" ZW" d="M11.12,29.18v0.6h-3.87v2.82h-0.6v29.98h-2.62v0.6h-2.82v3.87h-0.6v18.81h-0.6v3.92h0.6v13.18h-0.6v3.92h0.6v18.81h0.6v3.87h2.82v0.6h2.62v29.98h0.6v2.82h3.87v0.6h19.12v0.6h3.92v-0.6h17.2v-0.6h1.16v11.47h0.6v2.82h3.67v0.6h19.32v0.6h3.92v-0.6h17.1v-0.6h1.26v10.87h0.6v2.82h3.67v0.6h21.63v0.6h21.38v0.6h5.63v-0.6h21.38v-0.6h21.63v-0.6h3.67v-2.82h0.6v-12.88h1.26v0.6h17.51v0.6h3.92v-0.6h18.91v-0.6h3.67v-2.82h0.6v-13.48h1.26v0.6h17.51v0.6h3.92v-0.6h18.71v-0.6h3.87v-2.82h0.6v-25.96h2.62v-0.6h2.82v-3.87h0.6v-20.42h0.6v-2.31h-0.6v-13.18h0.6v-2.31h-0.6v-20.42h-0.6v-3.87h-2.82v-0.6h-2.62v-25.96h-0.6v-2.82h-3.87v-0.6h-18.71v-0.6h-3.92v0.6h-17.51v0.6h-1.26v-13.48h-0.6v-2.82h-3.67v-0.6h-18.91v-0.6h-3.92v0.6h-17.51v0.6h-1.26v-12.88h-0.6v-2.82h-3.67v-0.6h-21.63v-0.6h-21.38v-0.6h-5.63v0.6h-21.38v0.6h-21.63v0.6h-3.67v2.82h-0.6v10.87h-1.26v-0.6h-17.1v-0.6h-3.92v0.6h-19.32v0.6h-3.67v2.82h-0.6v11.47h-1.16v-0.6h-17.2v-0.6h-3.92v0.6h-19.12M100.81,17.91h-6.34v-0.6h-33.35v0.6h-6.19v14.29h-6.24v-0.6h-33.45v0.6h-6.19v35.82h-3.22v2.46h-2.82v51.81h2.82v2.46h3.22v35.82h6.39v0.6h33.25v-0.6h6.24v14.29h6.19v0.6h33.35v-0.6h6.34v13.68h5.99v0.6h21.63v0.6h40.14v-0.6h21.63v-0.6h5.99v-15.7h6.64v0.6h33.35v-0.6h5.89v-16.3h6.64v0.6h33.25v-0.6h5.99v-31.79h3.22v-2.46h2.82v-51.81h-2.82v-2.46h-3.22v-31.79h-5.99v-0.6h-33.25v0.6h-6.64v-16.3h-5.89v-0.6h-33.35v0.6h-6.64v-15.7h-5.99v-0.6h-21.63v-0.6h-40.14v0.6h-21.63v0.6h-5.99v13.68" />
</g>
<g style="font-family: arial, helvetica, sans-serif" stroke="none" fill="#7F0000">
<g font-size="17.3491" stroke="none" fill="#7F0000">
<text id="cv_60" x="59.4" y="154.21" transform="rotate(330 59.4 154.21) translate(59.4 -154.21) scale(1.11111 1) translate(-59.4 154.21) " >For Demonstration Purposes Only</text>
<text id="cv_61" x="118.8" y="154.21" transform="rotate(330 118.8 154.21) translate(118.8 -154.21) scale(1.11111 1) translate(-118.8 154.21) " >Tailor Made Software, Ltd</text>
</g>
</g>
</g>
<g id="layer_PL_2D_MISC" class="layer_PL_2D_MISC"  cvjs:layerName="PL-MISC" cvjs:plottable="YES"
 cvjs:status="ON" visibility="visible">
<g id="cvclr_62" stroke="#29A500" fill="none">
<path id="cv_63" class="ZW" d="M76.06,130.49l24.15,2.41M76.06,132.91l24.15,-2.41M56.14,111.68l-5.43,11.87M50.71,111.68l5.43,11.87M79.28,111.68l0,16.7M80.09,111.68l0,16.7M79.28,81.09l0,-16.7M80.09,81.09l0,-16.7M38.63,101.21l-5.63,14.49M33,101.21l5.63,14.49M125.16,111.68l0,16.7M125.96,111.68l0,16.7M194.38,111.69l5.22,12.46M194.38,124.15l5.22,-12.46M105.04,130.49l9.66,3.62M105.04,134.11l9.66,-3.62M125.16,81.09l0,-16.7M125.96,81.09l0,-16.7M105.04,57.95l9.66,3.62M105.04,61.57l9.66,-3.62M105.04,61.57h9.66M54.33,123.55h-3.62M105.04,130.79l0,2.11M100.21,130.79l0,2.11" />
</g>
<g style="font-family: arial, helvetica, sans-serif" stroke="none" fill="#7F0000">
<g font-size="17.3491" stroke="none" fill="#7F0000">
<text id="cv_64" x="59.4" y="154.21" transform="rotate(330 59.4 154.21) translate(59.4 -154.21) scale(1.11111 1) translate(-59.4 154.21) " >For Demonstration Purposes Only</text>
<text id="cv_65" x="118.8" y="154.21" transform="rotate(330 118.8 154.21) translate(118.8 -154.21) scale(1.11111 1) translate(-118.8 154.21) " >Tailor Made Software, Ltd</text>
</g>
</g>
</g>
<g id="layer_PL_2D_TOIL" class="layer_PL_2D_TOIL"  cvjs:layerName="PL-TOIL" cvjs:plottable="YES"
 cvjs:status="ON" visibility="visible">
<g id="cvclr_66" stroke="#29A500" fill="none">
<path id="cv_67" class="ZW" d="M18.91,116.51l0,0.4M19.92,116.51l0,0.4M24.75,116.51l0,0.4M26.36,116.51l0,0.4M31.19,116.51l0,0.4M27.52,122.68l4.27,-4.27M19.92,116.91h-1.01M26.36,116.91h-1.61M31.79,124.45l0,1.51M32.2,124.45l0,1.51M31.79,124.45h0.4M31.79,116.91h-0.6M32.2,116.91l0,1.51M31.79,116.91l0,1.51h0.4M19.32,116.41l0,-10.56M18.91,116.41l0,-10.56M25.35,116.41l0,-10.56M25.76,116.41l0,-10.56M19.92,116.51h-1.01M18.91,116.41h0.4M26.36,116.51h-1.61M25.76,116.41h-0.4M13.48,93.97h-1.01M13.48,93.57h-1.01M13.48,93.97l0,-0.4M12.48,93.57l0,0.4M12.88,94.07h-0.4M19.92,93.97h-1.61M19.92,93.57h-1.61M18.31,93.97l0,-0.4M19.32,94.07h-0.4M19.92,93.97l0,-0.4M26.36,93.57h-1.61M26.36,93.97h-1.61M26.36,93.97l0,-0.4M24.75,93.97l0,-0.4M25.76,94.07h-0.4M31.79,100.01l0,-6.04M32.2,100.01l0,-6.04M31.79,116.51h-0.6M31.79,87.93l0,-9.05M32.2,87.93l0,-9.05M32.2,92.76h-0.4M31.79,93.57h-0.6M31.79,93.97h-0.6M32.2,93.57l0,-0.8M31.79,93.57l0,-0.8M33,93.57h-0.8M33,93.97h-0.8M32.2,92.76h-0.4M33,93.57l0,0.4M31.19,93.97l0,-0.4M32.2,87.93h-0.4M38.63,93.97h-0.8M38.63,93.57h-0.8M37.83,93.97l0,-0.4M11.72,78.88l-8.7,8.7M31.79,116.51l0,-22.54M191.41,126.58h-23.25M168.13,126.51l0,-18.46M193.15,97.6l0,26.56M168.13,97.6h25.02M168.13,100.81l0,-3.21M11.72,78.88h20.07" />
<path id="cv_68" class="ZW" d="M27.52,122.68A 6.03659 6.03659 0 0 0 31.79 124.45" />
</g>
<g style="font-family: arial, helvetica, sans-serif" stroke="none" fill="#7F0000">
<g font-size="17.3491" stroke="none" fill="#7F0000">
<text id="cv_69" x="59.4" y="154.21" transform="rotate(330 59.4 154.21) translate(59.4 -154.21) scale(1.11111 1) translate(-59.4 154.21) " >For Demonstration Purposes Only</text>
<text id="cv_70" x="118.8" y="154.21" transform="rotate(330 118.8 154.21) translate(118.8 -154.21) scale(1.11111 1) translate(-118.8 154.21) " >Tailor Made Software, Ltd</text>
</g>
</g>
<g class="WC_2D_DOOR" id="cv_Block_WC_2D_DOOR_1">
<g id="cvclr_71" stroke="#29A500" fill="none">
<path id="cv_72" class="ZW" d="M31.19,93.97l-3.41,3.41" />
<path id="cv_73" class="ZW" d="M26.36,93.97A 4.82927 4.82927 0 0 0 27.77 97.38" />
</g>
</g>
<g class="WC_2D_DOOR" id="cv_Block_WC_2D_DOOR_2">
<g id="cvclr_74" stroke="#29A500" fill="none">
<path id="cv_75" class="ZW" d="M31.19,116.51l-3.41,-3.41" />
<path id="cv_76" class="ZW" d="M27.77,113.09A 4.82927 4.82927 0 0 0 26.36 116.51" />
</g>
</g>
<g class="WC_2D_DOOR" id="cv_Block_WC_2D_DOOR_3">
<g id="cvclr_77" stroke="#29A500" fill="none">
<path id="cv_78" class="ZW" d="M31.79,92.76l-3.41,-3.41" />
<path id="cv_79" class="ZW" d="M31.79,87.93A 4.82927 4.82927 0 0 0 28.38 89.35" />
</g>
</g>
<g class="WC_2D_DOOR" id="cv_Block_WC_2D_DOOR_4">
<g id="cvclr_80" stroke="#29A500" fill="none">
<path id="cv_81" class="ZW" d="M24.75,93.97l-3.41,3.41" />
<path id="cv_82" class="ZW" d="M19.92,93.97A 4.82927 4.82927 0 0 0 21.33 97.38" />
</g>
</g>
<g class="WC_2D_DOOR" id="cv_Block_WC_2D_DOOR_5">
<g id="cvclr_83" stroke="#29A500" fill="none">
<path id="cv_84" class="ZW" d="M18.31,93.97l-3.41,3.41" />
<path id="cv_85" class="ZW" d="M13.48,93.97A 4.82927 4.82927 0 0 0 14.9 97.38" />
</g>
</g>
<g class="WC_2D_DOOR" id="cv_Block_WC_2D_DOOR_6">
<g id="cvclr_86" stroke="#29A500" fill="none">
<path id="cv_87" class="ZW" d="M24.75,116.51l-3.41,-3.41" />
<path id="cv_88" class="ZW" d="M21.34,113.09A 4.82927 4.82927 0 0 0 19.92 116.51" />
</g>
</g>
<g class="WC_2D_DOOR" id="cv_Block_WC_2D_DOOR_7">
<g id="cvclr_89" stroke="#29A500" fill="none">
<path id="cv_90" class="ZW" d="M33,93.57l3.41,-3.41" />
<path id="cv_91" class="ZW" d="M37.83,93.57A 4.82927 4.82927 0 0 0 36.42 90.15" />
</g>
</g>
</g>
<g id="layer_DR" class="layer_DR"  cvjs:layerName="DR" cvjs:plottable="YES"
 cvjs:status="ON" visibility="visible">
<g id="cvclr_92" stroke="#FF7F00" fill="none">
<path id="cv_93" class="ZW" d="M34.37,122.68l4.27,-4.27M25.76,60.48l5.12,5.12M34.37,84.76l4.27,-4.27M44.38,73.13l5.12,-5.12M33.51,70.74l5.12,5.12M161.79,102.93l5.12,5.12M159.07,87.42l5.12,-5.12M180.19,75.36l-5.12,-5.12" />
<path id="cv_94" class="ZW" d="M34.37,122.68A 6.03659 6.03659 0 0 0 38.63 124.45M25.77,60.48A 7.2439 7.2439 0 0 0 23.64 65.6M34.37,84.76A 6.03659 6.03659 0 0 0 38.63 86.52M44.38,73.13A 7.2439 7.2439 0 0 0 49.5 75.26M38.63,68.62A 7.2439 7.2439 0 0 0 33.51 70.74M166.91,100.81A 7.2439 7.2439 0 0 0 161.79 102.93M156.95,82.3A 7.2439 7.2439 0 0 0 159.07 87.42M175.06,77.48A 7.2439 7.2439 0 0 0 180.19 75.36" />
</g>
<g style="font-family: arial, helvetica, sans-serif" stroke="none" fill="#7F0000">
<g font-size="17.3491" stroke="none" fill="#7F0000">
<text id="cv_95" x="59.4" y="154.21" transform="rotate(330 59.4 154.21) translate(59.4 -154.21) scale(1.11111 1) translate(-59.4 154.21) " >For Demonstration Purposes Only</text>
<text id="cv_96" x="118.8" y="154.21" transform="rotate(330 118.8 154.21) translate(118.8 -154.21) scale(1.11111 1) translate(-118.8 154.21) " >Tailor Made Software, Ltd</text>
</g>
</g>
</g>
<g id="layer_PL" class="layer_PL"  cvjs:layerName="PL" cvjs:plottable="YES"
 cvjs:status="ON" visibility="visible">
<g id="cvclr_97" stroke="#29A500" fill="none">
<path id="cv_98" class="ZW" d="M10.87,63.18l0,-28.17M0.6,84.46l0,-10.36M6.64,54.13l0,-11.27M17.36,29.18h11.47" />
</g>
<g style="font-family: arial, helvetica, sans-serif" stroke="none" fill="#7F0000">
<g font-size="17.3491" stroke="none" fill="#7F0000">
<text id="cv_99" x="59.4" y="154.21" transform="rotate(330 59.4 154.21) translate(59.4 -154.21) scale(1.11111 1) translate(-59.4 154.21) " >For Demonstration Purposes Only</text>
<text id="cv_100" x="118.8" y="154.21" transform="rotate(330 118.8 154.21) translate(118.8 -154.21) scale(1.11111 1) translate(-118.8 154.21) " >Tailor Made Software, Ltd</text>
</g>
</g>
<g class="WNV" id="cv_Block_WNV_8">
<g id="cvclr_101" stroke="#29A500" fill="none">
<path id="cv_102" class="ZW" d="M0.6,118.67l0,-10.36" />
</g>
</g>
<g class="WNH" id="cv_Block_WNH_9">
<g id="cvclr_103" stroke="#29A500" fill="none">
<path id="cv_104" class="ZW" d="M28.82,163.59h-11.27" />
</g>
</g>
<g class="WNH" id="cv_Block_WNH_10">
<g id="cvclr_105" stroke="#29A500" fill="none">
<path id="cv_106" class="ZW" d="M6.64,149.91l0,-11.27" />
</g>
</g>
<g class="WNH" id="cv_Block_WNH_11">
<g id="cvclr_107" stroke="#29A500" fill="none">
<path id="cv_108" class="ZW" d="M46.83,163.59h-11.27" />
</g>
</g>
<g class="WNH" id="cv_Block_WNH_12">
<g id="cvclr_109" stroke="#29A500" fill="none">
<path id="cv_110" class="ZW" d="M74.7,177.88h-11.27" />
</g>
</g>
<g class="WNH" id="cv_Block_WNH_13">
<g id="cvclr_111" stroke="#29A500" fill="none">
<path id="cv_112" class="ZW" d="M92.71,177.88h-11.27" />
</g>
</g>
<g class="WNV" id="cv_Block_WNV_14">
<g id="cvclr_113" stroke="#29A500" fill="none">
<path id="cv_114" class="ZW" d="M0.6,91.2l0,10.36" />
</g>
</g>
<g class="WNV" id="cv_Block_WNV_15">
<g id="cvclr_115" stroke="#29A500" fill="none">
<path id="cv_116" class="ZW" d="M0.6,101.57l0,-10.36" />
</g>
</g>
<g class="WNH" id="cv_Block_WNH_16">
<g id="cvclr_117" stroke="#29A500" fill="none">
<path id="cv_118" class="ZW" d="M46.83,29.18h-11.27" />
</g>
</g>
<g class="WNH" id="cv_Block_WNH_17">
<g id="cvclr_119" stroke="#29A500" fill="none">
<path id="cv_120" class="ZW" d="M74.7,14.89h-11.27" />
</g>
</g>
<g class="WNH" id="cv_Block_WNH_18">
<g id="cvclr_121" stroke="#29A500" fill="none">
<path id="cv_122" class="ZW" d="M92.71,14.89h-11.27" />
</g>
</g>
<g class="WNV" id="cv_Block_WNV_19">
<g id="cvclr_123" stroke="#29A500" fill="none">
<path id="cv_124" class="ZW" d="M296.4,117.06l0,-10.36" />
</g>
</g>
<g class="WNH" id="cv_Block_WNH_20">
<g id="cvclr_125" stroke="#29A500" fill="none">
<path id="cv_126" class="ZW" d="M222.7,175.87h11.27" />
</g>
</g>
<g class="WNH" id="cv_Block_WNH_21">
<g id="cvclr_127" stroke="#29A500" fill="none">
<path id="cv_128" class="ZW" d="M154.18,192.16h11.27" />
</g>
</g>
<g class="WNH" id="cv_Block_WNH_22">
<g id="cvclr_129" stroke="#29A500" fill="none">
<path id="cv_130" class="ZW" d="M121.18,191.56h-11.27" />
</g>
</g>
<g class="WNH" id="cv_Block_WNH_23">
<g id="cvclr_131" stroke="#29A500" fill="none">
<path id="cv_132" class="ZW" d="M142.82,192.16h-11.27" />
</g>
</g>
<g class="WNH" id="cv_Block_WNH_24">
<g id="cvclr_133" stroke="#29A500" fill="none">
<path id="cv_134" class="ZW" d="M175.82,191.56h11.27" />
</g>
</g>
<g class="WNH" id="cv_Block_WNH_25">
<g id="cvclr_135" stroke="#29A500" fill="none">
<path id="cv_136" class="ZW" d="M204.69,175.87h11.27" />
</g>
</g>
<g class="WNH" id="cv_Block_WNH_26">
<g id="cvclr_137" stroke="#29A500" fill="none">
<path id="cv_138" class="ZW" d="M250.57,159.57h11.27" />
</g>
</g>
<g class="WNH" id="cv_Block_WNH_27">
<g id="cvclr_139" stroke="#29A500" fill="none">
<path id="cv_140" class="ZW" d="M268.58,159.57h11.27" />
</g>
</g>
<g class="WNH" id="cv_Block_WNH_28">
<g id="cvclr_141" stroke="#29A500" fill="none">
<path id="cv_142" class="ZW" d="M290.36,136.23l0,11.27" />
</g>
</g>
<g class="WNH" id="cv_Block_WNH_29">
<g id="cvclr_143" stroke="#29A500" fill="none">
<path id="cv_144" class="ZW" d="M222.7,16.9h11.27" />
</g>
</g>
<g class="WNH" id="cv_Block_WNH_30">
<g id="cvclr_145" stroke="#29A500" fill="none">
<path id="cv_146" class="ZW" d="M154.18,0.6h11.27" />
</g>
</g>
<g class="WNH" id="cv_Block_WNH_31">
<g id="cvclr_147" stroke="#29A500" fill="none">
<path id="cv_148" class="ZW" d="M121.18,1.21h-11.27" />
</g>
</g>
<g class="WNH" id="cv_Block_WNH_32">
<g id="cvclr_149" stroke="#29A500" fill="none">
<path id="cv_150" class="ZW" d="M142.82,0.6h-11.27" />
</g>
</g>
<g class="WNH" id="cv_Block_WNH_33">
<g id="cvclr_151" stroke="#29A500" fill="none">
<path id="cv_152" class="ZW" d="M175.82,1.21h11.27" />
</g>
</g>
<g class="WNH" id="cv_Block_WNH_34">
<g id="cvclr_153" stroke="#29A500" fill="none">
<path id="cv_154" class="ZW" d="M204.69,16.9h11.27" />
</g>
</g>
<g class="WNV" id="cv_Block_WNV_35">
<g id="cvclr_155" stroke="#29A500" fill="none">
<path id="cv_156" class="ZW" d="M296.4,75.71l0,10.36" />
</g>
</g>
<g class="WNV" id="cv_Block_WNV_36">
<g id="cvclr_157" stroke="#29A500" fill="none">
<path id="cv_158" class="ZW" d="M296.4,91.2l0,10.36" />
</g>
</g>
<g class="WNV" id="cv_Block_WNV_37">
<g id="cvclr_159" stroke="#29A500" fill="none">
<path id="cv_160" class="ZW" d="M296.4,101.57l0,-10.36" />
</g>
</g>
<g class="WNH" id="cv_Block_WNH_38">
<g id="cvclr_161" stroke="#29A500" fill="none">
<path id="cv_162" class="ZW" d="M290.36,56.54l0,-11.27" />
</g>
</g>
<g class="WNH" id="cv_Block_WNH_39">
<g id="cvclr_163" stroke="#29A500" fill="none">
<path id="cv_164" class="ZW" d="M250.57,33.2h11.27" />
</g>
</g>
<g class="WNH" id="cv_Block_WNH_40">
<g id="cvclr_165" stroke="#29A500" fill="none">
<path id="cv_166" class="ZW" d="M268.58,33.2h11.27" />
</g>
</g>
</g>
<g id="layer_PL_2D_STAIR" class="layer_PL_2D_STAIR"  cvjs:layerName="PL-STAIR" cvjs:plottable="YES"
 cvjs:status="ON" visibility="visible">
<g id="cvclr_167" stroke="none" fill="#29A500" opacity="1.">
<path id="cv_168" d="M15.61,45.88l0.34,-2.01l0.34,2.01h-0.67 Z "/>
<path id="cv_169" d="M26.68,45.88l0.34,-2.01l0.34,2.01h-0.67 Z "/>
<path id="cv_170" d="M173.69,114.9l-0.34,2.01l-0.34,-2.01h0.67 Z "/>
<path id="cv_171" d="M181.5,103.49l2.01,0.34l-2.01,0.34v-0.67 Z "/>
</g>
<g id="cvclr_172" stroke="#29A500" fill="none">
<path id="cv_173" class=" ZW" d="M20.12,55.74v-0.8h0.8v0.8h-0.8M22.03,55.74v-0.8h0.8v0.8h-0.8M20.12,44.27v-0.8h0.8v0.8h-0.8M22.03,44.27v-0.8h0.8v0.8h-0.8M177.38,117.31v-0.8h0.8v0.8h-0.8M183.11,117.31v-0.8h0.8v0.8h-0.8M177.38,109.66v-0.8h0.8v0.8h-0.8M183.11,109.66v-0.8h0.8v0.8h-0.8" />
<path id="cv_174" class="ZW" d="M20.52,43.46l0,-11.87M22.44,43.46l0,-11.87M32.09,51.51h-9.66M31.19,51.51h-8.75M31.19,53.42h-8.75M31.19,55.34h-8.35M31.19,43.87h-8.35M31.19,45.78h-8.75M31.19,47.69h-8.75M31.19,49.6h-8.75M15.95,45.88l0,14.79M20.52,65.6l0,-9.86M22.44,65.6l0,-9.86M15.95,60.67h6.49M20.52,51.51h-9.66M20.52,51.51h-8.75M20.52,53.42h-8.75M20.12,55.34h-8.35M20.52,45.78h-8.75M20.52,47.69h-8.75M20.52,49.6h-8.75M20.12,43.87h-8.35M11.47,55.74l0,-12.27M11.77,55.74l0,-12.27M11.77,55.74h-0.3M11.47,55.34h-0.6M11.47,51.51h-0.6M11.47,53.42h-0.6M11.47,49.6h-0.6M11.47,43.87h-0.6M11.47,45.78h-0.6M11.47,47.69h-0.6M11.77,43.46h-0.3M22.44,54.93l0,-10.66M20.52,54.93l0,-10.66M20.83,54.93l0,-10.66M22.13,54.93l0,-10.66M27.01,45.88l0,9.46M22.03,55.34h-1.11M22.03,55.03h-1.11M22.03,43.87h-1.11M22.03,44.17h-1.11M31.49,55.74l0,-12.27M31.19,55.74l0,-12.27M32.09,55.34h-0.6M31.49,55.74h-0.3M32.09,51.51h-0.6M32.09,53.42h-0.6M32.09,49.6h-0.6M32.09,43.87h-0.6M32.09,45.78h-0.6M32.09,47.69h-0.6M31.49,43.46h-0.3M168.92,117.31l0,-8.45M169.33,117.31l0,-8.45M191.96,117.31l0,-8.45M192.37,117.31l0,-8.45M183.91,125.36h-6.54M183.91,125.76h-6.54M183.11,116.91h-4.93M177.78,125.76l0,0.8M179.69,125.76l0,0.8M177.38,116.91h-8.05M169.33,117.31h-0.4M168.92,116.91h-0.8M177.78,117.31l0,8.05M177.78,124.55l0,-7.24M179.69,116.91l0,8.45M177.38,125.36l0,0.4M183.51,125.76l0,0.8M181.6,125.76l0,0.8M191.96,116.91h-8.05h8.05M183.51,117.31l0,8.05M183.51,124.55l0,-7.24M181.6,116.91l0,8.45M183.91,125.36l0,0.4M193.17,116.91h-0.8h0.8M191.96,117.31h0.4M183.11,109.26h-4.93M183.11,109.66h-4.93M183.11,116.51h-4.93M183.91,98.4h-6.54M183.91,98.8h-6.54M181.5,103.83h-3.72M179.69,109.26l0,-10.46M177.78,108.86l0,-10.06M177.78,111.17h-8.45M177.78,113.09h-8.45M177.78,115h-8.45M177.38,109.26h-8.05M168.92,113.09h-0.8M168.92,115h-0.8M169.33,108.86h-0.4M168.92,111.17h-0.8M177.78,116.51l0,-6.84M173.35,114.9l0,-5.63M178.18,116.51l0,-6.84M177.78,115.3l0,1.21l0,-1.21M177.38,98.8l0,-0.4M177.78,98.4l0,-0.8M179.69,98.4l0,-0.8M181.6,109.26l0,-10.46M183.51,108.86l0,-10.06M191.96,109.26h-8.05M183.51,115h8.45M183.51,113.09h8.45M183.51,111.17h8.45M183.91,109.26h8.05M183.51,116.51l0,-6.84M183.11,116.51l0,-6.84M183.51,115.3l0,1.21l0,-1.21M192.37,115h0.8M192.37,113.09h0.8M193.17,109.26h-0.8M192.37,111.17h0.8M192.37,109.26h0.8M191.96,108.86h0.4M183.91,98.8l0,-0.4M181.6,98.4l0,-0.8M183.51,98.4l0,-0.8M32.09,65.6l-0,-34.01" />
<circle id="cv_175" class="ZW" fill="#29A500" cx="22.44" cy="60.67" r="0.301829" />
<circle id="cv_176" class="ZW" fill="#29A500" cx="27.01" cy="55.34" r="0.301829" />
<circle id="cv_177" class="ZW" fill="#29A500" cx="173.35" cy="109.26" r="0.301829" />
<circle id="cv_178" class="ZW" fill="#29A500" cx="177.78" cy="103.83" r="0.301829" />
</g>
<g style="font-family: simplex, arial, helvetica, sans-serif" stroke="none" fill="#29A500">
<g font-size="2.09556" stroke="none" fill="#29A500">
<text id="cv_179" x="18.03" y="59.46" transform="translate(18.03 -59.46) scale(0.833333 1) translate(-18.03 59.46) " >UP</text>
<text id="cv_180" x="25.88" y="59.63" transform="translate(25.88 -59.63) scale(0.833333 1) translate(-25.88 59.63) " >DN</text>
<text id="cv_181" x="172.07" y="108.05" transform="translate(172.07 -108.05) scale(0.833333 1) translate(-172.07 108.05) " >DN</text>
<text id="cv_182" x="174.72" y="105.64" transform="translate(174.72 -105.64) scale(0.833333 1) translate(-174.72 105.64) " >UP</text>
</g>
<g font-size="0.0419111" stroke="none" fill="#29A500">
<text id="cv_183" x="177.71" y="103.87" transform="translate(177.71 -103.87) scale(0.833333 1) translate(-177.71 103.87) " >UP</text>
</g>
</g>
<g style="font-family: arial, helvetica, sans-serif" stroke="none" fill="#7F0000">
<g font-size="17.3491" stroke="none" fill="#7F0000">
<text id="cv_184" x="59.4" y="154.21" transform="rotate(330 59.4 154.21) translate(59.4 -154.21) scale(1.11111 1) translate(-59.4 154.21) " >For Demonstration Purposes Only</text>
<text id="cv_185" x="118.8" y="154.21" transform="rotate(330 118.8 154.21) translate(118.8 -154.21) scale(1.11111 1) translate(-118.8 154.21) " >Tailor Made Software, Ltd</text>
</g>
</g>
</g>
<g id="layer_WN" class="layer_WN"  cvjs:layerName="WN" cvjs:plottable="YES"
 cvjs:status="ON" visibility="visible">
<g id="cvclr_186" stroke="#808080" fill="none">
<path id="cv_187" class="ZW" d="M3.02,84.86l0,-11.17M2.01,84.46l0,-10.36M9.05,42.46l0,12.07M8.05,42.86l0,11.27M16.95,31.59h12.27M17.36,30.59h11.47" />
</g>
<g id="cvclr_188" stroke="#29A500" fill="none">
<path id="cv_189" class="ZW" d="M12.88,104.63l0,-10.56M12.48,104.63l0,-10.56M19.32,104.63l0,-10.56M18.91,104.63l0,-10.56M25.35,104.63l0,-10.56M25.76,104.63l0,-10.56" />
</g>
<g style="font-family: arial, helvetica, sans-serif" stroke="none" fill="#7F0000">
<g font-size="17.3491" stroke="none" fill="#7F0000">
<text id="cv_190" x="59.4" y="154.21" transform="rotate(330 59.4 154.21) translate(59.4 -154.21) scale(1.11111 1) translate(-59.4 154.21) " >For Demonstration Purposes Only</text>
<text id="cv_191" x="118.8" y="154.21" transform="rotate(330 118.8 154.21) translate(118.8 -154.21) scale(1.11111 1) translate(-118.8 154.21) " >Tailor Made Software, Ltd</text>
</g>
</g>
</g>
<g id="layer_0_block" class="layer_0_block"  cvjs:layerName="0" cvjs:plottable="YES"
 cvjs:status="ON" visibility="visible">
<g class="90S2" id="cv_Block_90S2_41">
<g id="cvclr_192" stroke="#FF7F00" fill="none">
<path id="cv_193" class=" ZW" d="M41.05,127.17l0.18,1.62l0.58,1.62l1.1,1.61l1.6,1.33l1.61,0.73l1.6,0.31l0.73,0.02h0.05" />
<path id="cv_194" class="ZW" d="M48.29,127.17l0,7.24M48.07,127.17l0,7.23M48.29,127.17h-0.23" />
</g>
</g>
<g class="DR_2D_S90" id="cv_Block_DR_2D_S90_42">
<g id="cvclr_195" stroke="#FF7F00" fill="none">
<path id="cv_196" class=" ZW" d="M46.99,65.6l-0.23,-1.63l-0.76,-1.62l-1.59,-1.6l-1.62,-0.76l-1.33,-0.23h-0.04" />
<path id="cv_197" class="ZW" d="M41.42,59.74l0,5.83h-0.28l0,-5.83h0.28" />
</g>
</g>
<g class="90S2" id="cv_Block_90S2_43">
<g id="cvclr_198" stroke="#FF7F00" fill="none">
<path id="cv_199" class=" ZW" d="M156.85,111.27l0.18,1.62l0.58,1.62l1.1,1.61l1.6,1.33l1.61,0.73l1.6,0.31l0.73,0.02h0.05" />
<path id="cv_200" class="ZW" d="M164.09,111.27l0,7.24M163.87,111.27l0,7.23M164.09,111.27h-0.23" />
</g>
</g>
<g class="DR_2D_DOUB" id="cv_Block_DR_2D_DOUB_44">
<g id="cvclr_201" stroke="#FF7F00" fill="none">
<path id="cv_202" class=" ZW" d="M173.75,83.39l-0.22,1.61l-0.72,1.62l-1.49,1.6l-1.6,0.85l-1.59,0.33l-0.38,0.01h-0.04M167.72,89.43l1.61,0.22l1.62,0.72l1.6,1.49l0.85,1.6l0.33,1.59l0.01,0.38v0.04" />
<path id="cv_203" class="ZW" d="M167.72,83.39h6.04l0,0.19h-6.04l0,-0.19M167.72,95.27l0,0.19M173.75,95.27h-6.04M173.75,95.46l0,-0.19M167.72,95.46h6.04" />
</g>
</g>
<g class="SINK" id="cv_Block_SINK_45">
<g id="cvclr_204" stroke="#29A500" fill="none">
<path id="cv_205" class="ZW" d="M12.3,105.84l0,3.84M12.53,109.9h5.32M18.07,109.68l0,-3.84h-5.77M13.27,109.39h3.82M17.56,108.93l0,-1.67M12.82,107.26l0,1.67M17.1,106.8h-1.76M15.02,106.46l0,1.27h0.32l0,-1.27h-0.32M15.02,106.8h-1.74" />
<path id="cv_206" class="ZW" d="M13.27,106.8A 0.457972 0.457972 0 0 0 12.82 107.26M12.82,108.93A 0.457972 0.457972 0 0 0 13.27 109.39M17.1,109.39A 0.457972 0.457972 0 0 0 17.56 108.93M17.56,107.26A 0.457972 0.457972 0 0 0 17.1 106.8M12.3,109.68A 0.221341 0.221341 0 0 0 12.53 109.9M17.85,109.9A 0.221341 0.221341 0 0 0 18.07 109.68" />
<circle id="cv_207" class="ZW" cx="14.36" cy="106.37" r="0.297276" />
<circle id="cv_208" class="ZW" cx="16" cy="106.37" r="0.297276" />
</g>
</g>
<g class="SINK" id="cv_Block_SINK_46">
<g id="cvclr_209" stroke="#29A500" fill="none">
<path id="cv_210" class="ZW" d="M5.43,105.84l0,3.84M5.65,109.9h5.32M11.19,109.68l0,-3.84h-5.77M6.4,109.39h3.82M10.68,108.93l0,-1.67M5.94,107.26l0,1.67M10.22,106.8h-1.76M8.14,106.46l0,1.27h0.32l0,-1.27h-0.32M8.14,106.8h-1.74" />
<path id="cv_211" class="ZW" d="M6.4,106.8A 0.457972 0.457972 0 0 0 5.94 107.26M5.94,108.93A 0.457972 0.457972 0 0 0 6.4 109.39M10.22,109.39A 0.457972 0.457972 0 0 0 10.68 108.93M10.68,107.26A 0.457972 0.457972 0 0 0 10.22 106.8M5.43,109.68A 0.221341 0.221341 0 0 0 5.65 109.9M10.97,109.9A 0.221341 0.221341 0 0 0 11.19 109.68" />
<circle id="cv_212" class="ZW" cx="7.48" cy="106.37" r="0.297276" />
<circle id="cv_213" class="ZW" cx="9.12" cy="106.37" r="0.297276" />
</g>
</g>
<g class="SINK" id="cv_Block_SINK_47">
<g id="cvclr_214" stroke="#29A500" fill="none">
<path id="cv_215" class="ZW" d="M5.43,104.63l0,-3.84M5.65,100.57h5.32M11.19,100.79l0,3.84h-5.77M6.4,101.09h3.82M10.68,101.54l0,1.67M5.94,103.21l0,-1.67M10.22,103.67h-1.76M8.14,104.01l0,-1.27h0.32l0,1.27h-0.32M8.14,103.67h-1.74" />
<path id="cv_216" class="ZW" d="M5.94,103.21A 0.457972 0.457972 0 0 0 6.4 103.67M6.4,101.09A 0.457972 0.457972 0 0 0 5.94 101.54M10.68,101.54A 0.457972 0.457972 0 0 0 10.22 101.09M10.22,103.67A 0.457972 0.457972 0 0 0 10.68 103.21M5.65,100.57A 0.221341 0.221341 0 0 0 5.43 100.79M11.19,100.79A 0.221341 0.221341 0 0 0 10.97 100.57" />
<circle id="cv_217" class="ZW" cx="7.48" cy="104.11" r="0.297276" />
<circle id="cv_218" class="ZW" cx="9.12" cy="104.11" r="0.297276" />
</g>
</g>
<g class="SINK" id="cv_Block_SINK_48">
<g id="cvclr_219" stroke="#29A500" fill="none">
<path id="cv_220" class="ZW" d="M19.93,79.28l0,3.84M19.71,83.34h-5.32M14.17,83.12l0,-3.84h5.77M18.96,82.83h-3.82M14.68,82.37l0,-1.67M19.42,80.7l0,1.67M15.14,80.24h1.76M17.22,79.9l0,1.27h-0.32l0,-1.27h0.32M17.22,80.24h1.74" />
<path id="cv_221" class="ZW" d="M19.42,80.7A 0.457972 0.457972 0 0 0 18.96 80.24M18.96,82.83A 0.457972 0.457972 0 0 0 19.42 82.37M14.68,82.37A 0.457972 0.457972 0 0 0 15.14 82.83M15.14,80.24A 0.457972 0.457972 0 0 0 14.68 80.7M19.71,83.34A 0.221341 0.221341 0 0 0 19.93 83.12M14.17,83.12A 0.221341 0.221341 0 0 0 14.39 83.34" />
<circle id="cv_222" class="ZW" cx="17.88" cy="79.81" r="0.297276" />
<circle id="cv_223" class="ZW" cx="16.24" cy="79.81" r="0.297276" />
</g>
</g>
<g class="ELEV" id="cv_Block_ELEV_49">
<g id="cvclr_224" stroke="#29A500" fill="none">
<path id="cv_225" class=" ZW" d="M82.05,126.16v-13.28h16.9v13.28h-16.9" />
<path id="cv_226" class="ZW" d="M98.95,112.88l-16.9,13.28M82.05,112.88l16.9,13.28" />
</g>
</g>
<g class="ELEV" id="cv_Block_ELEV_50">
<g id="cvclr_227" stroke="#29A500" fill="none">
<path id="cv_228" class=" ZW" d="M82.05,66.61v13.28h16.9v-13.28h-16.9" />
<path id="cv_229" class="ZW" d="M98.95,79.89l-16.9,-13.28M82.05,79.89l16.9,-13.28" />
</g>
</g>
<g class="WNV" id="cv_Block_WNV_51">
<g id="cvclr_230" stroke="#808080" fill="none">
<path id="cv_231" class="ZW" d="M2.52,107.9l0,11.17M2.01,118.67l0,-10.36M3.02,107.9l0,11.17" />
</g>
</g>
<g class="ELEV" id="cv_Block_ELEV_52">
<g id="cvclr_232" stroke="#29A500" fill="none">
<path id="cv_233" class=" ZW" d="M60.42,126.16v-13.28h16.9v13.28h-16.9" />
<path id="cv_234" class="ZW" d="M77.32,112.88l-16.9,13.28M60.42,112.88l16.9,13.28" />
</g>
</g>
<g class="WNH" id="cv_Block_WNH_53">
<g id="cvclr_235" stroke="#808080" fill="none">
<path id="cv_236" class="ZW" d="M29.23,161.68h-12.07M28.82,162.18h-11.27M29.23,161.18h-12.07" />
</g>
</g>
<g class="WNH" id="cv_Block_WNH_54">
<g id="cvclr_237" stroke="#808080" fill="none">
<path id="cv_238" class="ZW" d="M8.55,150.31l0,-12.07M8.05,149.91l0,-11.27M9.05,150.31l0,-12.07" />
</g>
</g>
<g class="WNH" id="cv_Block_WNH_55">
<g id="cvclr_239" stroke="#808080" fill="none">
<path id="cv_240" class="ZW" d="M47.24,161.68h-12.07M46.83,162.18h-11.27M47.24,161.18h-12.07" />
</g>
</g>
<g class="WNH" id="cv_Block_WNH_56">
<g id="cvclr_241" stroke="#808080" fill="none">
<path id="cv_242" class="ZW" d="M75.11,175.97h-12.07M74.7,176.47h-11.27M75.11,175.46h-12.07" />
</g>
</g>
<g class="WNH" id="cv_Block_WNH_57">
<g id="cvclr_243" stroke="#808080" fill="none">
<path id="cv_244" class="ZW" d="M93.11,175.97h-12.07M92.71,176.47h-11.27M93.11,175.46h-12.07" />
</g>
</g>
<g class="WCWALL" id="cv_Block_WCWALL_58">
<g id="cvclr_245" stroke="#29A500" fill="none">
<path id="cv_246" class="ZW" d="M30.18,105.84h-2.82M30.18,105.84l-0.5,0.91M27.37,105.84l0.5,0.91" />
<path id="cv_247" class="ZW" d="M29.68,106.75A 1.03584 1.03584 0 0 0 29.68 107.75M29.68,110.57A 2.22348 2.22348 0 0 0 29.68 107.75M27.87,110.57A 1.06646 1.06646 0 0 0 29.68 110.57M27.87,107.75A 2.22348 2.22348 0 0 0 27.87 110.57M27.87,107.75A 1.03584 1.03584 0 0 0 27.87 106.75" />
</g>
</g>
<g class="WCWALL" id="cv_Block_WCWALL_59">
<g id="cvclr_248" stroke="#29A500" fill="none">
<path id="cv_249" class="ZW" d="M30.18,104.63h-2.82M30.18,104.63l-0.5,-0.91M27.37,104.63l0.5,-0.91" />
<path id="cv_250" class="ZW" d="M29.68,102.72A 1.03584 1.03584 0 0 0 29.68 103.73M29.68,102.72A 2.22348 2.22348 0 0 0 29.68 99.91M29.68,99.91A 1.06646 1.06646 0 0 0 27.87 99.91M27.87,99.91A 2.22348 2.22348 0 0 0 27.87 102.72M27.87,103.73A 1.03584 1.03584 0 0 0 27.87 102.72" />
</g>
</g>
<g class="URINAL" id="cv_Block_URINAL_60">
<g id="cvclr_251" stroke="#29A500" fill="none">
<path id="cv_252" class="ZW" d="M27.01,79.28h3.62M27.01,80.69l0,-1.41M27.41,80.49l0,0.2M28.52,81.59l-0.8,-1.11M29.93,80.49l-0.8,1.11M30.23,80.69l0,-0.2M30.63,79.28l0,1.41M30.03,80.39h-2.41" />
<path id="cv_253" class="ZW" d="M27.01,80.69A 0.20122 0.20122 0 1 0 27.41 80.69M27.71,80.49A 0.159078 0.159078 0 0 0 27.41 80.49M28.52,81.59A 0.503049 0.503049 0 0 0 29.12 81.59M30.23,80.49A 0.159078 0.159078 0 0 0 29.93 80.49M30.23,80.69A 0.20122 0.20122 0 1 0 30.63 80.69" />
</g>
</g>
<g class="WNV" id="cv_Block_WNV_61">
<g id="cvclr_254" stroke="#808080" fill="none">
<path id="cv_255" class="ZW" d="M2.52,101.97l0,-11.17M2.01,91.2l0,10.36M3.02,101.97l0,-11.17" />
</g>
</g>
<g class="WNV" id="cv_Block_WNV_62">
<g id="cvclr_256" stroke="#808080" fill="none">
<path id="cv_257" class="ZW" d="M2.52,90.8l0,11.17M2.01,101.57l0,-10.36M3.02,90.8l0,11.17" />
</g>
</g>
<g class="WCWALL" id="cv_Block_WCWALL_63">
<g id="cvclr_258" stroke="#29A500" fill="none">
<path id="cv_259" class="ZW" d="M23.74,105.84h-2.82M23.74,105.84l-0.5,0.91M20.93,105.84l0.5,0.91" />
<path id="cv_260" class="ZW" d="M23.24,106.75A 1.03584 1.03584 0 0 0 23.24 107.75M23.24,110.57A 2.22348 2.22348 0 0 0 23.24 107.75M21.43,110.57A 1.06646 1.06646 0 0 0 23.24 110.57M21.43,107.75A 2.22348 2.22348 0 0 0 21.43 110.57M21.43,107.75A 1.03584 1.03584 0 0 0 21.43 106.75" />
</g>
</g>
<g class="WCWALL" id="cv_Block_WCWALL_64">
<g id="cvclr_261" stroke="#29A500" fill="none">
<path id="cv_262" class="ZW" d="M17.3,104.63h-2.82M17.3,104.63l-0.5,-0.91M14.49,104.63l0.5,-0.91" />
<path id="cv_263" class="ZW" d="M16.8,102.72A 1.03584 1.03584 0 0 0 16.8 103.73M16.8,102.72A 2.22348 2.22348 0 0 0 16.8 99.91M16.8,99.91A 1.06646 1.06646 0 0 0 14.99 99.91M14.99,99.91A 2.22348 2.22348 0 0 0 14.99 102.72M14.99,103.73A 1.03584 1.03584 0 0 0 14.99 102.72" />
</g>
</g>
<g class="WCWALL" id="cv_Block_WCWALL_65">
<g id="cvclr_264" stroke="#29A500" fill="none">
<path id="cv_265" class="ZW" d="M23.74,104.63h-2.82M23.74,104.63l-0.5,-0.91M20.93,104.63l0.5,-0.91" />
<path id="cv_266" class="ZW" d="M23.24,102.72A 1.03584 1.03584 0 0 0 23.24 103.73M23.24,102.72A 2.22348 2.22348 0 0 0 23.24 99.91M23.24,99.91A 1.06646 1.06646 0 0 0 21.43 99.91M21.43,99.91A 2.22348 2.22348 0 0 0 21.43 102.72M21.43,103.73A 1.03584 1.03584 0 0 0 21.43 102.72" />
</g>
</g>
<g class="URINAL" id="cv_Block_URINAL_66">
<g id="cvclr_267" stroke="#29A500" fill="none">
<path id="cv_268" class="ZW" d="M22.35,79.28h3.62M22.35,80.69l0,-1.41M22.75,80.49l0,0.2M23.86,81.59l-0.8,-1.11M25.27,80.49l-0.8,1.11M25.57,80.69l0,-0.2M25.97,79.28l0,1.41M25.37,80.39h-2.41" />
<path id="cv_269" class="ZW" d="M22.35,80.69A 0.20122 0.20122 0 1 0 22.75 80.69M23.05,80.49A 0.159078 0.159078 0 0 0 22.75 80.49M23.86,81.59A 0.503049 0.503049 0 0 0 24.46 81.59M25.57,80.49A 0.159078 0.159078 0 0 0 25.27 80.49M25.57,80.69A 0.20122 0.20122 0 1 0 25.97 80.69" />
</g>
</g>
<g class="ELEV" id="cv_Block_ELEV_67">
<g id="cvclr_270" stroke="#29A500" fill="none">
<path id="cv_271" class=" ZW" d="M60.42,66.61v13.28h16.9v-13.28h-16.9" />
<path id="cv_272" class="ZW" d="M77.32,79.89l-16.9,-13.28M60.42,79.89l16.9,-13.28" />
</g>
</g>
<g class="WNH" id="cv_Block_WNH_68">
<g id="cvclr_273" stroke="#808080" fill="none">
<path id="cv_274" class="ZW" d="M47.24,31.09h-12.07M46.83,30.59h-11.27M47.24,31.59h-12.07" />
</g>
</g>
<g class="WNH" id="cv_Block_WNH_69">
<g id="cvclr_275" stroke="#808080" fill="none">
<path id="cv_276" class="ZW" d="M75.11,16.8h-12.07M74.7,16.3h-11.27M75.11,17.3h-12.07" />
</g>
</g>
<g class="WNH" id="cv_Block_WNH_70">
<g id="cvclr_277" stroke="#808080" fill="none">
<path id="cv_278" class="ZW" d="M93.11,16.8h-12.07M92.71,16.3h-11.27M93.11,17.3h-12.07" />
</g>
</g>
<g class="ELEV" id="cv_Block_ELEV_71">
<g id="cvclr_279" stroke="#29A500" fill="none">
<path id="cv_280" class=" ZW" d="M106.29,126.16v-13.28h16.9v13.28h-16.9" />
<path id="cv_281" class="ZW" d="M123.2,112.88l-16.9,13.28M106.29,112.88l16.9,13.28" />
</g>
</g>
<g class="ELEV" id="cv_Block_ELEV_72">
<g id="cvclr_282" stroke="#29A500" fill="none">
<path id="cv_283" class=" ZW" d="M127.93,126.16v-13.28h16.9v13.28h-16.9" />
<path id="cv_284" class="ZW" d="M144.83,112.88l-16.9,13.28M127.93,112.88l16.9,13.28" />
</g>
</g>
<g class="WNV" id="cv_Block_WNV_73">
<g id="cvclr_285" stroke="#808080" fill="none">
<path id="cv_286" class="ZW" d="M294.48,106.29l0,11.17M294.99,117.06l0,-10.36M293.98,106.29l0,11.17" />
</g>
</g>
<g class="WNH" id="cv_Block_WNH_74">
<g id="cvclr_287" stroke="#808080" fill="none">
<path id="cv_288" class="ZW" d="M222.3,173.95h12.07M222.7,174.46h11.27M222.3,173.45h12.07" />
</g>
</g>
<g class="WNH" id="cv_Block_WNH_75">
<g id="cvclr_289" stroke="#808080" fill="none">
<path id="cv_290" class="ZW" d="M153.78,190.25h12.07M154.18,190.76h11.27M153.78,189.75h12.07" />
</g>
</g>
<g class="WNH" id="cv_Block_WNH_76">
<g id="cvclr_291" stroke="#808080" fill="none">
<path id="cv_292" class="ZW" d="M121.59,189.65h-12.07M121.18,190.15h-11.27M121.59,189.15h-12.07" />
</g>
</g>
<g class="WNH" id="cv_Block_WNH_77">
<g id="cvclr_293" stroke="#808080" fill="none">
<path id="cv_294" class="ZW" d="M143.22,190.25h-12.07M142.82,190.76h-11.27M143.22,189.75h-12.07" />
</g>
</g>
<g class="WNH" id="cv_Block_WNH_78">
<g id="cvclr_295" stroke="#808080" fill="none">
<path id="cv_296" class="ZW" d="M175.41,189.65h12.07M175.82,190.15h11.27M175.41,189.15h12.07" />
</g>
</g>
<g class="WNH" id="cv_Block_WNH_79">
<g id="cvclr_297" stroke="#808080" fill="none">
<path id="cv_298" class="ZW" d="M204.29,173.95h12.07M204.69,174.46h11.27M204.29,173.45h12.07" />
</g>
</g>
<g class="WNH" id="cv_Block_WNH_80">
<g id="cvclr_299" stroke="#808080" fill="none">
<path id="cv_300" class="ZW" d="M250.17,157.66h12.07M250.57,158.16h11.27M250.17,157.15h12.07" />
</g>
</g>
<g class="WNH" id="cv_Block_WNH_81">
<g id="cvclr_301" stroke="#808080" fill="none">
<path id="cv_302" class="ZW" d="M268.18,157.66h12.07M268.58,158.16h11.27M268.18,157.15h12.07" />
</g>
</g>
<g class="WNH" id="cv_Block_WNH_82">
<g id="cvclr_303" stroke="#808080" fill="none">
<path id="cv_304" class="ZW" d="M288.45,135.82l0,12.07M288.95,136.23l0,11.27M287.95,135.82l0,12.07" />
</g>
</g>
<g class="WNH" id="cv_Block_WNH_83">
<g id="cvclr_305" stroke="#808080" fill="none">
<path id="cv_306" class="ZW" d="M222.3,18.81h12.07M222.7,18.31h11.27M222.3,19.32h12.07" />
</g>
</g>
<g class="ELEV" id="cv_Block_ELEV_84">
<g id="cvclr_307" stroke="#29A500" fill="none">
<path id="cv_308" class=" ZW" d="M106.29,66.61v13.28h16.9v-13.28h-16.9" />
<path id="cv_309" class="ZW" d="M123.2,79.89l-16.9,-13.28M106.29,79.89l16.9,-13.28" />
</g>
</g>
<g class="ELEV" id="cv_Block_ELEV_85">
<g id="cvclr_310" stroke="#29A500" fill="none">
<path id="cv_311" class=" ZW" d="M127.93,66.61v13.28h16.9v-13.28h-16.9" />
<path id="cv_312" class="ZW" d="M144.83,79.89l-16.9,-13.28M127.93,79.89l16.9,-13.28" />
</g>
</g>
<g class="WNH" id="cv_Block_WNH_86">
<g id="cvclr_313" stroke="#808080" fill="none">
<path id="cv_314" class="ZW" d="M153.78,2.52h12.07M154.18,2.01h11.27M153.78,3.02h12.07" />
</g>
</g>
<g class="WNH" id="cv_Block_WNH_87">
<g id="cvclr_315" stroke="#808080" fill="none">
<path id="cv_316" class="ZW" d="M121.59,3.12h-12.07M121.18,2.62h-11.27M121.59,3.62h-12.07" />
</g>
</g>
<g class="WNH" id="cv_Block_WNH_88">
<g id="cvclr_317" stroke="#808080" fill="none">
<path id="cv_318" class="ZW" d="M143.22,2.52h-12.07M142.82,2.01h-11.27M143.22,3.02h-12.07" />
</g>
</g>
<g class="WNH" id="cv_Block_WNH_89">
<g id="cvclr_319" stroke="#808080" fill="none">
<path id="cv_320" class="ZW" d="M175.41,3.12h12.07M175.82,2.62h11.27M175.41,3.62h12.07" />
</g>
</g>
<g class="WNH" id="cv_Block_WNH_90">
<g id="cvclr_321" stroke="#808080" fill="none">
<path id="cv_322" class="ZW" d="M204.29,18.81h12.07M204.69,18.31h11.27M204.29,19.32h12.07" />
</g>
</g>
<g class="WNV" id="cv_Block_WNV_91">
<g id="cvclr_323" stroke="#808080" fill="none">
<path id="cv_324" class="ZW" d="M294.48,86.47l0,-11.17M294.99,75.71l0,10.36M293.98,86.47l0,-11.17" />
</g>
</g>
<g class="WNV" id="cv_Block_WNV_92">
<g id="cvclr_325" stroke="#808080" fill="none">
<path id="cv_326" class="ZW" d="M294.48,101.97l0,-11.17M294.99,91.2l0,10.36M293.98,101.97l0,-11.17" />
</g>
</g>
<g class="WNV" id="cv_Block_WNV_93">
<g id="cvclr_327" stroke="#808080" fill="none">
<path id="cv_328" class="ZW" d="M294.48,90.8l0,11.17M294.99,101.57l0,-10.36M293.98,90.8l0,11.17" />
</g>
</g>
<g class="WNH" id="cv_Block_WNH_94">
<g id="cvclr_329" stroke="#808080" fill="none">
<path id="cv_330" class="ZW" d="M288.45,56.95l0,-12.07M288.95,56.54l0,-11.27M287.95,56.95l0,-12.07" />
</g>
</g>
<g class="WNH" id="cv_Block_WNH_95">
<g id="cvclr_331" stroke="#808080" fill="none">
<path id="cv_332" class="ZW" d="M250.17,35.11h12.07M250.57,34.61h11.27M250.17,35.62h12.07" />
</g>
</g>
<g class="WNH" id="cv_Block_WNH_96">
<g id="cvclr_333" stroke="#808080" fill="none">
<path id="cv_334" class="ZW" d="M268.18,35.11h12.07M268.58,34.61h11.27M268.18,35.62h12.07" />
</g>
</g>
</g>
</g></svg>